<svg width="32" height="29" viewBox="0 0 32 29" fill="none" xmlns="http://www.w3.org/2000/svg">
<path d="M26.7487 17.25C27.301 17.25 27.7487 17.6977 27.7487 18.25V21.5H30.9987C31.551 21.5 31.9987 21.9477 31.9987 22.5V23.3333C31.9987 23.8856 31.551 24.3333 30.9987 24.3333H27.7487V27.5833C27.7487 28.1356 27.301 28.5833 26.7487 28.5833H25.9154C25.3631 28.5833 24.9154 28.1356 24.9154 27.5833V24.3333H21.6654C21.1131 24.3333 20.6654 23.8856 20.6654 23.3333V22.5C20.6654 21.9477 21.1131 21.5 21.6654 21.5H24.9154V18.25C24.9154 17.6977 25.3631 17.25 25.9154 17.25H26.7487ZM27.76 0.25C28.5364 0.25 29.1654 0.880417 29.1654 1.65675V13.4167C29.1654 13.969 28.7176 14.4167 28.1654 14.4167H27.332C26.7797 14.4167 26.332 13.969 26.332 13.4167V3.08333H3.66536V22.9153L17.1249 9.45704C17.5155 9.06655 18.1486 9.06656 18.5391 9.45707L21.7891 12.7071C21.9767 12.8946 22.082 13.149 22.082 13.4142V14.5935C22.082 15.4844 21.0049 15.9306 20.3749 15.3006L17.832 12.7578L7.67028 22.9167H16.832C17.3843 22.9167 17.832 23.3644 17.832 23.9167V24.75C17.832 25.3023 17.3843 25.75 16.832 25.75H2.23736C1.86452 25.7496 1.50707 25.6012 1.24356 25.3375C0.980047 25.0737 0.832031 24.7161 0.832031 24.3432V1.65675C0.834624 1.2847 0.983473 0.928608 1.24642 0.665392C1.50938 0.402175 1.86532 0.252967 2.23736 0.25H27.76ZM9.33203 5.91667C10.0835 5.91667 10.8041 6.21518 11.3355 6.74653C11.8669 7.27788 12.1654 7.99855 12.1654 8.75C12.1654 9.50145 11.8669 10.2221 11.3355 10.7535C10.8041 11.2848 10.0835 11.5833 9.33203 11.5833C8.58058 11.5833 7.85991 11.2848 7.32856 10.7535C6.79721 10.2221 6.4987 9.50145 6.4987 8.75C6.4987 7.99855 6.79721 7.27788 7.32856 6.74653C7.85991 6.21518 8.58058 5.91667 9.33203 5.91667Z" fill="#909CB5"/>
</svg>
