<svg width="54" height="54" viewBox="0 0 54 54" fill="none" xmlns="http://www.w3.org/2000/svg">
<g clip-path="url(#clip0_109_6210)">
<path d="M38.6988 53.9999H27.8988C25.9134 53.9999 24.2988 52.3853 24.2988 50.3999V26.9999C24.2988 25.0145 25.9134 23.3999 27.8988 23.3999H38.6988C40.6842 23.3999 42.2988 25.0145 42.2988 26.9999V50.3999C42.2988 52.3853 40.6842 53.9999 38.6988 53.9999ZM27.8988 25.1999C26.9061 25.1999 26.0988 26.0072 26.0988 26.9999V50.3999C26.0988 51.3926 26.9061 52.1999 27.8988 52.1999H38.6988C39.6915 52.1999 40.4988 51.3926 40.4988 50.3999V26.9999C40.4988 26.0072 39.6915 25.1999 38.6988 25.1999H27.8988Z" fill="#E4772F" stroke="white" stroke-width="0.4"/>
<path d="M38.7 25.1998H27.9C27.4032 25.1998 27 24.7966 27 24.2998V22.1425C27 20.8501 28.0503 19.7998 29.3427 19.7998H37.2582C38.5497 19.7998 39.6 20.8501 39.6 22.1425V24.2998C39.6 24.7966 39.1968 25.1998 38.7 25.1998ZM28.8 23.3998H37.8V22.1425C37.8 21.8437 37.557 21.5998 37.2573 21.5998H29.3418C29.043 21.5998 28.8 21.8437 28.8 22.1425V23.3998Z" fill="#E4772F" stroke="white" stroke-width="0.4"/>
<path d="M35.0996 21.5999H31.4996C31.0028 21.5999 30.5996 21.1967 30.5996 20.6999V15.2999C30.5996 14.8031 31.0028 14.3999 31.4996 14.3999H35.0996C35.5964 14.3999 35.9996 14.8031 35.9996 15.2999V20.6999C35.9996 21.1967 35.5964 21.5999 35.0996 21.5999ZM32.3996 19.7999H34.1996V16.1999H32.3996V19.7999Z" fill="#E4772F" stroke="white" stroke-width="0.4"/>
<path d="M35.1 16.2002H27.9C27.4032 16.2002 27 15.797 27 15.3002V8.1002C27 7.6034 27.4032 7.2002 27.9 7.2002H35.1C37.5813 7.2002 39.6 9.2189 39.6 11.7002C39.6 14.1815 37.5813 16.2002 35.1 16.2002ZM28.8 14.4002H35.1C36.5886 14.4002 37.8 13.1888 37.8 11.7002C37.8 10.2116 36.5886 9.0002 35.1 9.0002H28.8V14.4002Z" fill="#E4772F" stroke="white" stroke-width="0.4"/>
<path d="M27.8984 14.4H24.2984C23.8016 14.4 23.3984 13.9968 23.3984 13.5V9.9C23.3984 9.4032 23.8016 9 24.2984 9H27.8984C28.3952 9 28.7984 9.4032 28.7984 9.9V13.5C28.7984 13.9968 28.3952 14.4 27.8984 14.4ZM25.1984 12.6H26.9984V10.8H25.1984V12.6Z" fill="#E4772F" stroke="white" stroke-width="0.4"/>
<path d="M34.1988 44.9999H25.1988C24.702 44.9999 24.2988 44.5967 24.2988 44.0999V33.2999C24.2988 32.8031 24.702 32.3999 25.1988 32.3999H34.1988C34.6956 32.3999 35.0988 32.8031 35.0988 33.2999V44.0999C35.0988 44.5967 34.6956 44.9999 34.1988 44.9999ZM26.0988 43.1999H33.2988V34.1999H26.0988V43.1999Z" fill="#E4772F" stroke="white" stroke-width="0.4"/>
<path d="M41.3984 44.9999H37.7984C37.3016 44.9999 36.8984 44.5967 36.8984 44.0999V33.2999C36.8984 32.8031 37.3016 32.3999 37.7984 32.3999H41.3984C41.8952 32.3999 42.2984 32.8031 42.2984 33.2999V44.0999C42.2984 44.5967 41.8952 44.9999 41.3984 44.9999ZM38.6984 43.1999H40.4984V34.1999H38.6984V43.1999Z" fill="#E4772F" stroke="white" stroke-width="0.4"/>
<path d="M30.5988 37.8H25.1988C24.702 37.8 24.2988 37.3968 24.2988 36.9C24.2988 36.4032 24.702 36 25.1988 36H30.5988C31.0956 36 31.4988 36.4032 31.4988 36.9C31.4988 37.3968 31.0956 37.8 30.5988 37.8Z" fill="#E4772F" stroke="white" stroke-width="0.4"/>
<path d="M28.7988 41.4001H25.1988C24.702 41.4001 24.2988 40.9969 24.2988 40.5001C24.2988 40.0033 24.702 39.6001 25.1988 39.6001H28.7988C29.2956 39.6001 29.6988 40.0033 29.6988 40.5001C29.6988 40.9969 29.2956 41.4001 28.7988 41.4001Z" fill="#E4772F" stroke="white" stroke-width="0.4"/>
<path d="M14.3992 23.4C12.9106 23.4 11.6992 22.1886 11.6992 20.7V2.7C11.6992 1.2114 12.9106 0 14.3992 0C15.8878 0 17.0992 1.2114 17.0992 2.7V20.7C17.0992 22.1886 15.8878 23.4 14.3992 23.4ZM14.3992 1.8C13.9024 1.8 13.4992 2.2041 13.4992 2.7V20.7C13.4992 21.1959 13.9024 21.6 14.3992 21.6C14.896 21.6 15.2992 21.1959 15.2992 20.7V2.7C15.2992 2.2041 14.896 1.8 14.3992 1.8Z" fill="#E4772F" stroke="white" stroke-width="0.4"/>
<path d="M16.1988 20.7002C15.702 20.7002 15.2988 20.297 15.2988 19.8002V3.6002C15.2988 3.1034 15.702 2.7002 16.1988 2.7002C21.1614 2.7002 25.1988 6.7376 25.1988 11.7002C25.1988 16.6628 21.1614 20.7002 16.1988 20.7002ZM17.0988 4.556V18.8444C20.6457 18.3998 23.3988 15.365 23.3988 11.7002C23.3988 8.0354 20.6457 5.0006 17.0988 4.556Z" fill="#E4772F" stroke="white" stroke-width="0.4"/>
</g>
<defs>
<clipPath id="clip0_109_6210">
<rect width="54" height="54" fill="white"/>
</clipPath>
</defs>
</svg>
