<svg width="16" height="18" viewBox="0 0 16 18" fill="none" xmlns="http://www.w3.org/2000/svg">
<path d="M0.929688 4.28592H15.0725M4.85826 4.28592V2.71449C4.85826 2.29773 5.02382 1.89803 5.31852 1.60333C5.61322 1.30863 6.01292 1.14307 6.42969 1.14307H9.57255C9.98931 1.14307 10.389 1.30863 10.6837 1.60333C10.9784 1.89803 11.144 2.29773 11.144 2.71449V4.28592M13.5011 4.28592V15.2859C13.5011 15.7027 13.3356 16.1024 13.0409 16.3971C12.7462 16.6918 12.3465 16.8573 11.9297 16.8573H4.07255C3.65578 16.8573 3.25608 16.6918 2.96138 16.3971C2.66668 16.1024 2.50112 15.7027 2.50112 15.2859V4.28592H13.5011Z" stroke="#959595" stroke-linecap="round" stroke-linejoin="round"/>
</svg>
