<svg width="50" height="60" viewBox="0 0 50 60" fill="none" xmlns="http://www.w3.org/2000/svg">
<path d="M47.148 26.2326L46.7953 26.1504L47.0418 25.8869C47.9646 24.897 47.9115 23.3399 46.9225 22.4141L46.119 21.6646C45.639 21.2177 45.0128 20.9773 44.3585 21.0063C43.7022 21.0284 43.094 21.3049 42.6461 21.7838L40.2023 24.403C38.7304 22.3059 36.7746 20.3911 34.1023 18.7579C35.0642 18.5866 35.8447 18.3801 36.5161 17.9974H42.0329C44.2433 17.9974 46.0408 16.1999 46.0408 13.9895C46.0408 11.7792 44.2433 9.98163 42.0329 9.98163H36.0221C35.2997 9.63796 34.436 9.46562 33.2537 9.45259C33.0462 9.45059 32.8589 9.31131 32.7897 9.10591C32.6274 8.63398 32.4421 8.17207 32.2346 7.72619L33.1575 6.80338C34.7205 5.24031 34.7205 2.69831 33.1575 1.13623C31.6435 -0.377742 29.0043 -0.379746 27.4893 1.13623L26.4082 2.21736C24.3912 1.62319 22.269 1.94182 20.3673 3.13416C20.206 3.23737 19.9685 3.17424 19.8363 2.9999C19.3543 2.35563 18.7712 1.63421 17.9576 1.2204C16.7762 0.621223 15.0208 1.18132 14.1511 1.77249C13.3565 2.31355 13.3405 3.48385 13.5609 5.07598C13.6411 5.65612 13.8315 6.25029 14.0138 6.82542C14.128 7.18513 14.2964 7.71517 14.3645 8.06787L14.3695 8.29431C14.3715 8.36044 14.3685 8.39752 14.3715 8.40653C14.3495 8.43759 14.3144 8.46765 14.2853 8.49871C14.2533 8.53178 14.2262 8.56585 14.1851 8.59791C14.1471 8.62897 14.098 8.65703 14.0529 8.68708C14.0038 8.71915 13.9597 8.75221 13.9036 8.78327C13.8515 8.81233 13.7904 8.83838 13.7323 8.86544C13.6721 8.89449 13.616 8.92355 13.5509 8.9506C13.4828 8.97866 13.4086 9.00271 13.3355 9.02876C13.2724 9.0508 13.2122 9.07585 13.1451 9.09589C13.0599 9.12194 12.9688 9.14398 12.8796 9.16703C12.8205 9.18206 12.7634 9.20009 12.7032 9.21312C12.599 9.23616 12.4938 9.2532 12.3876 9.27023C12.3395 9.27825 12.2914 9.28927 12.2423 9.29628C12.1241 9.31231 12.0039 9.32133 11.8836 9.32935C11.8506 9.33135 11.8165 9.33736 11.7844 9.33837C11.6321 9.34538 11.4828 9.34438 11.3396 9.33436C11.1101 9.32033 10.8897 9.31231 10.6762 9.31432L5.9249 4.56297C4.99507 3.63515 3.37489 3.63715 2.45007 4.56297L1.67154 5.3405C0.713652 6.29839 0.713652 7.85645 1.67154 8.81433L6.5091 13.6508C6.503 13.7541 6.498 13.8583 6.495 13.9675C6.4219 17.1016 6.3467 20.343 5.3027 23.0874C5.1113 23.5904 4.93195 24.1074 4.75961 24.6405C4.61332 25.0843 4.48407 25.5252 4.35982 25.9651C4.3458 26.0152 4.32977 26.0603 4.31574 26.1104L4.22857 26.423C4.19049 26.5652 4.1444 26.7095 4.10833 26.8518L3.85583 27.7576L3.91094 27.7446C2.11641 35.9026 4.13839 43.1929 9.9829 49.4633C16.5769 56.5372 25.1808 60.003 36.2024 60.003C37.475 60.003 38.7805 59.9569 40.1182 59.8647C43.7533 59.6132 45.9636 57.2766 46.0318 53.6144C46.0809 50.9612 45.9035 48.0886 45.5057 45.0807V45.0797C45.3474 43.8813 45.2122 42.6709 45.0769 41.4585C44.7052 38.126 44.3214 34.7523 43.4437 31.545L45.7833 32.0891C45.9697 32.1332 46.158 32.1542 46.3454 32.1542C46.7983 32.1542 47.2432 32.027 47.6379 31.7825C48.195 31.4348 48.5828 30.8918 48.7321 30.2535L48.9816 29.1834C49.2902 27.8638 48.4676 26.5402 47.148 26.2326ZM35.0201 11.9866H38.5831C38.2385 12.5787 38.026 13.2571 38.026 13.9905C38.026 14.724 38.2385 15.4023 38.5831 15.9945H35.0201C33.915 15.9945 33.0162 15.0957 33.0162 13.9905C33.0162 12.8853 33.915 11.9866 35.0201 11.9866ZM44.0379 13.9905C44.0379 15.0957 43.1391 15.9945 42.0339 15.9945C40.9287 15.9945 40.03 15.0957 40.03 13.9905C40.03 12.8853 40.9287 11.9866 42.0339 11.9866C43.1391 11.9866 44.0379 12.8853 44.0379 13.9905ZM3.08933 7.39755C3.03522 7.34344 3.00616 7.28533 2.98612 7.23122C2.96809 7.18212 2.95606 7.13002 2.95606 7.07792V7.07692C2.95606 7.02482 2.96809 6.97271 2.98612 6.92261C3.00616 6.86951 3.03522 6.8124 3.08933 6.75829L3.86786 5.97976C3.98208 5.86554 4.11635 5.8475 4.18648 5.8475C4.25562 5.8475 4.39089 5.86554 4.50611 5.98076L9.8857 11.3603L10.3376 11.3313C10.6021 11.3132 10.8937 11.3132 11.2143 11.3353C11.3836 11.3453 11.567 11.3473 11.7604 11.3413C11.8756 11.3373 11.9999 11.3253 12.1211 11.3153C12.2043 11.3082 12.2834 11.3042 12.3696 11.2942C12.4948 11.2792 12.6221 11.2571 12.7503 11.2351C12.8415 11.2201 12.9307 11.207 13.0229 11.188C13.1441 11.164 13.2633 11.1319 13.3846 11.1008C13.4868 11.0748 13.589 11.0497 13.6902 11.0187C13.8024 10.9846 13.9116 10.9455 14.0218 10.9064C14.131 10.8674 14.2383 10.8273 14.3445 10.7822C14.4447 10.7401 14.5419 10.694 14.639 10.6469C14.7483 10.5938 14.8535 10.5367 14.9557 10.4766C15.0428 10.4255 15.127 10.3724 15.2082 10.3163C15.3084 10.2482 15.4015 10.175 15.4927 10.0989C15.5659 10.0377 15.636 9.97762 15.7021 9.91149C15.7322 9.88143 15.7693 9.85638 15.7983 9.82532C17.4806 11.192 18.8994 13.1669 18.0387 15.6678C17.0638 18.5014 11.8756 22.9852 6.8006 24.8629C6.9229 24.5092 7.0381 24.1575 7.1744 23.7988C8.3407 20.7328 8.4238 17.1638 8.498 14.0126C8.503 13.7781 8.522 13.5707 8.5421 13.3623L8.5851 12.8934L3.08933 7.39755ZM43.087 41.679C43.2233 42.9054 43.3595 44.1288 43.5208 45.3412C43.9066 48.2509 44.0779 51.0213 44.0298 53.5754C43.9817 56.1635 42.5449 57.6875 39.9829 57.8628C27.6937 58.7125 18.3684 55.5152 11.4498 48.0956C5.7796 42.0136 4.01114 35.1481 6.0852 27.1925C11.8215 25.5703 18.5547 20.332 19.9355 16.3201C21.0196 13.1699 19.7331 10.1309 16.3224 7.71517C16.2392 7.22521 16.0829 6.71821 15.9236 6.21723C15.7663 5.72326 15.6039 5.21125 15.5458 4.80144C15.4246 3.92071 15.4346 3.50589 15.4556 3.32153C16.0308 3.00992 16.8233 2.89469 17.0498 3.00792C17.4796 3.22635 17.8854 3.73835 18.2341 4.20327C18.9876 5.20624 20.3914 5.48579 21.4324 4.8325C23.0035 3.84857 24.6898 3.6632 26.309 4.30046L26.9202 4.54093L28.9061 2.55402C29.6866 1.77148 30.9601 1.77349 31.7407 2.55402C32.5212 3.33456 32.5212 4.60706 31.7407 5.3876L29.7848 7.34344L30.1335 7.99773C30.4281 8.55182 30.6846 9.14398 30.894 9.75519C31.1124 10.3954 31.5733 10.9044 32.1505 11.195C32.0633 11.2842 31.9942 11.3884 31.916 11.4856C31.8399 11.5798 31.7547 11.6679 31.6866 11.7691C31.6064 11.8884 31.5473 12.0196 31.4812 12.1479C31.4291 12.2481 31.3669 12.3413 31.3229 12.4455C31.2587 12.5988 31.2187 12.7621 31.1736 12.9244C31.1485 13.0146 31.1104 13.0988 31.0924 13.1909C31.0393 13.4495 31.0112 13.717 31.0112 13.9905C31.0112 14.2881 31.0493 14.5767 31.1114 14.8562C31.1315 14.9474 31.1665 15.0316 31.1936 15.1197C31.2477 15.3041 31.3068 15.4855 31.386 15.6568C31.4311 15.754 31.4852 15.8432 31.5373 15.9363C31.6224 16.0876 31.7116 16.2339 31.8138 16.3722C31.88 16.4614 31.9511 16.5435 32.0242 16.6267C32.1355 16.7529 32.2527 16.8712 32.3789 16.9824C32.426 17.0235 32.4621 17.0756 32.5112 17.1147C32.0844 17.3682 31.7808 17.794 31.6876 18.309C31.5503 19.0575 31.89 19.7879 32.5523 20.1677C35.2436 21.7187 37.1844 23.5583 38.6142 25.6094L38.8747 26.0122C38.9028 26.0542 38.9278 26.0983 38.9559 26.1404C39.7975 27.449 40.4779 28.8748 41.033 30.497L41.2133 31.023L41.2183 31.024C42.2704 34.3445 42.6742 37.9667 43.087 41.679ZM47.0318 28.7275L46.7823 29.7976C46.7452 29.9569 46.639 30.0421 46.5809 30.0792C46.5207 30.1162 46.3985 30.1713 46.2392 30.1363L42.7433 29.3217C42.7413 29.3167 42.7393 29.3126 42.7383 29.3086C42.3425 28.2275 41.8786 27.1704 41.3135 26.1514L44.114 23.1525C44.2242 23.0333 44.3585 23.0113 44.4276 23.0082C44.4978 23.0133 44.634 23.0183 44.7523 23.1305L45.5558 23.879C45.7382 24.0493 45.7472 24.3369 45.5769 24.5192L42.9668 27.3167L46.6931 28.1834C46.9356 28.2415 47.0879 28.485 47.0318 28.7275Z" fill="#E4772F" stroke="white" stroke-width="0.5"/>
<path d="M38.4711 44.2185L35.9632 45.8908C34.2598 44.992 32.7288 44.0441 31.3701 43.0482H35.0183C35.5724 43.0482 36.0203 42.6003 36.0203 42.0462C36.0203 41.4921 35.5724 41.0442 35.0183 41.0442H29.0065C28.9844 41.0442 28.9664 41.0552 28.9444 41.0562C26.3412 38.6315 24.6579 35.9642 23.9185 33.0765C23.5387 31.5916 23.4506 30.1688 23.5297 28.8562C23.5417 28.8482 23.5568 28.8472 23.5688 28.8392C25.3293 27.6088 27.3833 27.6128 29.6798 28.8442C30.4914 29.2791 31.314 29.8652 32.1246 30.5686C32.0535 30.7079 32.0134 30.8622 32.0134 31.0225V35.0304C32.0134 35.5845 32.4613 36.0324 33.0154 36.0324C33.5695 36.0324 34.0173 35.5845 34.0173 35.0304V32.4653C34.5965 33.1246 35.1606 33.835 35.6956 34.6015C35.89 34.8801 36.2016 35.0304 36.5183 35.0304C36.7156 35.0304 36.915 34.9713 37.0904 34.85C37.5443 34.5334 37.6545 33.9092 37.3389 33.4543C36.6405 32.4543 35.894 31.5325 35.1195 30.6949L37.6234 28.8172C38.0663 28.4855 38.1565 27.8573 37.8238 27.4154C37.4922 26.9715 36.8629 26.8834 36.4221 27.215L33.6767 29.2741C32.6737 28.3743 31.6457 27.6238 30.6257 27.0767C28.235 25.7942 25.9344 25.5888 23.8774 26.4215C24.5307 23.5258 25.8062 21.599 25.8272 21.5669C26.1378 21.11 26.0196 20.4868 25.5627 20.1752C25.1078 19.8626 24.4846 19.9798 24.172 20.4357C24.0117 20.6712 20.3445 26.1559 21.8715 33.0675C21.7151 33.1056 21.5649 33.1677 21.4376 33.282C17.0039 37.2608 16.8426 44.3678 21.0068 49.2954L20.9907 52.0569C20.9877 52.611 21.4336 53.0619 21.9867 53.0649C21.9887 53.0649 21.9907 53.0649 21.9927 53.0649C22.5438 53.0649 22.9917 52.62 22.9947 52.0689L23.0057 50.0589H24.9986C25.5527 50.0589 26.0006 49.6111 26.0006 49.057C26.0006 48.5029 25.5527 48.055 24.9986 48.055H22.5939C19.1842 44.0752 19.1431 38.414 22.4586 35.0915C23.4936 37.9251 25.3443 40.5372 28.0045 42.9079V48.055C28.0045 48.6091 28.4524 49.057 29.0065 49.057C29.5606 49.057 30.0085 48.6091 30.0085 48.055V44.5351C31.4894 45.6362 33.1587 46.6793 35.0183 47.6622V50.0599C35.0183 50.614 35.4662 51.0619 36.0203 51.0619C36.5744 51.0619 37.0222 50.614 37.0222 50.0599V47.5901L39.5823 45.8837C40.0432 45.5761 40.1674 44.9549 39.8598 44.494C39.5542 44.0351 38.933 43.9119 38.4711 44.2185Z" fill="#E4772F" stroke="white" stroke-width="0.5"/>
</svg>
