<svg width="16" height="16" viewBox="0 0 16 16" fill="none" xmlns="http://www.w3.org/2000/svg">
<path d="M0.454505 0.454505C0.893845 0.015165 1.60616 0.015165 2.0455 0.454505L8 6.40901L13.9545 0.454505C14.3938 0.015165 15.1062 0.015165 15.5455 0.454505C15.9848 0.893845 15.9848 1.60616 15.5455 2.0455L9.59099 8L15.5455 13.9545C15.9848 14.3938 15.9848 15.1062 15.5455 15.5455C15.1062 15.9848 14.3938 15.9848 13.9545 15.5455L8 9.59099L2.0455 15.5455C1.60616 15.9848 0.893845 15.9848 0.454505 15.5455C0.015165 15.1062 0.015165 14.3938 0.454505 13.9545L6.40901 8L0.454505 2.0455C0.015165 1.60616 0.015165 0.893845 0.454505 0.454505Z" fill="#959595"/>
</svg>
