<svg width="60" height="60" viewBox="0 0 60 60" fill="none" xmlns="http://www.w3.org/2000/svg">
<path d="M59 31.0039H41.53C41.1803 31.004 40.8561 31.1868 40.675 31.4859C40.4939 31.785 40.4821 32.157 40.644 32.4669C43.2725 37.5159 41.9922 43.7167 37.579 47.3118C33.1658 50.9069 26.8342 50.9069 22.421 47.3118C18.0078 43.7167 16.7275 37.5159 19.356 32.4669C19.5179 32.157 19.5061 31.785 19.325 31.4859C19.1439 31.1868 18.8197 31.004 18.47 31.0039H1C0.447715 31.0039 0 31.4516 0 32.0039C0 32.5562 0.447715 33.0039 1 33.0039H16.925C14.6936 38.8339 16.5916 45.4368 21.5782 49.192C26.5648 52.9471 33.4352 52.9471 38.4218 49.192C43.4084 45.4368 45.3064 38.8339 43.075 33.0039H59C59.5523 33.0039 60 32.5562 60 32.0039C60 31.4516 59.5523 31.0039 59 31.0039Z" fill="#E4772F" stroke="white" stroke-width="0.4"/>
<path d="M35.7684 4.95749C32.8024 8.39449 28.8834 14.6865 27.0564 25.1485C26.5604 27.6608 25.3265 29.9681 23.5124 31.7755C20.2444 35.1786 20.1592 40.5278 23.3172 44.0332C26.4752 47.5386 31.8042 48.0103 35.5287 45.114C39.2533 42.2176 40.1089 36.9367 37.4894 33.0125C35.4276 30.103 34.5062 26.5376 34.9004 22.9935C35.4925 17.5193 36.905 12.1654 39.0904 7.11149C39.5071 6.20847 39.197 5.13647 38.3625 4.5954C37.528 4.05434 36.4228 4.20861 35.7684 4.95749ZM32.9224 22.7325C32.481 26.7549 33.5112 30.801 35.8224 34.1225C37.8597 37.1745 37.1944 41.2817 34.2979 43.5345C31.4013 45.7873 27.2567 45.4209 24.8003 42.6949C22.3438 39.969 22.4093 35.8088 24.9504 33.1615C27.0415 31.0678 28.4597 28.3974 29.0234 25.4925C30.7744 15.4805 34.4804 9.50949 37.2794 6.26349C35.0078 11.5031 33.539 17.0551 32.9224 22.7325Z" fill="#E4772F" stroke="white" stroke-width="0.4"/>
<path d="M6 39.0039C6.55229 39.0039 7 38.5562 7 38.0039C7 37.4516 6.55229 37.0039 6 37.0039C5.44772 37.0039 5 37.4516 5 38.0039C5 38.5562 5.44772 39.0039 6 39.0039Z" fill="#E4772F" stroke="white" stroke-width="0.4"/>
<path d="M12 39.0039C12.5523 39.0039 13 38.5562 13 38.0039C13 37.4516 12.5523 37.0039 12 37.0039C11.4477 37.0039 11 37.4516 11 38.0039C11 38.5562 11.4477 39.0039 12 39.0039Z" fill="#E4772F" stroke="white" stroke-width="0.4"/>
<path d="M3 43.0039C3.55229 43.0039 4 42.5562 4 42.0039C4 41.4516 3.55229 41.0039 3 41.0039C2.44772 41.0039 2 41.4516 2 42.0039C2 42.5562 2.44772 43.0039 3 43.0039Z" fill="#E4772F" stroke="white" stroke-width="0.4"/>
<path d="M9 43.0039C9.55229 43.0039 10 42.5562 10 42.0039C10 41.4516 9.55229 41.0039 9 41.0039C8.44772 41.0039 8 41.4516 8 42.0039C8 42.5562 8.44772 43.0039 9 43.0039Z" fill="#E4772F" stroke="white" stroke-width="0.4"/>
<path d="M6 47C6.55229 47 7 46.5523 7 46C7 45.4477 6.55229 45 6 45C5.44772 45 5 45.4477 5 46C5 46.5523 5.44772 47 6 47Z" fill="#E4772F" stroke="white" stroke-width="0.4"/>
<path d="M12 47C12.5523 47 13 46.5523 13 46C13 45.4477 12.5523 45 12 45C11.4477 45 11 45.4477 11 46C11 46.5523 11.4477 47 12 47Z" fill="#E4772F" stroke="white" stroke-width="0.4"/>
<path d="M3 51.0039C3.55229 51.0039 4 50.5562 4 50.0039C4 49.4516 3.55229 49.0039 3 49.0039C2.44772 49.0039 2 49.4516 2 50.0039C2 50.5562 2.44772 51.0039 3 51.0039Z" fill="#E4772F" stroke="white" stroke-width="0.4"/>
<path d="M9 51.0039C9.55229 51.0039 10 50.5562 10 50.0039C10 49.4516 9.55229 49.0039 9 49.0039C8.44772 49.0039 8 49.4516 8 50.0039C8 50.5562 8.44772 51.0039 9 51.0039Z" fill="#E4772F" stroke="white" stroke-width="0.4"/>
<path d="M15 51.0039C15.5523 51.0039 16 50.5562 16 50.0039C16 49.4516 15.5523 49.0039 15 49.0039C14.4477 49.0039 14 49.4516 14 50.0039C14 50.5562 14.4477 51.0039 15 51.0039Z" fill="#E4772F" stroke="white" stroke-width="0.4"/>
<path d="M6 55.0039C6.55229 55.0039 7 54.5562 7 54.0039C7 53.4516 6.55229 53.0039 6 53.0039C5.44772 53.0039 5 53.4516 5 54.0039C5 54.5562 5.44772 55.0039 6 55.0039Z" fill="#E4772F" stroke="white" stroke-width="0.4"/>
<path d="M12 55.0039C12.5523 55.0039 13 54.5562 13 54.0039C13 53.4516 12.5523 53.0039 12 53.0039C11.4477 53.0039 11 53.4516 11 54.0039C11 54.5562 11.4477 55.0039 12 55.0039Z" fill="#E4772F" stroke="white" stroke-width="0.4"/>
<path d="M18 55.0039C18.5523 55.0039 19 54.5562 19 54.0039C19 53.4516 18.5523 53.0039 18 53.0039C17.4477 53.0039 17 53.4516 17 54.0039C17 54.5562 17.4477 55.0039 18 55.0039Z" fill="#E4772F" stroke="white" stroke-width="0.4"/>
<path d="M24 55.0039C24.5523 55.0039 25 54.5562 25 54.0039C25 53.4516 24.5523 53.0039 24 53.0039C23.4477 53.0039 23 53.4516 23 54.0039C23 54.5562 23.4477 55.0039 24 55.0039Z" fill="#E4772F" stroke="white" stroke-width="0.4"/>
<path d="M30 55.0039C30.5523 55.0039 31 54.5562 31 54.0039C31 53.4516 30.5523 53.0039 30 53.0039C29.4477 53.0039 29 53.4516 29 54.0039C29 54.5562 29.4477 55.0039 30 55.0039Z" fill="#E4772F" stroke="white" stroke-width="0.4"/>
<path d="M54 39.0039C54.5523 39.0039 55 38.5562 55 38.0039C55 37.4516 54.5523 37.0039 54 37.0039C53.4477 37.0039 53 37.4516 53 38.0039C53 38.5562 53.4477 39.0039 54 39.0039Z" fill="#E4772F" stroke="white" stroke-width="0.4"/>
<path d="M48 39.0039C48.5523 39.0039 49 38.5562 49 38.0039C49 37.4516 48.5523 37.0039 48 37.0039C47.4477 37.0039 47 37.4516 47 38.0039C47 38.5562 47.4477 39.0039 48 39.0039Z" fill="#E4772F" stroke="white" stroke-width="0.4"/>
<path d="M57 43.0039C57.5523 43.0039 58 42.5562 58 42.0039C58 41.4516 57.5523 41.0039 57 41.0039C56.4477 41.0039 56 41.4516 56 42.0039C56 42.5562 56.4477 43.0039 57 43.0039Z" fill="#E4772F" stroke="white" stroke-width="0.4"/>
<path d="M51 43.0039C51.5523 43.0039 52 42.5562 52 42.0039C52 41.4516 51.5523 41.0039 51 41.0039C50.4477 41.0039 50 41.4516 50 42.0039C50 42.5562 50.4477 43.0039 51 43.0039Z" fill="#E4772F" stroke="white" stroke-width="0.4"/>
<path d="M54 47C54.5523 47 55 46.5523 55 46C55 45.4477 54.5523 45 54 45C53.4477 45 53 45.4477 53 46C53 46.5523 53.4477 47 54 47Z" fill="#E4772F" stroke="white" stroke-width="0.4"/>
<path d="M48 47C48.5523 47 49 46.5523 49 46C49 45.4477 48.5523 45 48 45C47.4477 45 47 45.4477 47 46C47 46.5523 47.4477 47 48 47Z" fill="#E4772F" stroke="white" stroke-width="0.4"/>
<path d="M57 51.0039C57.5523 51.0039 58 50.5562 58 50.0039C58 49.4516 57.5523 49.0039 57 49.0039C56.4477 49.0039 56 49.4516 56 50.0039C56 50.5562 56.4477 51.0039 57 51.0039Z" fill="#E4772F" stroke="white" stroke-width="0.4"/>
<path d="M51 51.0039C51.5523 51.0039 52 50.5562 52 50.0039C52 49.4516 51.5523 49.0039 51 49.0039C50.4477 49.0039 50 49.4516 50 50.0039C50 50.5562 50.4477 51.0039 51 51.0039Z" fill="#E4772F" stroke="white" stroke-width="0.4"/>
<path d="M45 51.0039C45.5523 51.0039 46 50.5562 46 50.0039C46 49.4516 45.5523 49.0039 45 49.0039C44.4477 49.0039 44 49.4516 44 50.0039C44 50.5562 44.4477 51.0039 45 51.0039Z" fill="#E4772F" stroke="white" stroke-width="0.4"/>
<path d="M54 55.0039C54.5523 55.0039 55 54.5562 55 54.0039C55 53.4516 54.5523 53.0039 54 53.0039C53.4477 53.0039 53 53.4516 53 54.0039C53 54.5562 53.4477 55.0039 54 55.0039Z" fill="#E4772F" stroke="white" stroke-width="0.4"/>
<path d="M48 55.0039C48.5523 55.0039 49 54.5562 49 54.0039C49 53.4516 48.5523 53.0039 48 53.0039C47.4477 53.0039 47 53.4516 47 54.0039C47 54.5562 47.4477 55.0039 48 55.0039Z" fill="#E4772F" stroke="white" stroke-width="0.4"/>
<path d="M42 55.0039C42.5523 55.0039 43 54.5562 43 54.0039C43 53.4516 42.5523 53.0039 42 53.0039C41.4477 53.0039 41 53.4516 41 54.0039C41 54.5562 41.4477 55.0039 42 55.0039Z" fill="#E4772F" stroke="white" stroke-width="0.4"/>
<path d="M36 55.0039C36.5523 55.0039 37 54.5562 37 54.0039C37 53.4516 36.5523 53.0039 36 53.0039C35.4477 53.0039 35 53.4516 35 54.0039C35 54.5562 35.4477 55.0039 36 55.0039Z" fill="#E4772F" stroke="white" stroke-width="0.4"/>
<path d="M3 59.0039C3.55229 59.0039 4 58.5562 4 58.0039C4 57.4516 3.55229 57.0039 3 57.0039C2.44772 57.0039 2 57.4516 2 58.0039C2 58.5562 2.44772 59.0039 3 59.0039Z" fill="#E4772F" stroke="white" stroke-width="0.4"/>
<path d="M9 59.0039C9.55229 59.0039 10 58.5562 10 58.0039C10 57.4516 9.55229 57.0039 9 57.0039C8.44772 57.0039 8 57.4516 8 58.0039C8 58.5562 8.44772 59.0039 9 59.0039Z" fill="#E4772F" stroke="white" stroke-width="0.4"/>
<path d="M15 59.0039C15.5523 59.0039 16 58.5562 16 58.0039C16 57.4516 15.5523 57.0039 15 57.0039C14.4477 57.0039 14 57.4516 14 58.0039C14 58.5562 14.4477 59.0039 15 59.0039Z" fill="#E4772F" stroke="white" stroke-width="0.4"/>
<path d="M21 59.0039C21.5523 59.0039 22 58.5562 22 58.0039C22 57.4516 21.5523 57.0039 21 57.0039C20.4477 57.0039 20 57.4516 20 58.0039C20 58.5562 20.4477 59.0039 21 59.0039Z" fill="#E4772F" stroke="white" stroke-width="0.4"/>
<path d="M27 59.0039C27.5523 59.0039 28 58.5562 28 58.0039C28 57.4516 27.5523 57.0039 27 57.0039C26.4477 57.0039 26 57.4516 26 58.0039C26 58.5562 26.4477 59.0039 27 59.0039Z" fill="#E4772F" stroke="white" stroke-width="0.4"/>
<path d="M51 59.0039C51.5523 59.0039 52 58.5562 52 58.0039C52 57.4516 51.5523 57.0039 51 57.0039C50.4477 57.0039 50 57.4516 50 58.0039C50 58.5562 50.4477 59.0039 51 59.0039Z" fill="#E4772F" stroke="white" stroke-width="0.4"/>
<path d="M57 59.0039C57.5523 59.0039 58 58.5562 58 58.0039C58 57.4516 57.5523 57.0039 57 57.0039C56.4477 57.0039 56 57.4516 56 58.0039C56 58.5562 56.4477 59.0039 57 59.0039Z" fill="#E4772F" stroke="white" stroke-width="0.4"/>
<path d="M45 59.0039C45.5523 59.0039 46 58.5562 46 58.0039C46 57.4516 45.5523 57.0039 45 57.0039C44.4477 57.0039 44 57.4516 44 58.0039C44 58.5562 44.4477 59.0039 45 59.0039Z" fill="#E4772F" stroke="white" stroke-width="0.4"/>
<path d="M39 59.0039C39.5523 59.0039 40 58.5562 40 58.0039C40 57.4516 39.5523 57.0039 39 57.0039C38.4477 57.0039 38 57.4516 38 58.0039C38 58.5562 38.4477 59.0039 39 59.0039Z" fill="#E4772F" stroke="white" stroke-width="0.4"/>
<path d="M33 59.0039C33.5523 59.0039 34 58.5562 34 58.0039C34 57.4516 33.5523 57.0039 33 57.0039C32.4477 57.0039 32 57.4516 32 58.0039C32 58.5562 32.4477 59.0039 33 59.0039Z" fill="#E4772F" stroke="white" stroke-width="0.4"/>
<path d="M11.8252 2.33947C9.46424 5.40947 5.05324 12.6935 5.05324 16.4265C5.01822 19.8342 6.81617 22.9982 9.76167 24.7123C12.7072 26.4263 16.3463 26.4263 19.2918 24.7123C22.2373 22.9982 24.0352 19.8342 24.0002 16.4265C24.0002 12.6935 19.5892 5.40947 17.2282 2.33947C16.585 1.49772 15.5861 1.00391 14.5267 1.00391C13.4673 1.00391 12.4685 1.49772 11.8252 2.33947ZM14.5262 24.0025C10.3725 23.9695 7.02939 20.5803 7.05324 16.4265C7.05324 13.5745 10.7532 7.01047 13.4112 3.55847C13.6759 3.20945 14.0887 3.00444 14.5267 3.00444C14.9648 3.00444 15.3776 3.20945 15.6422 3.55847C18.3002 7.01047 22.0002 13.5745 22.0002 16.4265C22.0235 20.5804 18.6801 23.9695 14.5262 24.0025Z" fill="#E4772F" stroke="white" stroke-width="0.4"/>
<path d="M13.5611 19.2652C12.6963 19.1367 11.9406 18.6134 11.5161 17.8492C11.1807 16.7545 11.2799 15.5726 11.7931 14.5492C12.0127 14.0581 11.8046 13.4813 11.322 13.2437C10.8395 13.0061 10.2554 13.1927 10.0001 13.6662C9.94406 13.7772 8.66005 16.4282 9.70006 18.6802C10.3656 20.0031 11.6132 20.9371 13.0701 21.2032C13.4164 21.2909 13.7833 21.1871 14.0324 20.931C14.2816 20.6749 14.3751 20.3053 14.2779 19.9615C14.1807 19.6177 13.9074 19.3519 13.5611 19.2642V19.2652Z" fill="#E4772F" stroke="white" stroke-width="0.4"/>
<path d="M44.2928 18.7103C44.6833 19.1007 45.3163 19.1007 45.7068 18.7103L46.7068 17.7103C47.0858 17.318 47.0803 16.6943 46.6946 16.3085C46.3089 15.9228 45.6852 15.9174 45.2928 16.2963L44.2928 17.2963C43.9024 17.6868 43.9024 18.3198 44.2928 18.7103Z" fill="#E4772F" stroke="white" stroke-width="0.4"/>
<path d="M40.2924 21.2963L39.2924 22.2963C38.9135 22.6887 38.9189 23.3124 39.3046 23.6982C39.6903 24.0839 40.3141 24.0893 40.7064 23.7103L41.7064 22.7103C42.0854 22.318 42.08 21.6943 41.6942 21.3085C41.3085 20.9228 40.6848 20.9174 40.2924 21.2963Z" fill="#E4772F" stroke="white" stroke-width="0.4"/>
<path d="M44.2924 22.7103C45.3524 23.7713 45.4794 24.0033 45.9994 24.0033C46.4038 24.0033 46.7684 23.7596 46.9231 23.386C47.0779 23.0124 46.9923 22.5823 46.7064 22.2963L45.7064 21.2963C45.3141 20.9174 44.6903 20.9228 44.3046 21.3085C43.9189 21.6943 43.9135 22.318 44.2924 22.7103Z" fill="#E4772F" stroke="white" stroke-width="0.4"/>
<path d="M41.7064 17.2963L40.7064 16.2963C40.3141 15.9174 39.6903 15.9228 39.3046 16.3085C38.9189 16.6943 38.9135 17.318 39.2924 17.7103L40.2924 18.7103C40.6848 19.0893 41.3085 19.0839 41.6942 18.6982C42.08 18.3124 42.0854 17.6887 41.7064 17.2963Z" fill="#E4772F" stroke="white" stroke-width="0.4"/>
<path d="M50.9998 8.0045C51.5298 8.0045 51.6748 7.7435 52.7068 6.7115C52.9668 6.46042 53.071 6.08862 52.9795 5.73899C52.888 5.38936 52.615 5.11632 52.2653 5.0248C51.9157 4.93329 51.5439 5.03754 51.2928 5.2975L50.2928 6.2975C50.0069 6.58349 49.9214 7.01354 50.0761 7.38715C50.2309 7.76077 50.5954 8.00441 50.9998 8.0045Z" fill="#E4772F" stroke="white" stroke-width="0.4"/>
<path d="M45.2928 12.7103C45.6833 13.1007 46.3163 13.1007 46.7068 12.7103L47.7068 11.7103C48.0858 11.318 48.0803 10.6943 47.6946 10.3085C47.3089 9.92279 46.6852 9.91737 46.2928 10.2963L45.2928 11.2963C44.9024 11.6868 44.9024 12.3198 45.2928 12.7103Z" fill="#E4772F" stroke="white" stroke-width="0.4"/>
<path d="M50.2924 11.7103C51.3524 12.7713 51.4794 13.0033 51.9994 13.0033C52.4038 13.0033 52.7684 12.7596 52.9231 12.386C53.0779 12.0124 52.9923 11.5823 52.7064 11.2963L51.7064 10.2963C51.3141 9.91737 50.6903 9.92279 50.3046 10.3085C49.9189 10.6943 49.9135 11.318 50.2924 11.7103Z" fill="#E4772F" stroke="white" stroke-width="0.4"/>
<path d="M46.2924 7.71034C46.6848 8.08931 47.3085 8.08389 47.6943 7.69816C48.08 7.31242 48.0854 6.68872 47.7064 6.29634L46.7064 5.29634C46.3141 4.91736 45.6903 4.92278 45.3046 5.30852C44.9189 5.69425 44.9135 6.31796 45.2924 6.71034L46.2924 7.71034Z" fill="#E4772F" stroke="white" stroke-width="0.4"/>
</svg>
