<svg width="46" height="46" viewBox="0 0 46 46" fill="none" xmlns="http://www.w3.org/2000/svg">
<rect width="46" height="46" rx="23" fill="#D9D9D9"/>
<path d="M32.1287 35.8691H13.1445V33.496C13.1445 31.9226 13.7696 30.4137 14.8821 29.3011C15.9947 28.1885 17.5037 27.5635 19.0771 27.5635H26.1961C27.7695 27.5635 29.2785 28.1885 30.3911 29.3011C31.5036 30.4137 32.1287 31.9226 32.1287 33.496V35.8691ZM22.6366 25.1905C21.7017 25.1905 20.776 25.0063 19.9123 24.6486C19.0485 24.2908 18.2637 23.7664 17.6027 23.1054C16.9416 22.4443 16.4172 21.6595 16.0595 20.7958C15.7017 19.9321 15.5175 19.0063 15.5175 18.0714C15.5175 17.1366 15.7017 16.2108 16.0595 15.3471C16.4172 14.4834 16.9416 13.6986 17.6027 13.0375C18.2637 12.3764 19.0485 11.8521 19.9123 11.4943C20.776 11.1365 21.7017 10.9524 22.6366 10.9524C24.5247 10.9524 26.3354 11.7024 27.6705 13.0375C29.0056 14.3726 29.7556 16.1834 29.7556 18.0714C29.7556 19.9595 29.0056 21.7703 27.6705 23.1054C26.3354 24.4404 24.5247 25.1905 22.6366 25.1905Z" fill="white"/>
</svg>
