<svg width="54" height="48" viewBox="0 0 54 48" fill="none" xmlns="http://www.w3.org/2000/svg">
<path d="M45.3415 42.8318C42.4178 42.0521 40.376 39.394 40.376 36.3689V21.1751C45.2479 16.4762 48.5806 10.2924 49.7223 3.4398L49.9172 2.2693L48.032 1.95596L47.8381 3.12539C46.7259 9.79258 43.4172 15.7958 38.572 20.2654H38.465V20.3619C36.2684 22.3694 33.7603 24.0643 30.9999 25.3638L29.6517 25.9982H24.3231C21.0401 24.6223 18.082 22.6694 15.5337 20.2979V20.2664H15.4985C10.5979 15.6915 7.24707 9.53653 6.2294 2.75172L5.96858 1.01465L4.07869 1.29751L4.33951 3.03458C5.38196 9.98653 8.71932 16.3242 13.6228 21.1293V36.368C13.6228 39.393 11.5809 42.0511 8.65814 42.8318L0 45.1402L0.493067 46.9861L9.15156 44.6777C12.9093 43.6744 15.5341 40.2577 15.5341 36.3689V22.8453C17.9877 24.8929 20.7508 26.5955 23.7692 27.8376C23.8847 27.8863 24.009 27.9101 24.1332 27.9101H29.8661C30.0065 27.9101 30.145 27.8795 30.273 27.8193L31.8133 27.0941C34.2238 25.96 36.4511 24.5402 38.4652 22.8891V36.3687C38.4652 40.2575 41.0899 43.6743 44.8487 44.6775L53.5072 46.9858L54 45.1402L45.3415 42.8318Z" fill="#E4772F" stroke="white" stroke-width="0.4"/>
</svg>
