<svg width="18" height="14" viewBox="0 0 18 14" fill="none" xmlns="http://www.w3.org/2000/svg">
<path d="M9.00097 0.25C13.045 0.25 16.4095 3.16 17.1152 7C16.4102 10.84 13.045 13.75 9.00097 13.75C4.95697 13.75 1.59247 10.84 0.886719 7C1.59172 3.16 4.95697 0.25 9.00097 0.25ZM9.00097 12.25C10.5306 12.2497 12.0148 11.7301 13.2106 10.7764C14.4065 9.82264 15.2431 8.49121 15.5837 7C15.2419 5.50998 14.4047 4.18 13.2089 3.22752C12.0132 2.27504 10.5297 1.7564 9.00097 1.7564C7.47224 1.7564 5.98874 2.27504 4.793 3.22752C3.59727 4.18 2.76004 5.50998 2.41822 7C2.75879 8.49121 3.59547 9.82264 4.79133 10.7764C5.98718 11.7301 7.47137 12.2497 9.00097 12.25ZM9.00097 10.375C8.10586 10.375 7.24742 10.0194 6.61448 9.38649C5.98155 8.75355 5.62597 7.89511 5.62597 7C5.62597 6.10489 5.98155 5.24645 6.61448 4.61351C7.24742 3.98058 8.10586 3.625 9.00097 3.625C9.89607 3.625 10.7545 3.98058 11.3875 4.61351C12.0204 5.24645 12.376 6.10489 12.376 7C12.376 7.89511 12.0204 8.75355 11.3875 9.38649C10.7545 10.0194 9.89607 10.375 9.00097 10.375ZM9.00097 8.875C9.49825 8.875 9.97516 8.67746 10.3268 8.32582C10.6784 7.97419 10.876 7.49728 10.876 7C10.876 6.50272 10.6784 6.02581 10.3268 5.67417C9.97516 5.32254 9.49825 5.125 9.00097 5.125C8.50369 5.125 8.02677 5.32254 7.67514 5.67417C7.32351 6.02581 7.12597 6.50272 7.12597 7C7.12597 7.49728 7.32351 7.97419 7.67514 8.32582C8.02677 8.67746 8.50369 8.875 9.00097 8.875Z" fill="#C4C4C4"/>
</svg>
