<svg width="60" height="60" viewBox="0 0 60 60" fill="none" xmlns="http://www.w3.org/2000/svg">
<g clip-path="url(#clip0_88_4530)">
<path d="M58.3032 20.105C58.25 20.1348 52.4341 23 46.75 23C40.9502 23 33.0708 21.0498 32.9932 21.0298C32.6636 20.9473 32.3145 21.0376 32.0664 21.27C31.8184 21.5024 31.7051 21.8447 31.7661 22.1792L33.5498 32H20.6392L19.1802 19.6001C18.9229 17.417 19.6113 15.228 21.0718 13.585C22.5317 11.9419 24.625 11.001 26.8232 11H57.75V9H26.8232C24.0547 9.00098 21.4185 10.1851 19.5786 12.2539C17.7388 14.3228 16.8706 17.0791 17.1929 19.8291L18.625 32H17.75C17.1978 32 16.75 32.4478 16.75 33V42H0.75V44H4.75V58H0.75V60H45.75C46.3023 60 46.75 59.5522 46.75 59H55.75V57H46.75V46H55.75V44H46.75V43C46.75 42.4478 46.3023 42 45.75 42H37.75V33C37.75 32.4478 37.3023 32 36.75 32H35.585L34.0059 23.3188C38.189 24.293 42.4575 24.856 46.75 25C51.0669 24.8242 55.3023 23.769 59.1968 21.8999L58.3032 20.105ZM6.75 44H8.75V58H6.75V44ZM44.75 44V58H31.7012C32.5171 57.4873 33.2734 56.8862 33.957 56.207C36.3936 53.7837 37.7593 50.4863 37.75 47.0498V44H44.75ZM35.75 47.0498C35.7505 53.0977 30.8477 58.0005 24.7998 58H10.75V44H17.75C18.3022 44 18.75 43.5522 18.75 43V34H35.75V47.0498Z" fill="#E4772F" stroke="white" stroke-width="0.5"/>
<path d="M8.75 30V28H10.75V26H8.75V24H6.75V26H4.75V28H6.75V30H8.75Z" fill="#E4772F" stroke="white" stroke-width="0.5"/>
<path d="M12.75 7V5H14.75V3H12.75V1H10.75V3H8.75V5H10.75V7H12.75Z" fill="#E4772F" stroke="white" stroke-width="0.5"/>
<path d="M38.75 6V4H40.75V2H38.75V0H36.75V2H34.75V4H36.75V6H38.75Z" fill="#E4772F" stroke="white" stroke-width="0.5"/>
<path d="M47.75 35V33H49.75V31H47.75V29H45.75V31H43.75V33H45.75V35H47.75Z" fill="#E4772F" stroke="white" stroke-width="0.5"/>
<path d="M29.75 13H48.75V15H29.75V13Z" fill="#E4772F" stroke="white" stroke-width="0.5"/>
<path d="M50.75 13H52.75V15H50.75V13Z" fill="#E4772F" stroke="white" stroke-width="0.5"/>
</g>
<defs>
<clipPath id="clip0_88_4530">
<rect width="60" height="60" fill="white"/>
</clipPath>
</defs>
</svg>
