<svg width="54" height="54" viewBox="0 0 54 54" fill="none" xmlns="http://www.w3.org/2000/svg">
<g clip-path="url(#clip0_109_6647)">
<path d="M47.1477 10.7108C43.0519 6.78337 38.957 5.05482 34.9883 5.57457C30.1467 6.2078 27.0245 9.98793 26.0014 11.4209C21.4545 10.3494 20.5302 6.47592 20.49 6.29565C20.382 5.80334 19.898 5.48489 19.4038 5.59653C18.9097 5.70176 18.5949 6.18858 18.7011 6.68364C18.7495 6.91057 19.9666 12.2583 26.2641 13.3408L26.8762 13.4441L27.2002 12.9162C27.2304 12.8668 30.2456 8.03245 35.239 7.38732C38.6312 6.94717 42.211 8.51194 45.8813 12.0313C53.2458 19.0929 53.1158 28.1722 50.539 34.315C50.3249 34.8257 50.0907 35.3216 49.8435 35.8057C49.7136 35.7343 49.5709 35.683 49.4116 35.683C48.9065 35.683 48.4966 36.093 48.4966 36.5981C48.4966 36.9312 48.6841 37.2103 48.9504 37.3704C48.5258 38.0522 48.0684 38.7037 47.577 39.3214C47.5641 38.8273 47.1642 38.4283 46.6664 38.4283C46.1613 38.4283 45.7514 38.8382 45.7514 39.3433C45.7514 39.8485 46.1613 40.2584 46.6664 40.2584C46.7149 40.2584 46.7562 40.2383 46.8019 40.231C46.1824 40.9218 45.5217 41.5624 44.8235 42.1517C44.8262 42.1297 44.8372 42.1115 44.8372 42.0885C44.8372 41.5834 44.4272 41.1735 43.9221 41.1735C43.4171 41.1735 43.0071 41.5834 43.0071 42.0885C43.0071 42.5434 43.3447 42.9039 43.7803 42.9753C43.1599 43.4309 42.5203 43.8565 41.8541 44.2316C41.6866 44.0431 41.4488 43.9187 41.177 43.9187C40.6718 43.9187 40.2618 44.3286 40.2618 44.8338C40.2618 44.8951 40.2848 44.9482 40.2967 45.0058C37.7931 46.1231 35.0497 46.6969 32.2066 46.6007L32.1278 46.5989L32.0519 46.6099C31.9851 46.6209 25.306 47.481 17.5508 42.8416L16.8581 42.44L16.3594 43.0658C16.3337 43.0979 15.717 43.8565 14.6116 43.9187C13.4943 43.9955 12.1647 43.2891 10.7894 41.9147C9.87704 41.0024 8.60235 40.7315 7.45943 41.2018C6.59103 41.5606 4.57422 42.9029 4.57422 47.6C4.57422 48.106 4.98417 48.515 5.48929 48.515C5.99441 48.515 6.40436 48.106 6.40436 47.6C6.40436 44.6645 7.31027 43.2434 8.15854 42.8919C8.61608 42.6998 9.10385 42.8179 9.49364 43.2077C10.7536 44.4677 11.9964 45.251 13.2161 45.574C13.3635 45.6756 13.5318 45.7488 13.7249 45.7488C13.7936 45.7488 13.854 45.7241 13.9179 45.7104C14.2007 45.7433 14.4826 45.7607 14.7626 45.7433C15.8808 45.6674 16.708 45.1787 17.2159 44.7669C22.9387 48.0218 27.9826 48.5205 30.5402 48.5205C31.4214 48.5205 32.0079 48.461 32.2239 48.4345C40.8503 48.6285 48.7098 43.4062 52.2264 35.0242C55.8153 26.4711 53.8689 17.1547 47.1477 10.7108Z" fill="#E4772F" stroke="white" stroke-width="0.4"/>
<path d="M5.86101 36.6832C9.44712 34.5484 14.5395 36.6713 15.999 37.3632C16.0613 37.4016 16.1244 37.4345 16.1958 37.4574C16.3229 37.5206 16.409 37.5645 16.4154 37.5681L17.067 37.9213L17.5474 37.3586C20.2239 34.2272 24.3234 35.5193 24.4927 35.5732L25.5551 35.9283L25.6905 34.8165C25.9989 32.2891 29.564 30.9256 29.6006 30.912L30.1973 30.6887V24.4534L29.6876 24.2017C27.1473 22.9453 26.9954 19.6099 26.9936 19.5797L26.9708 18.8421L26.246 18.7077C15.5388 16.7219 13.9996 9.23483 13.9392 8.91642C13.8468 8.42229 13.3737 8.08737 12.8759 8.18346C12.3791 8.27405 12.0487 8.74988 12.1393 9.2468C12.2052 9.60824 13.8505 17.9564 25.2403 20.3721C25.4298 21.6222 26.0886 24.1449 28.3671 25.5579V29.4524C27.2489 29.9804 24.8972 31.3274 24.1056 33.6013C22.4997 33.3067 19.2201 33.1145 16.6487 35.641C14.7692 34.7625 9.20007 32.57 4.93039 35.1057C1.65902 37.0502 0 41.254 0 47.6C0 48.106 0.409951 48.5151 0.915066 48.5151C1.42018 48.5151 1.83013 48.106 1.83013 47.6C1.83013 41.9486 3.18627 38.2755 5.86101 36.6832Z" fill="#E4772F" stroke="white" stroke-width="0.4"/>
<path d="M41.1768 34.768C41.6822 34.768 42.0919 34.3584 42.0919 33.853C42.0919 33.3477 41.6822 32.938 41.1768 32.938C40.6714 32.938 40.2617 33.3477 40.2617 33.853C40.2617 34.3584 40.6714 34.768 41.1768 34.768Z" fill="#E4772F" stroke="white" stroke-width="0.4"/>
<path d="M46.6689 34.768C47.1744 34.768 47.5841 34.3584 47.5841 33.853C47.5841 33.3477 47.1744 32.938 46.6689 32.938C46.1636 32.938 45.7539 33.3477 45.7539 33.853C45.7539 34.3584 46.1636 34.768 46.6689 34.768Z" fill="#E4772F" stroke="white" stroke-width="0.4"/>
<path d="M49.4132 32.0225C49.9185 32.0225 50.3282 31.6129 50.3282 31.1074C50.3282 30.6021 49.9185 30.1924 49.4132 30.1924C48.9077 30.1924 48.498 30.6021 48.498 31.1074C48.498 31.6129 48.9077 32.0225 49.4132 32.0225Z" fill="#E4772F" stroke="white" stroke-width="0.4"/>
<path d="M21.9619 37.5137C22.4673 37.5137 22.8769 37.1041 22.8769 36.5987C22.8769 36.0933 22.4673 35.6836 21.9619 35.6836C21.4566 35.6836 21.0469 36.0933 21.0469 36.5987C21.0469 37.1041 21.4566 37.5137 21.9619 37.5137Z" fill="#E4772F" stroke="white" stroke-width="0.4"/>
<path d="M27.4542 37.5137C27.9595 37.5137 28.3692 37.1041 28.3692 36.5987C28.3692 36.0933 27.9595 35.6836 27.4542 35.6836C26.9487 35.6836 26.5391 36.0933 26.5391 36.5987C26.5391 37.1041 26.9487 37.5137 27.4542 37.5137Z" fill="#E4772F" stroke="white" stroke-width="0.4"/>
<path d="M32.9425 37.5137C33.4478 37.5137 33.8575 37.1041 33.8575 36.5987C33.8575 36.0933 33.4478 35.6836 32.9425 35.6836C32.437 35.6836 32.0273 36.0933 32.0273 36.5987C32.0273 37.1041 32.437 37.5137 32.9425 37.5137Z" fill="#E4772F" stroke="white" stroke-width="0.4"/>
<path d="M38.4307 37.5137C38.9361 37.5137 39.3458 37.1041 39.3458 36.5987C39.3458 36.0933 38.9361 35.6836 38.4307 35.6836C37.9254 35.6836 37.5156 36.0933 37.5156 36.5987C37.5156 37.1041 37.9254 37.5137 38.4307 37.5137Z" fill="#E4772F" stroke="white" stroke-width="0.4"/>
<path d="M43.9229 37.5137C44.4283 37.5137 44.838 37.1041 44.838 36.5987C44.838 36.0933 44.4283 35.6836 43.9229 35.6836C43.4175 35.6836 43.0078 36.0933 43.0078 36.5987C43.0078 37.1041 43.4175 37.5137 43.9229 37.5137Z" fill="#E4772F" stroke="white" stroke-width="0.4"/>
<path d="M13.7256 40.2593C14.2309 40.2593 14.6407 39.8497 14.6407 39.3443C14.6407 38.8389 14.2309 38.4292 13.7256 38.4292C13.2202 38.4292 12.8105 38.8389 12.8105 39.3443C12.8105 39.8497 13.2202 40.2593 13.7256 40.2593Z" fill="#E4772F" stroke="white" stroke-width="0.4"/>
<path d="M19.2158 40.2593C19.7213 40.2593 20.1309 39.8497 20.1309 39.3443C20.1309 38.8389 19.7213 38.4292 19.2158 38.4292C18.7105 38.4292 18.3008 38.8389 18.3008 39.3443C18.3008 39.8497 18.7105 40.2593 19.2158 40.2593Z" fill="#E4772F" stroke="white" stroke-width="0.4"/>
<path d="M21.9619 43.005C22.4673 43.005 22.8769 42.5953 22.8769 42.0898C22.8769 41.5845 22.4673 41.1748 21.9619 41.1748C21.4566 41.1748 21.0469 41.5845 21.0469 42.0898C21.0469 42.5953 21.4566 43.005 21.9619 43.005Z" fill="#E4772F" stroke="white" stroke-width="0.4"/>
<path d="M24.7061 40.2593C25.2115 40.2593 25.6212 39.8497 25.6212 39.3443C25.6212 38.8389 25.2115 38.4292 24.7061 38.4292C24.2008 38.4292 23.791 38.8389 23.791 39.3443C23.791 39.8497 24.2008 40.2593 24.7061 40.2593Z" fill="#E4772F" stroke="white" stroke-width="0.4"/>
<path d="M30.1963 40.2593C30.7016 40.2593 31.1113 39.8497 31.1113 39.3443C31.1113 38.8389 30.7016 38.4292 30.1963 38.4292C29.6909 38.4292 29.2812 38.8389 29.2812 39.3443C29.2812 39.8497 29.6909 40.2593 30.1963 40.2593Z" fill="#E4772F" stroke="white" stroke-width="0.4"/>
<path d="M24.7061 45.7471C25.2115 45.7471 25.6212 45.3374 25.6212 44.832C25.6212 44.3267 25.2115 43.917 24.7061 43.917C24.2008 43.917 23.791 44.3267 23.791 44.832C23.791 45.3374 24.2008 45.7471 24.7061 45.7471Z" fill="#E4772F" stroke="white" stroke-width="0.4"/>
<path d="M30.1963 45.7471C30.7016 45.7471 31.1113 45.3374 31.1113 44.832C31.1113 44.3267 30.7016 43.917 30.1963 43.917C29.6909 43.917 29.2812 44.3267 29.2812 44.832C29.2812 45.3374 29.6909 45.7471 30.1963 45.7471Z" fill="#E4772F" stroke="white" stroke-width="0.4"/>
<path d="M27.4542 43.005C27.9595 43.005 28.3692 42.5953 28.3692 42.0898C28.3692 41.5845 27.9595 41.1748 27.4542 41.1748C26.9487 41.1748 26.5391 41.5845 26.5391 42.0898C26.5391 42.5953 26.9487 43.005 27.4542 43.005Z" fill="#E4772F" stroke="white" stroke-width="0.4"/>
<path d="M32.9425 43.005C33.4478 43.005 33.8575 42.5953 33.8575 42.0898C33.8575 41.5845 33.4478 41.1748 32.9425 41.1748C32.437 41.1748 32.0273 41.5845 32.0273 42.0898C32.0273 42.5953 32.437 43.005 32.9425 43.005Z" fill="#E4772F" stroke="white" stroke-width="0.4"/>
<path d="M35.6886 40.2593C36.1939 40.2593 36.6036 39.8497 36.6036 39.3443C36.6036 38.8389 36.1939 38.4292 35.6886 38.4292C35.1831 38.4292 34.7734 38.8389 34.7734 39.3443C34.7734 39.8497 35.1831 40.2593 35.6886 40.2593Z" fill="#E4772F" stroke="white" stroke-width="0.4"/>
<path d="M41.1768 40.2593C41.6822 40.2593 42.0919 39.8497 42.0919 39.3443C42.0919 38.8389 41.6822 38.4292 41.1768 38.4292C40.6714 38.4292 40.2617 38.8389 40.2617 39.3443C40.2617 39.8497 40.6714 40.2593 41.1768 40.2593Z" fill="#E4772F" stroke="white" stroke-width="0.4"/>
<path d="M35.6886 45.7471C36.1939 45.7471 36.6036 45.3374 36.6036 44.832C36.6036 44.3267 36.1939 43.917 35.6886 43.917C35.1831 43.917 34.7734 44.3267 34.7734 44.832C34.7734 45.3374 35.1831 45.7471 35.6886 45.7471Z" fill="#E4772F" stroke="white" stroke-width="0.4"/>
<path d="M38.4307 43.005C38.9361 43.005 39.3458 42.5953 39.3458 42.0898C39.3458 41.5845 38.9361 41.1748 38.4307 41.1748C37.9254 41.1748 37.5156 41.5845 37.5156 42.0898C37.5156 42.5953 37.9254 43.005 38.4307 43.005Z" fill="#E4772F" stroke="white" stroke-width="0.4"/>
</g>
<defs>
<clipPath id="clip0_109_6647">
<rect width="54" height="54" fill="white"/>
</clipPath>
</defs>
</svg>
