<svg width="9" height="14" viewBox="0 0 9 14" fill="none" xmlns="http://www.w3.org/2000/svg">
<path d="M4.375 0C1.9585 0 0 1.9585 0 4.375C0 5.02783 0.143555 5.64821 0.399055 6.20361L3.73157 13.4352C3.89137 13.7829 4.12038 14 4.375 14C4.62962 14 4.85866 13.7829 5.01843 13.436L8.35095 6.20361C8.60729 5.64821 8.75 5.02783 8.75 4.375C8.75 1.9585 6.7915 0 4.375 0ZM4.375 7C2.92578 7 1.75 5.82422 1.75 4.375C1.75 2.92578 2.92578 1.75 4.375 1.75C5.82422 1.75 7 2.92578 7 4.375C7 5.82422 5.82422 7 4.375 7Z" fill="#048741"/>
</svg>
