<svg width="14" height="14" viewBox="0 0 14 14" fill="none" xmlns="http://www.w3.org/2000/svg">
<path d="M7 0C3.13992 0 0 3.13991 0 7C0 10.8601 3.13992 14 7 14C10.8601 14 14 10.8601 14 7C14 3.13991 10.8601 0 7 0ZM7 12.5165C3.96091 12.5165 1.49794 10.0391 1.49794 7.0144C1.49794 3.98971 3.97531 1.51235 7 1.51235C10.0247 1.51235 12.5021 3.98971 12.5021 7.0144C12.5021 10.0391 10.0391 12.5165 7 12.5165Z" fill="#006738"/>
<path d="M10.644 6.78395H7.50412V3.01029C7.50412 2.69342 7.24486 2.43416 6.92799 2.43416C6.61111 2.43416 6.35185 2.69342 6.35185 3.01029V7.36008C6.35185 7.67695 6.61111 7.93621 6.92799 7.93621H10.644C10.9609 7.93621 11.2202 7.67695 11.2202 7.36008C11.2202 7.04321 10.9609 6.78395 10.644 6.78395Z" fill="#006738"/>
</svg>
