<svg width="18" height="18" viewBox="0 0 18 18" fill="none" xmlns="http://www.w3.org/2000/svg">
<path d="M14.8326 16.882L17.1186 14.5939C17.3979 14.3146 17.5547 13.9408 17.5547 13.5455C17.5547 13.1502 17.4 12.7764 17.1186 12.4971L14.6586 10.0328C14.3793 9.75352 14.0033 9.59668 13.608 9.59668C13.2105 9.59668 12.8389 9.75137 12.5574 10.0328L10.6303 11.9578C9.60851 11.5193 8.68014 10.8892 7.89531 10.1016C7.10254 9.31309 6.47734 8.39141 6.03476 7.36875L7.96191 5.44375C8.24121 5.16445 8.39805 4.79062 8.39805 4.39531C8.39877 4.20033 8.36057 4.00716 8.28567 3.82713C8.21078 3.6471 8.10071 3.48382 7.96191 3.34687L5.50195 0.880468C5.22266 0.601171 4.84668 0.444335 4.45137 0.444335C4.05391 0.444335 3.68223 0.599023 3.40078 0.880468L1.11484 3.16641C0.63789 3.64336 0.36504 4.30078 0.36504 4.97539C0.36504 5.11504 0.375782 5.25039 0.399414 5.38789C0.867773 8.23242 2.38242 11.0555 4.65976 13.335C6.94141 15.6123 9.76445 17.1248 12.6111 17.5975C13.4189 17.7328 14.2504 17.4621 14.8326 16.882ZM12.8668 16.0742C10.3338 15.6553 7.80723 14.2932 5.75547 12.2414C3.70371 10.1896 2.3416 7.66523 1.92266 5.13223C1.86895 4.81426 1.97637 4.48769 2.20625 4.25566L4.45137 2.01055L6.83398 4.39102L4.25586 6.96484L4.23652 6.98418L4.4084 7.44824C4.92573 8.85531 5.74284 10.1331 6.80309 11.1929C7.86334 12.2528 9.14138 13.0695 10.5486 13.5863L11.0127 13.7582L13.6059 11.1629L15.9885 13.5434L13.7434 15.7885C13.5113 16.0205 13.1848 16.1279 12.8668 16.0742Z" fill="#006738"/>
</svg>
