<svg width="18" height="18" viewBox="0 0 18 18" fill="none" xmlns="http://www.w3.org/2000/svg">
<path d="M17.8891 9.00022C17.8891 13.9094 13.9094 17.8891 9.00022 17.8891C4.09102 17.8891 0.111328 13.9094 0.111328 9.00022C0.111328 4.09102 4.09102 0.111328 9.00022 0.111328C13.9094 0.111328 17.8891 4.09102 17.8891 9.00022ZM9.3188 6.67354C8.45422 7.03314 6.72629 7.77744 4.135 8.90642C3.71421 9.07375 3.49379 9.23745 3.47372 9.39751C3.43981 9.66803 3.77857 9.77455 4.23987 9.9196C4.30262 9.93933 4.36764 9.95977 4.43429 9.98144C4.88814 10.129 5.49865 10.3016 5.81603 10.3084C6.10392 10.3146 6.42525 10.196 6.78 9.95235C9.20112 8.31803 10.4509 7.49197 10.5294 7.47416C10.5847 7.4616 10.6614 7.4458 10.7134 7.49199C10.7654 7.53819 10.7603 7.62568 10.7548 7.64915C10.7212 7.79221 9.39147 9.02847 8.70332 9.66823C8.48879 9.86768 8.33661 10.0092 8.30551 10.0415C8.23582 10.1138 8.1648 10.1823 8.09654 10.2481C7.6749 10.6546 7.35871 10.9594 8.11405 11.4571C8.47703 11.6963 8.76749 11.8941 9.05727 12.0915C9.37373 12.307 9.68936 12.5219 10.0978 12.7896C10.2018 12.8578 10.3012 12.9287 10.398 12.9977C10.7662 13.2602 11.0971 13.4961 11.5059 13.4585C11.7434 13.4366 11.9888 13.2133 12.1134 12.5472C12.4078 10.9729 12.9867 7.56208 13.1204 6.15654C13.1321 6.03339 13.1174 5.87579 13.1056 5.80661C13.0937 5.73743 13.069 5.63886 12.9791 5.56589C12.8726 5.47947 12.7081 5.46125 12.6346 5.46255C12.3003 5.46844 11.7873 5.64679 9.3188 6.67354Z" fill="#FFFCFC"/>
</svg>
