<svg width="20" height="20" viewBox="0 0 20 20" fill="none" xmlns="http://www.w3.org/2000/svg">
<path d="M10 6.10352e-05C12.717 6.10352e-05 13.056 0.010061 14.122 0.060061C15.187 0.110061 15.912 0.277061 16.55 0.525061C17.21 0.779061 17.766 1.12306 18.322 1.67806C18.8305 2.17796 19.224 2.78265 19.475 3.45006C19.722 4.08706 19.89 4.81306 19.94 5.87806C19.987 6.94406 20 7.28306 20 10.0001C20 12.7171 19.99 13.0561 19.94 14.1221C19.89 15.1871 19.722 15.9121 19.475 16.5501C19.2247 17.2178 18.8311 17.8227 18.322 18.3221C17.822 18.8304 17.2173 19.2238 16.55 19.4751C15.913 19.7221 15.187 19.8901 14.122 19.9401C13.056 19.9871 12.717 20.0001 10 20.0001C7.283 20.0001 6.944 19.9901 5.878 19.9401C4.813 19.8901 4.088 19.7221 3.45 19.4751C2.78233 19.2245 2.17753 18.831 1.678 18.3221C1.16941 17.8222 0.775931 17.2175 0.525 16.5501C0.277 15.9131 0.11 15.1871 0.0599999 14.1221C0.0129999 13.0561 0 12.7171 0 10.0001C0 7.28306 0.00999994 6.94406 0.0599999 5.87806C0.11 4.81206 0.277 4.08806 0.525 3.45006C0.775236 2.78224 1.1688 2.17738 1.678 1.67806C2.17767 1.16929 2.78243 0.77579 3.45 0.525061C4.088 0.277061 4.812 0.110061 5.878 0.060061C6.944 0.013061 7.283 6.10352e-05 10 6.10352e-05ZM10 5.00006C8.67392 5.00006 7.40215 5.52685 6.46447 6.46453C5.52678 7.40221 5 8.67398 5 10.0001C5 11.3261 5.52678 12.5979 6.46447 13.5356C7.40215 14.4733 8.67392 15.0001 10 15.0001C11.3261 15.0001 12.5979 14.4733 13.5355 13.5356C14.4732 12.5979 15 11.3261 15 10.0001C15 8.67398 14.4732 7.40221 13.5355 6.46453C12.5979 5.52685 11.3261 5.00006 10 5.00006ZM16.5 4.75006C16.5 4.41854 16.3683 4.1006 16.1339 3.86618C15.8995 3.63176 15.5815 3.50006 15.25 3.50006C14.9185 3.50006 14.6005 3.63176 14.3661 3.86618C14.1317 4.1006 14 4.41854 14 4.75006C14 5.08158 14.1317 5.39952 14.3661 5.63394C14.6005 5.86837 14.9185 6.00006 15.25 6.00006C15.5815 6.00006 15.8995 5.86837 16.1339 5.63394C16.3683 5.39952 16.5 5.08158 16.5 4.75006ZM10 7.00006C10.7956 7.00006 11.5587 7.31613 12.1213 7.87874C12.6839 8.44135 13 9.20441 13 10.0001C13 10.7957 12.6839 11.5588 12.1213 12.1214C11.5587 12.684 10.7956 13.0001 10 13.0001C9.20435 13.0001 8.44129 12.684 7.87868 12.1214C7.31607 11.5588 7 10.7957 7 10.0001C7 9.20441 7.31607 8.44135 7.87868 7.87874C8.44129 7.31613 9.20435 7.00006 10 7.00006Z" fill="white"/>
</svg>
