<svg width="73" height="79" viewBox="0 0 73 79" fill="none" xmlns="http://www.w3.org/2000/svg">
<path d="M48.716 76.4204C47.7152 76.4204 46.924 75.6292 46.924 74.6284C46.924 73.6277 47.7152 72.8364 48.716 72.8364C49.7168 72.8364 50.5044 73.6277 50.5044 74.6284C50.5044 75.6292 49.7168 76.4204 48.716 76.4204ZM65.9891 17.1801L41.7648 1.57973C38.4988 -0.526576 34.2862 -0.526576 31.0201 1.57973L6.7922 17.1801C2.52901 19.9223 0 24.5612 0 29.6192V60.2925C0 68.9345 7.00536 75.9977 15.6943 75.9977H27.0713C32.9675 75.9977 37.7618 71.2034 37.7618 65.3V60.6069C46.5555 59.8698 55.9815 51.8601 58.3515 34.941C58.6695 32.5168 57.9324 30.0419 56.35 28.1958C54.7712 26.3532 52.4553 25.3488 50.0311 25.3488H47.9248V24.7166C47.9248 23.3473 46.8192 22.2418 45.4499 22.2418C44.0807 22.2418 42.9751 23.3473 42.9751 24.7166V28.6185C42.9751 29.9878 44.0807 31.0933 45.4499 31.0933C46.8192 31.0933 47.9248 29.9878 47.9248 28.6185V27.9862H50.0311C51.6641 27.9862 53.2429 28.7232 54.3485 29.9336C55.4576 31.2017 55.9309 32.8853 55.7177 34.5725C53.5067 50.7546 44.4492 58.0273 36.4431 58.0273C28.4405 58.0273 19.3795 50.7546 17.1684 34.5725C16.9588 32.8853 17.4321 31.2017 18.5377 29.9336C19.6432 28.6691 21.2256 27.9862 22.855 27.9862H24.965V28.6185C24.965 29.9878 26.0705 31.0933 27.4398 31.0933C28.8091 31.0933 29.9146 29.9878 29.9146 28.6185V24.7166C29.9146 23.3473 28.8091 22.2418 27.4398 22.2418C26.0705 22.2418 24.965 23.3473 24.965 24.7166V25.3488H22.855C20.4344 25.3488 18.1186 26.4038 16.5361 28.1958C14.9573 30.0419 14.2203 32.4662 14.5346 34.941C16.8541 51.8601 26.3342 59.8698 35.128 60.6069V65.2458C35.128 69.6716 31.5476 73.2555 27.1218 73.2555H15.6401C8.47941 73.2555 2.63378 67.4063 2.63378 60.2383V29.565C2.63378 25.403 4.6859 21.6095 8.21567 19.3948L32.44 3.79442C34.8642 2.26617 37.9171 2.26617 40.3413 3.79442L64.5657 19.3948C68.0449 21.6095 70.1512 25.4572 70.1512 29.565V60.2383C70.1512 67.4063 64.3055 73.2555 57.1412 73.2555H52.9792C52.4011 71.4635 50.7175 70.1485 48.7666 70.1485C46.3459 70.1485 44.3444 72.15 44.3444 74.5742C44.3444 76.9985 46.3459 79 48.7666 79C50.7681 79 52.4011 77.6849 52.9792 75.8929H57.1412C65.7796 75.8929 72.8355 68.8839 72.8355 60.1878V29.565C72.7813 24.507 70.2559 19.8681 65.9891 17.1801Z" fill="#048741"/>
</svg>
