<svg width="135" height="17" viewBox="0 0 135 17" fill="none" xmlns="http://www.w3.org/2000/svg">
<path d="M0.996735 0.599999V16H4.14273V5.616L8.23473 14.438H10.5007L14.5927 5.616V16H17.7167V0.599999H13.8447L9.37874 10.016L4.89073 0.599999H0.996735ZM21.8343 0.599999V16H33.8023V13.118H25.3103V9.708H32.7243V6.826H25.3103V3.482H33.5603V0.599999H21.8343ZM43.7702 0.599999H37.2362V16H43.6382C48.5002 16 51.8662 12.832 51.8662 8.3C51.8662 3.746 48.5442 0.599999 43.7702 0.599999ZM43.8582 13.074H40.7122V3.526H43.7042C46.3442 3.526 48.3242 5.484 48.3242 8.322C48.3242 11.138 46.4322 13.074 43.8582 13.074Z" fill="#048741"/>
<path d="M66.0051 5.506L68.0291 3.042C66.5111 1.48 64.1791 0.489999 61.9571 0.489999C57.2931 0.489999 53.7511 3.834 53.7511 8.278C53.7511 12.744 57.2271 16.154 61.8251 16.154C64.0691 16.154 66.4231 15.076 68.0511 13.404L66.0051 11.182C64.9051 12.282 63.3871 12.986 62.0011 12.986C59.3611 12.986 57.3151 10.918 57.3151 8.234C57.3151 5.55 59.3611 3.504 62.0011 3.504C63.4311 3.504 64.9491 4.296 66.0051 5.506ZM70.8332 0.599999V16H74.3092V9.928H81.2832V16H84.7592V0.599999H81.2832V7.024H74.3092V0.599999H70.8332ZM88.8562 0.599999V16H100.824V13.118H92.3322V9.708H99.7462V6.826H92.3322V3.482H100.582V0.599999H88.8562ZM115.412 5.506L117.436 3.042C115.918 1.48 113.586 0.489999 111.364 0.489999C106.7 0.489999 103.158 3.834 103.158 8.278C103.158 12.744 106.634 16.154 111.232 16.154C113.476 16.154 115.83 15.076 117.458 13.404L115.412 11.182C114.312 12.282 112.794 12.986 111.408 12.986C108.768 12.986 106.722 10.918 106.722 8.234C106.722 5.55 108.768 3.504 111.408 3.504C112.838 3.504 114.356 4.296 115.412 5.506ZM134.54 16L128.358 7.024L134.144 0.599999H130.118L123.716 7.596V0.599999H120.24V16H123.716V12.194L125.938 9.73L130.36 16H134.54Z" fill="#34453C"/>
</svg>
