<svg width="145" height="17" viewBox="0 0 145 17" fill="none" xmlns="http://www.w3.org/2000/svg">
<path d="M0.538118 0.206227V16.8347H3.93508V5.62236L8.35351 15.1481H10.8003L15.2187 5.62236V16.8347H18.5919V0.206227H14.411L9.58877 10.3734L4.74275 0.206227H0.538118ZM23.0379 0.206227V16.8347H35.9606V13.7228H26.7912V10.0408H34.7966V6.92889H26.7912V3.31813H35.6993V0.206227H23.0379ZM46.7238 0.206227H39.6685V16.8347H46.5812C51.8311 16.8347 55.4656 13.414 55.4656 8.52047C55.4656 3.60319 51.8786 0.206227 46.7238 0.206227ZM46.8188 13.6753H43.4218V3.36564H46.6525C49.5031 3.36564 51.641 5.47983 51.641 8.54423C51.641 11.5849 49.5981 13.6753 46.8188 13.6753Z" fill="#048741"/>
<path d="M70.7323 5.50359L72.9178 2.84303C71.2787 1.15643 68.7607 0.0874521 66.3614 0.0874521C61.3254 0.0874521 57.5008 3.69821 57.5008 8.49672C57.5008 13.319 61.2541 17.001 66.2189 17.001C68.6419 17.001 71.1837 15.837 72.9416 14.0316L70.7323 11.6324C69.5446 12.8201 67.9055 13.5803 66.4089 13.5803C63.5583 13.5803 61.3491 11.3473 61.3491 8.44921C61.3491 5.5511 63.5583 3.34189 66.4089 3.34189C67.953 3.34189 69.5921 4.19707 70.7323 5.50359ZM75.9455 0.206227V16.8347H79.6988V10.2783H87.2292V16.8347H90.9824V0.206227H87.2292V7.14268H79.6988V0.206227H75.9455ZM95.4064 0.206227V16.8347H108.329V13.7228H99.1596V10.0408H107.165V6.92889H99.1596V3.31813H108.068V0.206227H95.4064ZM124.081 5.50359L126.266 2.84303C124.627 1.15643 122.109 0.0874521 119.71 0.0874521C114.674 0.0874521 110.849 3.69821 110.849 8.49672C110.849 13.319 114.603 17.001 119.567 17.001C121.99 17.001 124.532 15.837 126.29 14.0316L124.081 11.6324C122.893 12.8201 121.254 13.5803 119.757 13.5803C116.907 13.5803 114.698 11.3473 114.698 8.44921C114.698 5.5511 116.907 3.34189 119.757 3.34189C121.301 3.34189 122.941 4.19707 124.081 5.50359ZM144.735 16.8347L138.06 7.14268L144.307 0.206227H139.96L133.047 7.76031V0.206227H129.294V16.8347H133.047V12.7251L135.446 10.0645L140.221 16.8347H144.735Z" fill="white"/>
<svg width="135" height="17" viewBox="0 0 135 17" fill="none" xmlns="http://www.w3.org/2000/svg">
<path d="M0.996735 0.599999V16H4.14273V5.616L8.23473 14.438H10.5007L14.5927 5.616V16H17.7167V0.599999H13.8447L9.37874 10.016L4.89073 0.599999H0.996735ZM21.8343 0.599999V16H33.8023V13.118H25.3103V9.708H32.7243V6.826H25.3103V3.482H33.5603V0.599999H21.8343ZM43.7702 0.599999H37.2362V16H43.6382C48.5002 16 51.8662 12.832 51.8662 8.3C51.8662 3.746 48.5442 0.599999 43.7702 0.599999ZM43.8582 13.074H40.7122V3.526H43.7042C46.3442 3.526 48.3242 5.484 48.3242 8.322C48.3242 11.138 46.4322 13.074 43.8582 13.074Z" fill="#048741"/>
<path d="M66.0051 5.506L68.0291 3.042C66.5111 1.48 64.1791 0.489999 61.9571 0.489999C57.2931 0.489999 53.7511 3.834 53.7511 8.278C53.7511 12.744 57.2271 16.154 61.8251 16.154C64.0691 16.154 66.4231 15.076 68.0511 13.404L66.0051 11.182C64.9051 12.282 63.3871 12.986 62.0011 12.986C59.3611 12.986 57.3151 10.918 57.3151 8.234C57.3151 5.55 59.3611 3.504 62.0011 3.504C63.4311 3.504 64.9491 4.296 66.0051 5.506ZM70.8332 0.599999V16H74.3092V9.928H81.2832V16H84.7592V0.599999H81.2832V7.024H74.3092V0.599999H70.8332ZM88.8562 0.599999V16H100.824V13.118H92.3322V9.708H99.7462V6.826H92.3322V3.482H100.582V0.599999H88.8562ZM115.412 5.506L117.436 3.042C115.918 1.48 113.586 0.489999 111.364 0.489999C106.7 0.489999 103.158 3.834 103.158 8.278C103.158 12.744 106.634 16.154 111.232 16.154C113.476 16.154 115.83 15.076 117.458 13.404L115.412 11.182C114.312 12.282 112.794 12.986 111.408 12.986C108.768 12.986 106.722 10.918 106.722 8.234C106.722 5.55 108.768 3.504 111.408 3.504C112.838 3.504 114.356 4.296 115.412 5.506ZM134.54 16L128.358 7.024L134.144 0.599999H130.118L123.716 7.596V0.599999H120.24V16H123.716V12.194L125.938 9.73L130.36 16H134.54Z" fill="#34453C"/>
</svg>
