<svg width="48" height="48" viewBox="0 0 48 48" fill="none" xmlns="http://www.w3.org/2000/svg">
<mask id="path-1-inside-1_109_6499" fill="white">
<path fill-rule="evenodd" clip-rule="evenodd" d="M15.6372 6.67628V5.99444C15.6372 4.19444 17.3609 2.47004 19.1616 2.47004C20.6664 2.47004 21.4375 2.7314 22.4282 3.86396C22.9013 4.40396 22.8048 4.61276 22.7998 5.5394V16.1133C21.0826 16.2559 18.9341 18.3849 18.9341 20.7746C18.9341 22.4803 20.5922 22.3701 21.0228 21.4989C21.2431 21.0532 21.2042 18.8724 22.7998 18.5008V28.7335C22.2036 28.8724 21.8724 29.2116 20.8939 28.9365C20.3042 28.7709 19.6267 28.0509 19.2754 28.0509C17.7569 28.0509 17.2327 29.8495 19.7916 30.9453C20.7946 31.3752 21.727 31.3708 22.7998 31.121V41.6949C22.8026 42.6727 22.897 42.9326 22.4635 43.5187C20.9083 45.6211 17.5495 45.4879 16.1354 43.1292C15.8676 42.682 15.8402 42.3451 15.6372 41.9217C16.62 41.4019 17.5013 41.0426 18.2537 39.9914C19.0558 38.8704 20.6664 35.2142 18.2515 35.2142C17.0527 35.2142 17.3738 36.6146 17.0491 37.5355C16.7345 38.429 16.229 39.036 15.4781 39.4896C13.2432 40.8388 10.5979 39.5673 9.9384 37.3742C9.49559 35.8996 10.5454 37.3065 13.0898 35.3956C14.4413 34.3812 15.5234 32.656 15.5234 30.4384C15.5234 29.5622 14.5428 29.0949 13.817 29.5233C13.0762 29.9611 13.331 30.9525 13.0387 31.8201C12.1675 34.41 8.61792 35.387 6.50903 33.2004C5.7948 32.4602 5.40456 31.5148 5.40456 30.0979C5.89848 30.1087 9.33575 30.9856 9.33647 29.074C9.33647 27.5613 7.41839 28.0509 7.22327 28.0509C2.77151 28.0509 1.6404 22.3824 4.38144 20.5471C5.47008 22.6048 10.2934 24.407 10.2934 21.9115C10.2934 21.3916 9.81167 20.9884 9.36959 20.902C8.64455 20.7602 8.32415 20.7861 7.68984 20.5356C6.80063 20.182 6.12168 19.3958 5.7444 18.5016C4.6968 16.0147 6.58823 13.4162 8.01959 13.3845C8.63735 16.0363 13.4765 18.377 13.4765 15.8858C13.4765 15.294 13.1035 14.921 12.6708 14.759C10.9039 14.0973 9.83831 13.4688 9.83831 10.8832C9.83831 9.89972 10.3776 8.92556 10.9126 8.43308C11.7953 7.6202 12.2071 7.65404 13.4765 7.35884C13.4916 8.0414 13.9092 8.81972 14.1562 9.2942C14.4629 9.88532 14.9028 10.3389 15.3787 10.8004C16.4407 11.8308 20.526 13.6207 20.526 11.1108C20.526 9.70676 18.8326 10.4282 17.43 9.54548C16.6502 9.05444 15.6372 7.87868 15.6372 6.67628ZM13.4765 5.08436C10.181 5.3594 7.56455 7.72244 7.56455 10.997C6.34631 11.5816 5.58384 11.7588 4.54128 13.0893C3.51744 14.3954 2.66352 16.9392 3.3576 18.3871C0.170875 20.5212 -0.526805 25.3999 2.8212 28.5873C3.5916 29.3203 3.13008 29.3282 3.13008 30.4384C3.13008 32.9455 4.58231 34.96 6.61703 36.048C6.95975 36.2308 7.24127 36.2935 7.56455 36.4648C7.56455 39.6292 10.1983 42.263 13.3627 42.263C14.0957 43.7908 13.5838 43.8852 15.3233 45.6463C17.3767 47.7256 20.6074 47.7703 23.0755 46.0632C23.4773 45.7852 23.581 45.5707 23.9366 45.3331C25.265 46.2223 25.715 47.2656 28.7117 47.2656C30.7529 47.2656 32.8697 45.7953 33.6775 44.2725C33.9511 43.7577 34.381 42.9528 34.3968 42.263C37.3596 42.263 39.5995 40.3147 40.2238 37.6305C40.3058 37.2756 40.3296 36.7507 40.4225 36.3511C41.5802 36.0811 42.81 35.1069 43.4472 34.2588C44.1492 33.3235 44.7432 32.0253 44.7432 30.4384C44.7432 29.38 44.3393 29.2713 44.993 28.6428C47.3899 26.3352 47.9566 23.3781 46.4114 20.47C45.9557 19.6125 45.3905 19.0106 44.6294 18.5008C44.6294 17.392 45.235 15.8858 43.4918 15.8858C42.3694 15.8858 42.5659 16.9449 42.3838 17.7333C42.1886 18.5786 41.887 19.1496 41.3642 19.6694C39.6701 21.3542 37.5799 20.4427 37.5799 21.9115C37.5799 24.6489 43.0771 22.103 43.4918 20.5471C45.5057 21.6127 45.7073 26.2574 42.5054 27.6333C40.6327 28.4383 40.1338 27.7716 39.3511 27.9955C38.3791 28.2727 37.9061 30.3247 40.5362 30.3247C41.365 30.3247 41.7847 30.113 42.4687 30.0979C42.4687 35.2084 36.3206 35.7434 34.8792 31.8892C34.5559 31.0238 34.7964 30.0028 34.1282 29.5672C33.3816 29.0805 32.3498 29.5608 32.3498 30.4384C32.3498 32.9563 33.8568 35.0385 35.7576 36.0134C36.8268 36.5628 38.035 36.5138 38.035 36.8054C38.035 38.55 35.875 40.612 33.2534 39.882C32.2166 39.5925 31.5298 38.8855 31.0301 38.0121C30.2971 36.7327 31.1597 35.2142 29.3942 35.2142C27.551 35.2142 28.5238 38.488 29.5872 39.9093C30.4534 41.0664 30.9746 41.2543 32.2361 41.9217C31.9128 42.5971 32.1223 42.9096 31.0733 43.9428C29.3726 45.6182 26.5279 45.2157 25.3154 43.3862C24.8885 42.7425 25.0735 39.918 25.0735 38.9654C25.0735 35.8586 25.0735 32.7504 25.0735 29.6428C25.4537 29.5543 25.8583 29.3016 26.3242 29.3016C27.7087 29.3016 28.0406 30.3247 28.7117 30.3247C30.4044 30.3247 30.3569 27.8997 27.6036 27.2265C26.4732 26.95 26.1838 26.9968 25.0735 27.2553V14.8627C27.6468 16.2242 25.9447 18.328 27.7354 18.5455C29.5282 18.7622 28.8924 16.1493 28.5209 15.281C28.0349 14.1441 26.4228 12.6184 25.0735 12.5889V4.7438C25.0735 3.75524 26.7346 2.47004 28.1429 2.47004C32.6616 2.47004 32.0078 6.37388 32.5514 7.04348C33.2585 7.91612 34.5106 7.19036 34.5106 6.56252C34.5106 4.7078 34.0714 3.24476 32.766 1.94012C32.573 1.74644 32.6083 1.82348 32.3866 1.63772C31.8278 1.16972 32.0093 1.25108 31.1777 0.800358C29.2596 -0.237882 26.4271 0.0486775 24.7128 1.42676C24.4018 1.67732 24.2693 1.90628 23.9366 2.12876C23.3362 1.727 23.6846 1.68668 22.2554 0.853638C21.1841 0.229398 20.2711 0.196278 19.0478 0.196278C16.3622 0.196278 13.6673 2.79332 13.4765 5.08436Z"/>
</mask>
<path fill-rule="evenodd" clip-rule="evenodd" d="M15.6372 6.67628V5.99444C15.6372 4.19444 17.3609 2.47004 19.1616 2.47004C20.6664 2.47004 21.4375 2.7314 22.4282 3.86396C22.9013 4.40396 22.8048 4.61276 22.7998 5.5394V16.1133C21.0826 16.2559 18.9341 18.3849 18.9341 20.7746C18.9341 22.4803 20.5922 22.3701 21.0228 21.4989C21.2431 21.0532 21.2042 18.8724 22.7998 18.5008V28.7335C22.2036 28.8724 21.8724 29.2116 20.8939 28.9365C20.3042 28.7709 19.6267 28.0509 19.2754 28.0509C17.7569 28.0509 17.2327 29.8495 19.7916 30.9453C20.7946 31.3752 21.727 31.3708 22.7998 31.121V41.6949C22.8026 42.6727 22.897 42.9326 22.4635 43.5187C20.9083 45.6211 17.5495 45.4879 16.1354 43.1292C15.8676 42.682 15.8402 42.3451 15.6372 41.9217C16.62 41.4019 17.5013 41.0426 18.2537 39.9914C19.0558 38.8704 20.6664 35.2142 18.2515 35.2142C17.0527 35.2142 17.3738 36.6146 17.0491 37.5355C16.7345 38.429 16.229 39.036 15.4781 39.4896C13.2432 40.8388 10.5979 39.5673 9.9384 37.3742C9.49559 35.8996 10.5454 37.3065 13.0898 35.3956C14.4413 34.3812 15.5234 32.656 15.5234 30.4384C15.5234 29.5622 14.5428 29.0949 13.817 29.5233C13.0762 29.9611 13.331 30.9525 13.0387 31.8201C12.1675 34.41 8.61792 35.387 6.50903 33.2004C5.7948 32.4602 5.40456 31.5148 5.40456 30.0979C5.89848 30.1087 9.33575 30.9856 9.33647 29.074C9.33647 27.5613 7.41839 28.0509 7.22327 28.0509C2.77151 28.0509 1.6404 22.3824 4.38144 20.5471C5.47008 22.6048 10.2934 24.407 10.2934 21.9115C10.2934 21.3916 9.81167 20.9884 9.36959 20.902C8.64455 20.7602 8.32415 20.7861 7.68984 20.5356C6.80063 20.182 6.12168 19.3958 5.7444 18.5016C4.6968 16.0147 6.58823 13.4162 8.01959 13.3845C8.63735 16.0363 13.4765 18.377 13.4765 15.8858C13.4765 15.294 13.1035 14.921 12.6708 14.759C10.9039 14.0973 9.83831 13.4688 9.83831 10.8832C9.83831 9.89972 10.3776 8.92556 10.9126 8.43308C11.7953 7.6202 12.2071 7.65404 13.4765 7.35884C13.4916 8.0414 13.9092 8.81972 14.1562 9.2942C14.4629 9.88532 14.9028 10.3389 15.3787 10.8004C16.4407 11.8308 20.526 13.6207 20.526 11.1108C20.526 9.70676 18.8326 10.4282 17.43 9.54548C16.6502 9.05444 15.6372 7.87868 15.6372 6.67628ZM13.4765 5.08436C10.181 5.3594 7.56455 7.72244 7.56455 10.997C6.34631 11.5816 5.58384 11.7588 4.54128 13.0893C3.51744 14.3954 2.66352 16.9392 3.3576 18.3871C0.170875 20.5212 -0.526805 25.3999 2.8212 28.5873C3.5916 29.3203 3.13008 29.3282 3.13008 30.4384C3.13008 32.9455 4.58231 34.96 6.61703 36.048C6.95975 36.2308 7.24127 36.2935 7.56455 36.4648C7.56455 39.6292 10.1983 42.263 13.3627 42.263C14.0957 43.7908 13.5838 43.8852 15.3233 45.6463C17.3767 47.7256 20.6074 47.7703 23.0755 46.0632C23.4773 45.7852 23.581 45.5707 23.9366 45.3331C25.265 46.2223 25.715 47.2656 28.7117 47.2656C30.7529 47.2656 32.8697 45.7953 33.6775 44.2725C33.9511 43.7577 34.381 42.9528 34.3968 42.263C37.3596 42.263 39.5995 40.3147 40.2238 37.6305C40.3058 37.2756 40.3296 36.7507 40.4225 36.3511C41.5802 36.0811 42.81 35.1069 43.4472 34.2588C44.1492 33.3235 44.7432 32.0253 44.7432 30.4384C44.7432 29.38 44.3393 29.2713 44.993 28.6428C47.3899 26.3352 47.9566 23.3781 46.4114 20.47C45.9557 19.6125 45.3905 19.0106 44.6294 18.5008C44.6294 17.392 45.235 15.8858 43.4918 15.8858C42.3694 15.8858 42.5659 16.9449 42.3838 17.7333C42.1886 18.5786 41.887 19.1496 41.3642 19.6694C39.6701 21.3542 37.5799 20.4427 37.5799 21.9115C37.5799 24.6489 43.0771 22.103 43.4918 20.5471C45.5057 21.6127 45.7073 26.2574 42.5054 27.6333C40.6327 28.4383 40.1338 27.7716 39.3511 27.9955C38.3791 28.2727 37.9061 30.3247 40.5362 30.3247C41.365 30.3247 41.7847 30.113 42.4687 30.0979C42.4687 35.2084 36.3206 35.7434 34.8792 31.8892C34.5559 31.0238 34.7964 30.0028 34.1282 29.5672C33.3816 29.0805 32.3498 29.5608 32.3498 30.4384C32.3498 32.9563 33.8568 35.0385 35.7576 36.0134C36.8268 36.5628 38.035 36.5138 38.035 36.8054C38.035 38.55 35.875 40.612 33.2534 39.882C32.2166 39.5925 31.5298 38.8855 31.0301 38.0121C30.2971 36.7327 31.1597 35.2142 29.3942 35.2142C27.551 35.2142 28.5238 38.488 29.5872 39.9093C30.4534 41.0664 30.9746 41.2543 32.2361 41.9217C31.9128 42.5971 32.1223 42.9096 31.0733 43.9428C29.3726 45.6182 26.5279 45.2157 25.3154 43.3862C24.8885 42.7425 25.0735 39.918 25.0735 38.9654C25.0735 35.8586 25.0735 32.7504 25.0735 29.6428C25.4537 29.5543 25.8583 29.3016 26.3242 29.3016C27.7087 29.3016 28.0406 30.3247 28.7117 30.3247C30.4044 30.3247 30.3569 27.8997 27.6036 27.2265C26.4732 26.95 26.1838 26.9968 25.0735 27.2553V14.8627C27.6468 16.2242 25.9447 18.328 27.7354 18.5455C29.5282 18.7622 28.8924 16.1493 28.5209 15.281C28.0349 14.1441 26.4228 12.6184 25.0735 12.5889V4.7438C25.0735 3.75524 26.7346 2.47004 28.1429 2.47004C32.6616 2.47004 32.0078 6.37388 32.5514 7.04348C33.2585 7.91612 34.5106 7.19036 34.5106 6.56252C34.5106 4.7078 34.0714 3.24476 32.766 1.94012C32.573 1.74644 32.6083 1.82348 32.3866 1.63772C31.8278 1.16972 32.0093 1.25108 31.1777 0.800358C29.2596 -0.237882 26.4271 0.0486775 24.7128 1.42676C24.4018 1.67732 24.2693 1.90628 23.9366 2.12876C23.3362 1.727 23.6846 1.68668 22.2554 0.853638C21.1841 0.229398 20.2711 0.196278 19.0478 0.196278C16.3622 0.196278 13.6673 2.79332 13.4765 5.08436Z" fill="#E4772F" stroke="white" mask="url(#path-1-inside-1_109_6499)"/>
</svg>
