<svg width="60" height="60" viewBox="0 0 60 60" fill="none" xmlns="http://www.w3.org/2000/svg">
<path d="M59.7196 22.5398C59.612 22.2423 59.467 21.9502 59.2764 21.6474C59.2721 21.6407 59.268 21.6341 59.2635 21.6275L59.1225 21.4153C59.1189 21.41 59.115 21.4043 59.1113 21.3989C59.0632 21.3299 59.0139 21.263 58.9627 21.1976C58.8562 21.0617 58.7432 20.9342 58.6271 20.8189L58.3203 20.5142L58.602 20.1859C58.7908 19.9657 58.9484 19.7025 59.1125 19.3321C59.1152 19.326 59.1177 19.32 59.1204 19.3138C59.1918 19.1433 59.2592 18.9768 59.2981 18.8193C59.345 18.6347 59.382 18.4472 59.4101 18.252C59.5253 17.4926 59.425 16.6579 59.117 15.8296C59.0413 15.6319 58.9435 15.4417 58.8497 15.2638C58.8464 15.2576 58.8432 15.2515 58.8398 15.2454L58.8121 15.1956C58.7196 15.0289 58.6322 14.8714 58.537 14.748L58.5276 14.7357C58.405 14.5715 58.2733 14.4114 58.1395 14.2635C57.9921 14.0991 57.8676 13.9796 57.7416 13.8808C57.3705 13.585 57.1056 13.4138 56.8356 13.2936C56.5162 13.1476 56.1931 13.042 55.8757 12.9796L55.4562 12.8971L55.5034 12.4721C55.5392 12.1499 55.5355 11.8074 55.4936 11.4622C55.4603 11.1676 55.3812 10.8652 55.2286 10.4513C55.2262 10.4447 55.2238 10.4383 55.2213 10.4319C54.9506 9.74408 54.4955 9.10049 53.913 8.57737C53.5995 8.28991 53.2443 8.07147 52.9697 7.91327C52.9633 7.90963 52.9567 7.90577 52.9502 7.90225C52.6657 7.7471 52.3455 7.62042 51.9432 7.50335C51.6617 7.42131 51.3416 7.37479 50.9359 7.35674C50.9307 7.35651 50.9253 7.35639 50.92 7.35628C50.8686 7.35487 50.8176 7.35405 50.7668 7.35405C50.6856 7.35405 50.5655 7.35616 50.4435 7.36741C50.2784 7.38464 50.1146 7.41065 49.9566 7.44487L49.5068 7.54237L49.4048 7.09354C49.1095 5.79405 48.0998 4.61105 46.7705 4.00636C46.1193 3.70988 45.4365 3.55941 44.7411 3.55941C44.031 3.55941 43.3402 3.72148 42.7431 4.02804L42.3312 4.23945L42.1181 3.82824C41.4928 2.6225 40.287 1.73457 38.8957 1.45332C38.559 1.38418 38.2165 1.34914 37.8779 1.34914C36.8044 1.34914 35.7835 1.69824 35.0032 2.33211L34.6367 2.62976L34.3447 2.25875C34.148 2.0089 33.9167 1.77957 33.6615 1.58058C33.4079 1.38043 33.1279 1.20172 32.8295 1.04996C32.8187 1.04457 32.8079 1.03918 32.7968 1.03414C32.1239 0.723711 31.44 0.564336 30.7641 0.560703C30.7371 0.560234 30.6477 0.558594 30.6157 0.558594C29.9811 0.558594 29.3334 0.696054 28.6907 0.967109C28.6796 0.971796 28.6686 0.976718 28.6577 0.981757C28.3549 1.12344 28.0674 1.29406 27.8073 1.48578C27.5449 1.67715 27.3083 1.89699 27.104 2.13933L26.7998 2.50039L26.4433 2.19054C25.6386 1.4907 24.5681 1.10539 23.429 1.10539C23.1495 1.10539 22.8663 1.12918 22.5875 1.17605C21.1886 1.41078 19.9542 2.25265 19.2854 3.42792L19.0569 3.82917L18.6541 3.60359C18.0083 3.24183 17.2541 3.05058 16.4728 3.05058C15.8519 3.05058 15.2392 3.17023 14.6516 3.40589C14.646 3.40812 14.6401 3.41058 14.6344 3.41292C14.2747 3.5655 13.9501 3.73952 13.6698 3.93042C13.6628 3.93523 13.6558 3.94003 13.6489 3.94507C13.3629 4.1512 13.0992 4.38113 12.8654 4.62839C12.8579 4.63624 12.8508 4.64409 12.8437 4.65218C12.3695 5.18913 12.0442 5.76546 11.8771 6.36511L11.754 6.80667L11.3109 6.68995C10.9704 6.6003 10.6471 6.5512 10.3496 6.54452C10.3452 6.5444 10.341 6.5444 10.3366 6.5444L10.2662 6.54382C9.95823 6.54382 9.64136 6.57417 9.32437 6.63405C9.31698 6.63546 9.30983 6.63686 9.30257 6.6385C8.98323 6.70659 8.6523 6.81745 8.28316 6.98081C7.98984 7.11358 7.67191 7.30893 7.31074 7.57799C7.30429 7.5828 7.29784 7.58772 7.29152 7.59276C7.02585 7.80159 6.76288 8.06174 6.48738 8.38858C6.48046 8.39678 6.47367 8.40522 6.46687 8.41366C6.26003 8.67662 6.06867 8.98248 5.89793 9.32303C5.89277 9.33323 5.88785 9.34365 5.88304 9.35397C5.58457 10.0069 5.44464 10.6876 5.47828 11.3224L5.50207 11.7688L5.05699 11.8099C4.90172 11.8242 4.74234 11.8478 4.58332 11.8805C4.57218 11.8828 4.56105 11.8853 4.55004 11.888C4.41105 11.9217 4.25906 11.9689 4.0923 12.0304C3.71226 12.1734 3.4057 12.332 3.16066 12.5113L3.14789 12.5212C2.78637 12.7754 2.5159 13.0168 2.30379 13.2725L2.29031 13.2884C2.16422 13.4338 2.04199 13.5883 1.92692 13.7471C1.91649 13.7616 1.90629 13.7764 1.89656 13.7915C1.79719 13.9467 1.69781 14.1203 1.59504 14.3187C1.22731 15.0211 1.03371 15.8538 1.05 16.6681C1.05832 16.9968 1.11598 17.3604 1.22133 17.7491C1.22356 17.7575 1.22602 17.7658 1.22836 17.774C1.31742 18.0701 1.45922 18.3768 1.65024 18.6857L1.87078 19.0424L1.53844 19.2984C0.662347 19.973 -0.249722 21.4741 0.062699 23.4838C0.0653944 23.5003 0.0682069 23.5169 0.0718397 23.5334C0.118949 23.7571 0.176605 23.9815 0.246097 24.21L0.267425 24.2775C0.304222 24.3953 0.321332 24.4485 0.349457 24.515C0.397972 24.6266 0.448714 24.7362 0.498636 24.8375C0.59473 25.0288 0.698558 25.2308 0.817503 25.4104C0.824534 25.421 0.8318 25.4315 0.839182 25.4418C0.965862 25.6175 1.10285 25.7894 1.24149 25.946L1.27805 25.9865C1.33875 26.0541 1.38539 26.1052 1.43227 26.1501C1.44129 26.1586 1.45031 26.1669 1.45969 26.1751C1.53633 26.243 1.61379 26.3078 1.69113 26.3692C1.84008 26.4876 1.99324 26.5962 2.14641 26.6922C2.16457 26.7035 2.1832 26.7144 2.20195 26.7245C2.51859 26.8944 2.84602 27.017 3.17484 27.0893L3.54351 27.1704L3.53988 27.548C3.53648 27.9005 3.58207 28.2603 3.67172 28.5884C3.675 28.6007 3.67863 28.6128 3.6825 28.6249C3.73758 28.7985 3.80508 28.9755 3.88265 29.1498C3.91945 29.2326 3.95859 29.3155 4.00055 29.3984C4.00863 29.4143 4.01707 29.43 4.02609 29.4454C4.07004 29.5214 4.11679 29.5956 4.16566 29.6711C4.2757 29.8397 4.39758 30.008 4.52824 30.1712C4.53633 30.1814 4.54476 30.1914 4.5532 30.2011C4.66511 30.3297 4.7966 30.4631 4.98398 30.6373C5.06578 30.7124 5.14992 30.7866 5.23277 30.856C5.30214 30.9127 5.36461 30.9556 5.41488 30.99L5.48414 31.0379C5.65863 31.1569 5.84214 31.2706 6.02964 31.3757C6.04359 31.3835 6.05765 31.3909 6.07195 31.3981C6.78621 31.7523 7.52765 31.9397 8.21589 31.9397C8.25585 31.9397 8.29534 31.9392 8.34515 31.9375C8.52444 31.9333 8.70257 31.9206 8.87483 31.8992C8.88163 31.8985 8.88843 31.8974 8.89534 31.8965C9.07276 31.8706 9.25124 31.825 9.37933 31.7903C9.73675 31.6899 10.0325 31.5692 10.2832 31.4209L10.6827 31.185L10.9194 31.584C11.5951 32.7236 12.896 33.5531 14.3126 33.749C14.5427 33.7813 14.7758 33.7976 15.005 33.7976C16.1558 33.7976 17.2516 33.3897 18.0909 32.6489L18.4472 32.3346L18.7537 32.6974C19.6073 33.7074 20.884 34.3126 22.2568 34.3583C22.3214 34.3603 22.3855 34.3588 22.4498 34.3584C22.0973 35.0373 21.9043 35.7997 21.9043 36.5934C21.9043 38.9487 23.593 40.9162 25.8232 41.3509C26.0522 45.6676 28.6393 49.6113 32.5478 51.5169L36.0121 53.2061L36.0396 53.2194C37.2305 53.7934 37.9706 54.9468 37.9706 56.2297C37.9706 58.0009 39.4116 59.4419 41.1828 59.4419H42.3374C44.1086 59.4419 45.5497 58.0009 45.5497 56.2297C45.5497 53.6745 44.6255 51.2315 43.0362 49.3047C43.325 49.3249 43.6148 49.3363 43.9049 49.3363C44.0758 49.3363 44.247 49.3328 44.418 49.3256C51.0347 49.0512 56.2147 43.6427 56.2104 37.0127C56.2102 36.4896 55.786 36.066 55.2631 36.066C55.263 36.066 55.2627 36.066 55.2625 36.066C54.7393 36.0662 54.3154 36.4908 54.3157 37.014C54.3193 42.6239 49.9372 47.2004 44.3395 47.4326C42.6071 47.5045 40.8755 47.1453 39.3341 46.3937L35.8698 44.7044C34.6703 44.1196 33.8102 43.0137 33.5061 41.742C33.5142 41.7414 33.5223 41.7416 33.5302 41.7409C34.2733 41.6815 34.9384 41.4937 35.5037 41.1847C36.1004 40.8619 36.6003 40.4449 36.9901 39.9455L37.2789 39.575L37.6463 39.8679C38.1372 40.2593 38.7311 40.5585 39.3639 40.7333C39.3748 40.7364 39.3857 40.7392 39.3967 40.7418C39.7931 40.8361 40.1953 40.8839 40.5922 40.8839C40.8805 40.8839 41.1754 40.8581 41.4453 40.8094C41.4495 40.8087 41.4536 40.8079 41.4578 40.8069C42.2106 40.6604 42.8701 40.3859 43.4092 39.9967C43.6892 39.7991 43.9408 39.5818 44.1567 39.351C44.1621 39.3451 44.1674 39.3394 44.1726 39.3334C44.391 39.088 44.5813 38.8241 44.7384 38.5489L44.9662 38.1495L45.368 38.373C45.6812 38.5473 45.9802 38.675 46.2612 38.7539C46.5833 38.8427 46.9235 38.8988 47.2654 38.9205L47.2813 38.9217C47.5856 38.9467 47.9285 38.9245 48.3395 38.8521C48.7553 38.7795 49.0979 38.678 49.4168 38.5324L49.4419 38.5214C50.8445 37.9228 51.9169 36.684 52.1746 35.3637L52.2591 34.9306L52.6961 34.9924C52.847 35.0138 53.0079 35.0346 53.182 35.0346C53.1821 35.0346 53.1823 35.0346 53.1825 35.0346C53.3507 35.0329 53.5243 35.0209 53.6988 34.9985C53.8744 34.9761 54.0539 34.9432 54.2341 34.9001C54.4005 34.86 54.5778 34.7886 54.7341 34.7258C54.7375 34.7244 54.7427 34.7223 54.7461 34.7209C54.9218 34.6478 55.0993 34.5635 55.2734 34.4705C55.2798 34.4671 55.2863 34.4636 55.2926 34.4601C55.4473 34.3726 55.5996 34.262 55.7686 34.1368C55.7741 34.1326 55.7797 34.1286 55.785 34.1243C55.9332 34.0095 56.1011 33.8793 56.2445 33.7374C56.2497 33.7322 56.2548 33.727 56.26 33.7218C56.4116 33.5647 56.5578 33.3993 56.6946 33.2291C56.7558 33.1529 56.8157 33.0765 56.8728 32.9988C56.8854 32.9815 56.8975 32.9638 56.909 32.9458C56.9613 32.8635 57.0116 32.7806 57.0607 32.6965C57.1645 32.5184 57.2607 32.3351 57.347 32.1518C57.3548 32.1354 57.3619 32.1189 57.3687 32.102C57.5228 31.7189 57.6297 31.3483 57.6863 31.0007C57.6887 30.9858 57.6909 30.9709 57.6925 30.9558C57.7275 30.6481 57.7611 30.2479 57.7089 29.8786C57.6532 29.4883 57.5695 29.1664 57.453 28.8945L57.2845 28.5008L57.6628 28.3005C57.9518 28.1475 58.2269 27.9565 58.4804 27.7328C58.49 27.7244 58.4995 27.7156 58.5086 27.7068C58.7755 27.4512 59.0031 27.1826 59.1903 26.8998C59.612 26.2485 59.8866 25.4807 59.9631 24.7444L59.9648 24.7299C60.0542 23.9878 59.9724 23.2525 59.7196 22.5398ZM35.0388 46.4082L38.5032 48.0975C38.5045 48.0981 38.5059 48.0988 38.5072 48.0994C41.634 49.6063 43.6545 52.7977 43.6545 56.2302C43.6545 56.9566 43.0635 57.5476 42.3371 57.5476H41.1824C40.456 57.5476 39.865 56.9566 39.865 56.2302C39.865 54.213 38.7142 52.4056 36.8579 51.511L33.378 49.8144C30.1135 48.2229 27.9434 44.9432 27.7197 41.3432C27.7941 41.3282 27.8686 41.3128 27.9422 41.2944C28.4495 41.1663 28.7567 40.6512 28.6288 40.144C28.5005 39.6367 27.9855 39.3295 27.4783 39.4574C27.2427 39.517 26.9982 39.547 26.752 39.547C25.1237 39.547 23.799 38.2223 23.799 36.594C23.799 36.0363 23.9546 35.5036 24.2367 35.0456C24.963 36.7063 26.5166 37.9104 28.327 38.1676L28.6208 38.2095L28.7067 38.4934C28.9416 39.2706 29.3865 39.9735 29.9932 40.5258C30.4483 40.9404 30.9798 41.2607 31.5325 41.4565C31.7821 43.5701 33.1026 45.4642 35.0388 46.4082ZM58.0825 24.5128L58.0792 24.5431C58.0323 24.9944 57.8622 25.466 57.6054 25.8626C57.5055 26.0134 57.3699 26.1733 57.2125 26.3257C57.0749 26.4453 56.9283 26.5466 56.7764 26.627L55.8251 27.1307C55.7979 27.1282 55.7705 27.1265 55.7427 27.1265H54.0982C53.0008 27.1265 52.1082 26.2339 52.1082 25.1364C52.1082 22.9943 50.3654 21.2515 48.2233 21.2515H48.0852C45.9432 21.2515 44.2004 22.9942 44.2004 25.1364C44.2004 26.1092 43.409 26.9005 42.4362 26.9005C41.3388 26.9005 40.4462 26.0079 40.4462 24.9105V24.0818C40.4462 23.5586 40.0219 23.1345 39.4988 23.1345C38.9756 23.1345 38.5515 23.5587 38.5515 24.0818V24.9105C38.5515 27.0525 40.2942 28.7953 42.4364 28.7953C44.4538 28.7953 46.0952 27.154 46.0952 25.1365C46.0952 24.0391 46.9878 23.1464 48.0852 23.1464H48.2233C49.3208 23.1464 50.2134 24.0391 50.2134 25.1365C50.2134 27.2786 51.9561 29.0214 54.0982 29.0214H55.4455L55.7112 29.6418C55.7605 29.7572 55.8017 29.9274 55.8329 30.1462C55.8488 30.2595 55.842 30.452 55.8123 30.7187C55.7784 30.9162 55.7139 31.1353 55.6207 31.3709C55.5609 31.4963 55.4944 31.6218 55.4234 31.7439C55.3923 31.7971 55.3604 31.8499 55.3274 31.9026C55.2918 31.95 55.2549 31.9968 55.2177 32.0429C55.1198 32.1648 55.0148 32.284 54.9059 32.3972C54.8433 32.4573 54.728 32.5471 54.6322 32.6213C54.5542 32.6792 54.4328 32.7687 54.3674 32.8071C54.2512 32.8689 54.1341 32.9243 54.0266 32.9691C53.9581 32.9966 53.8304 33.0481 53.7916 33.0587C53.6792 33.0856 53.5669 33.1062 53.4586 33.12C53.3569 33.133 53.2573 33.1399 53.1707 33.141C53.1271 33.141 53.0023 33.1232 52.9614 33.1173L51.6339 32.9291C51.1345 32.8581 50.6677 33.1909 50.5711 33.6857L50.3144 35.0015C50.1754 35.713 49.5242 36.4282 48.6934 36.7811C48.6895 36.7828 48.6852 36.7846 48.6813 36.7863L48.6453 36.8023C48.6414 36.804 48.6373 36.8058 48.6336 36.8075C48.4645 36.8851 48.2672 36.9418 48.0115 36.9865C47.8168 37.0207 47.6592 37.0375 47.5299 37.0375C47.4987 37.0375 47.4677 37.0365 47.426 37.0331L47.392 37.0307C47.1722 37.0167 46.961 36.982 46.7682 36.929C46.676 36.9031 46.5179 36.8454 46.2888 36.718L45.0677 36.0386C44.6137 35.7859 44.0413 35.946 43.784 36.397L43.0918 37.6105C43.002 37.7679 42.8919 37.9209 42.7641 38.0656C42.6377 38.1995 42.4866 38.3286 42.3076 38.455C41.9859 38.687 41.5799 38.8523 41.1012 38.9463C40.7204 39.0142 40.2755 39.0016 39.8507 38.9029C39.4687 38.7952 39.1148 38.617 38.8263 38.387L38.1905 37.88C38.1937 37.8488 38.1953 37.817 38.1953 37.7849V37.6468C38.1953 35.5048 36.4525 33.762 34.3105 33.762C33.3377 33.762 32.5463 32.9706 32.5463 31.9978C32.5463 30.9004 33.4389 30.0078 34.5364 30.0078H35.3649C35.8882 30.0078 36.3123 29.5835 36.3123 29.0604C36.3123 28.5373 35.888 28.1131 35.3649 28.1131H34.5364C32.3943 28.1131 30.6515 29.8558 30.6515 31.9979C30.6515 34.0154 32.2928 35.6568 34.3103 35.6568C35.4078 35.6568 36.3004 36.5494 36.3004 37.6468V37.7476L35.4946 38.7806C35.2667 39.0728 34.9659 39.3211 34.597 39.5208C34.2638 39.7029 33.8537 39.8146 33.3793 39.8525C33.1425 39.8711 32.8931 39.8536 32.6337 39.8011C32.6299 39.8002 32.6259 39.7993 32.6219 39.7984C32.4813 39.7693 32.338 39.7307 32.1918 39.6807C31.8653 39.5699 31.5459 39.3775 31.268 39.1245C30.9143 38.8022 30.6553 38.3943 30.5193 37.9445L30.2585 37.0818C30.1517 36.7288 29.85 36.4699 29.4849 36.418L28.5927 36.2912C27.3206 36.1103 26.244 35.2003 25.8499 33.9728L25.4544 32.7408C25.3263 32.3418 24.9563 32.0829 24.5529 32.0829C24.4834 32.0829 24.4129 32.0906 24.3425 32.1066L23.0803 32.3932C22.8331 32.4495 22.5727 32.473 22.3181 32.4647C21.4802 32.4368 20.7081 32.0758 20.1997 31.4742L19.2685 30.3722C19.1041 30.1776 18.8682 30.0574 18.614 30.0388C18.3597 30.0206 18.1091 30.1048 17.9181 30.2733L16.8362 31.2281C16.2421 31.7526 15.424 31.9915 14.5727 31.8722C13.7252 31.7551 12.9305 31.2626 12.5478 30.6175L11.8289 29.4049C11.5624 28.9554 10.9822 28.8068 10.5322 29.0725L9.31851 29.7893C9.21257 29.8519 9.06023 29.9113 8.87472 29.9635C8.76901 29.9921 8.68663 30.0109 8.6298 30.0199C8.52362 30.0327 8.41253 30.0404 8.29171 30.0431C8.25902 30.0442 8.23698 30.0447 8.21484 30.0447C7.82331 30.0447 7.38093 29.9292 6.93398 29.7108C6.80203 29.636 6.67347 29.5562 6.55792 29.4774L6.48445 29.4266C6.46664 29.4143 6.44847 29.4028 6.44097 29.3973C6.38707 29.352 6.32496 29.2974 6.26894 29.2459C6.14437 29.1301 6.05847 29.0445 5.99343 28.9712C5.90589 28.8608 5.82468 28.7483 5.75308 28.6384C5.72742 28.599 5.70211 28.5593 5.67785 28.5187C5.65511 28.4728 5.63355 28.4267 5.61269 28.3799C5.56605 28.2751 5.52597 28.1713 5.49316 28.0706C5.45214 27.9135 5.43129 27.7396 5.43293 27.5663L5.44406 26.4194C5.44851 25.9711 5.13797 25.5811 4.70015 25.4849L3.57973 25.2386C3.43055 25.2059 3.27726 25.1491 3.12398 25.0696C3.03902 25.0149 2.95301 24.953 2.86758 24.8851C2.82398 24.8506 2.78062 24.8145 2.73762 24.7771C2.72203 24.7605 2.70352 24.7395 2.6843 24.7182L2.65277 24.6834C2.56559 24.5848 2.47406 24.4701 2.38711 24.3508C2.32758 24.258 2.25774 24.1207 2.19375 23.9935C2.16246 23.93 2.12871 23.8572 2.09941 23.7907C2.09238 23.7691 2.08348 23.7402 2.0741 23.71L2.05477 23.6489C2.00672 23.4911 1.965 23.3296 1.9302 23.1685C1.74317 21.9073 2.32043 21.0868 2.69344 20.7995L3.70312 20.0221C4.08785 19.7257 4.1864 19.1864 3.93105 18.7734L3.26109 17.6896C3.16148 17.5284 3.08707 17.373 3.04547 17.2395C2.98289 17.0056 2.94773 16.7918 2.9434 16.6251C2.93367 16.1364 3.05379 15.616 3.27469 15.1939C3.34711 15.0543 3.41344 14.9369 3.47695 14.8359C3.55512 14.7292 3.63762 14.6255 3.72762 14.5217L3.7541 14.4904C3.86308 14.359 4.0166 14.2257 4.2457 14.0644L4.27312 14.0446C4.38152 13.9653 4.545 13.8842 4.75347 13.8058C4.83914 13.7743 4.91508 13.7499 4.97953 13.7334C5.06496 13.7166 5.14922 13.7042 5.23031 13.6967L6.583 13.5719C7.08984 13.5251 7.46906 13.0864 7.44199 12.578L7.36968 11.2219C7.35234 10.8959 7.43144 10.5282 7.59855 10.1575C7.70741 9.94272 7.82425 9.7544 7.94601 9.59736C8.12941 9.38115 8.29511 9.21498 8.45226 9.09018C8.69483 8.91006 8.90038 8.78139 9.05624 8.71073C9.28933 8.6076 9.50108 8.53483 9.686 8.4944C9.88358 8.45772 10.0781 8.4392 10.2566 8.43909L10.3111 8.43955C10.4142 8.44237 10.5858 8.45924 10.8271 8.52276L12.1472 8.87045C12.9114 9.64729 12.9082 10.9007 12.1362 11.6728C11.4024 12.4066 10.9983 13.382 10.9983 14.4197C10.9983 15.4574 11.4023 16.433 12.1362 17.1667L12.2338 17.2643C12.9675 17.9981 13.9431 18.4022 14.9808 18.4022C16.0185 18.4022 16.994 17.9982 17.7278 17.2643C18.4156 16.5766 19.5348 16.5766 20.2226 17.2643C20.9986 18.0402 20.9986 19.3028 20.2226 20.0788L19.6367 20.6646C19.2668 21.0346 19.2669 21.6345 19.6367 22.0045C19.8218 22.1894 20.0642 22.2818 20.3066 22.2818C20.5489 22.2818 20.7915 22.1894 20.9765 22.0043L21.5622 21.4185C23.0769 19.9039 23.0769 17.4393 21.5622 15.9245C20.1356 14.4979 17.8145 14.4979 16.3878 15.9245C16.0119 16.3005 15.5122 16.5074 14.9805 16.5074C14.449 16.5074 13.9493 16.3004 13.5733 15.9245L13.4757 15.8269C13.0998 15.451 12.8928 14.9513 12.8928 14.4196C12.8928 13.8881 13.0999 13.3884 13.4757 13.0124C14.9783 11.5097 14.9894 9.07319 13.5111 7.55561L13.701 6.87428C13.7894 6.55694 13.9747 6.23573 14.2519 5.91921C14.3983 5.76569 14.5642 5.62155 14.7449 5.49042C14.9187 5.37335 15.127 5.26273 15.3642 5.16148C15.724 5.01839 16.0965 4.94573 16.4716 4.94573C16.9292 4.94573 17.3634 5.05343 17.7269 5.2571L18.9506 5.94241C19.4048 6.19706 19.9793 6.03698 20.2368 5.58452L20.9308 4.36566C21.3211 3.68011 22.0572 3.18652 22.9002 3.04507C23.0756 3.01554 23.2531 3.00066 23.4277 3.00066C24.1099 3.00066 24.7388 3.22097 25.1988 3.62081L25.9465 4.27097C25.9463 4.27718 25.9455 4.28327 25.9455 4.28937V7.2235C25.9455 9.36557 27.6882 11.1084 29.8304 11.1084C30.9278 11.1084 31.8205 12.001 31.8205 13.0985V13.2365C31.8205 14.334 30.9276 15.2266 29.8304 15.2266C27.8129 15.2266 26.1716 16.8679 26.1716 18.8854C26.1716 21.0275 27.9143 22.7703 30.0564 22.7703H30.885C31.4082 22.7703 31.8323 22.3461 31.8323 21.8229C31.8323 21.2997 31.4081 20.8756 30.885 20.8756H30.0564C28.959 20.8756 28.0664 19.9827 28.0664 18.8855C28.0664 17.9127 28.8577 17.1214 29.8305 17.1214C31.9726 17.1214 33.7154 15.3786 33.7154 13.2365V13.0985C33.7154 10.9564 31.9726 9.21358 29.8305 9.21358C28.733 9.21358 27.8404 8.32096 27.8404 7.2235V4.28984C27.8404 4.263 27.8387 4.23663 27.8364 4.21038L28.5518 3.36113C28.6579 3.23503 28.7826 3.11949 28.9264 3.0146C29.0854 2.8973 29.2592 2.79371 29.4431 2.70652C29.8455 2.53906 30.2395 2.45398 30.6144 2.45398C30.6443 2.45398 30.7317 2.45586 30.7326 2.45586C30.7379 2.45597 30.743 2.45597 30.7483 2.45597C31.1478 2.4575 31.5638 2.55546 31.9852 2.74753C32.1665 2.84105 32.3353 2.94898 32.4908 3.07179C32.632 3.18195 32.7511 3.29949 32.8548 3.43144L33.7419 4.55831C33.8989 4.75777 34.1292 4.88585 34.3814 4.91386C34.6334 4.94187 34.8864 4.86757 35.0835 4.70761L36.1967 3.80327C36.7867 3.32386 37.6514 3.13296 38.5162 3.31039C39.3539 3.4796 40.071 3.99945 40.4347 4.7007L41.082 5.94944C41.3221 6.41268 41.8913 6.59456 42.3558 6.3562L43.6073 5.71378C43.9379 5.54397 44.3293 5.45433 44.7397 5.45433C45.1625 5.45433 45.5812 5.54726 45.9844 5.73101C46.7746 6.09054 47.3916 6.79014 47.556 7.51354L47.6698 8.01417C47.0061 8.30772 46.4347 8.79123 46.016 9.42709C45.4421 10.2988 45.2285 11.3401 45.4145 12.3589C45.4992 12.8225 45.3983 13.2912 45.1304 13.6789C44.8625 14.0665 44.4596 14.3266 43.996 14.4113C43.4731 14.5068 42.9441 14.3929 42.507 14.0906C42.0697 13.7883 41.7762 13.3339 41.6807 12.811L41.5319 11.9958C41.4379 11.481 40.9443 11.1406 40.4297 11.234C39.9151 11.328 39.5739 11.8213 39.6679 12.3361L39.8167 13.1513C40.0031 14.172 40.5758 15.0592 41.4294 15.6491C42.0861 16.1031 42.8484 16.3394 43.63 16.3394C43.8644 16.3394 44.1005 16.3182 44.336 16.275C45.2974 16.0995 46.1329 15.5601 46.6886 14.7561C47.2443 13.952 47.4537 12.9799 47.2782 12.0185C47.1815 11.4895 47.2982 10.9245 47.5982 10.4688C47.8983 10.0129 48.3441 9.71069 48.8534 9.61752C48.8663 9.61518 48.8787 9.61143 48.8913 9.6085C48.9241 9.60486 48.9571 9.59971 48.9902 9.59256L50.3566 9.29619C50.4469 9.27662 50.5414 9.26174 50.6267 9.25272C50.6316 9.25237 50.677 9.24826 50.7654 9.24826C50.7964 9.24826 50.8273 9.24873 50.8585 9.24967C51.1015 9.2608 51.2827 9.28447 51.4122 9.32233C51.6753 9.39885 51.873 9.47479 52.0329 9.56069C52.2079 9.6617 52.4555 9.8124 52.6382 9.9801C53.0076 10.3117 53.2891 10.7044 53.453 11.1163C53.5463 11.3704 53.5945 11.5428 53.6103 11.6821C53.6359 11.8934 53.6388 12.0833 53.6188 12.2628L53.4756 13.5538C53.4213 14.0433 53.7511 14.4929 54.2344 14.588L55.5093 14.8387C55.6813 14.8724 55.862 14.9323 56.0547 15.0203C56.1729 15.0731 56.3284 15.1785 56.5649 15.3668C56.6057 15.399 56.6572 15.4499 56.7303 15.5316C56.8289 15.6406 56.9198 15.7509 57.0127 15.8754L57.0251 15.8915C57.0495 15.9265 57.1122 16.0395 57.1539 16.1149L57.1766 16.1557C57.2396 16.2753 57.3084 16.4089 57.3427 16.4983C57.5329 17.01 57.6012 17.5318 57.5343 17.9741C57.5147 18.1093 57.4905 18.2331 57.4596 18.355C57.4473 18.3989 57.398 18.5178 57.375 18.5729C57.2929 18.7571 57.2235 18.8811 57.1627 18.9518L56.3072 19.9485C55.9838 20.3253 56.0062 20.8879 56.3586 21.2378L57.2909 22.1637C57.3515 22.2238 57.4116 22.2918 57.4686 22.3646C57.496 22.3997 57.523 22.4361 57.5493 22.4736L57.6775 22.6663C57.792 22.8494 57.8767 23.0187 57.9345 23.1788C58.088 23.6079 58.1377 24.0539 58.0825 24.5128Z" fill="#E4772F" stroke="white" stroke-width="0.5"/>
</svg>
