<svg width="60" height="60" viewBox="0 0 60 60" fill="none" xmlns="http://www.w3.org/2000/svg">
<g clip-path="url(#clip0_88_4577)">
<path d="M59.4722 25.4626C57.6114 22.2404 52.6497 23.2008 52.1938 26.9567L48.5303 27.3495C47.5937 21.3771 43.8153 16.2341 38.3936 13.5466L39.9752 9.97328C42.4118 10.4841 44.6938 8.6151 44.6938 6.14181C44.6938 3.983 42.9378 2.22656 40.779 2.22656C38.6202 2.22656 36.8638 3.983 36.8638 6.14181C36.8638 7.39745 37.4589 8.51576 38.3808 9.23262L36.7837 12.8407C35.4662 12.3363 34.0879 11.9801 32.6729 11.7865C32.1932 11.7196 31.7492 12.0575 31.6833 12.5386C31.6178 13.0192 31.9543 13.4623 32.4349 13.5278C40.7373 14.6626 46.9982 21.8472 46.9982 30.2398C46.9982 42.1769 34.8404 50.3988 23.7548 45.8573L24.2748 44.6827C24.4712 44.2391 24.2707 43.72 23.8267 43.5232C23.3836 43.3272 22.864 43.5273 22.6676 43.9713L22.165 45.107C17.5215 42.6095 14.1766 38.0012 13.4217 32.5744L14.6357 32.4439C15.1182 32.3922 15.4675 31.9592 15.4157 31.4767C15.364 30.9942 14.9305 30.6445 14.448 30.6967L13.2707 30.823C13.0821 25.2973 15.5261 20.2711 19.58 17.0384L20.2419 17.9452C20.5276 18.3366 21.0769 18.4236 21.4697 18.137C21.862 17.8509 21.9476 17.3011 21.6615 16.9088L21.0105 16.0171C23.2064 14.6159 25.7616 13.7059 28.5348 13.4459C29.0177 13.4005 29.3729 12.9721 29.3281 12.4891C29.2823 12.0057 28.8529 11.6496 28.3709 11.6958C25.3551 11.9783 22.4868 12.9876 19.986 14.6136L17.6162 11.3667C19.2715 9.51735 18.8073 6.60506 16.6572 5.36407C14.7877 4.28421 12.3886 4.92736 11.3092 6.79686C9.44515 10.0264 12.741 13.7755 16.1784 12.3774L18.5597 15.6404C13.9216 19.3222 11.2721 24.9797 11.5188 31.0107L7.64385 31.4263C6.43353 27.7578 1.15003 27.8695 0.141581 31.6328C-0.77074 35.0376 2.91104 37.7512 5.88055 36.0365C6.90777 35.4437 7.62875 34.4183 7.80132 33.1773L11.6731 32.7616C12.4975 38.8233 16.2484 43.9667 21.4513 46.7174L19.9632 50.0802C19.7242 50.0344 19.4779 50.0097 19.2262 50.0097C17.0674 50.0097 15.3109 51.7656 15.3109 53.9244C15.3109 56.0833 17.0674 57.8397 19.2262 57.8397C21.385 57.8397 23.1409 56.0833 23.1409 53.9244C23.1409 52.6445 22.5234 51.5061 21.5708 50.7915L23.043 47.465C25.2283 48.3672 27.6215 48.8662 30.1287 48.8662C33.8553 48.8662 37.3293 47.7657 40.2439 45.8733L42.3436 48.7499C41.5137 49.7135 41.1768 51.0318 41.5233 52.3246C42.4183 55.6644 46.9451 56.3011 48.6956 53.2689C50.5733 50.0161 47.2115 46.2432 43.7627 47.7126L41.6716 44.8479C46.3344 41.1561 49.1039 35.3686 48.7198 29.0968L52.3824 28.7036C52.9372 30.2924 54.4231 31.3339 56.088 31.3339C59.0955 31.3343 60.9732 28.0631 59.4722 25.4626ZM40.779 3.98437C41.9687 3.98437 42.9364 4.95208 42.9364 6.14181C42.9364 7.33107 41.9687 8.29924 40.779 8.29924C39.5893 8.29924 38.6216 7.33107 38.6216 6.14181C38.6216 4.95208 39.5893 3.98437 40.779 3.98437ZM13.6213 10.6233C12.5909 10.0287 12.2366 8.70665 12.8317 7.67623C13.4268 6.64535 14.7492 6.29195 15.7788 6.88659C16.8087 7.48122 17.163 8.80324 16.5684 9.83366C15.9733 10.8636 14.6513 11.2179 13.6213 10.6233ZM5.0021 34.5149C3.97122 35.1099 2.64966 34.7552 2.05503 33.7252C1.22739 32.292 2.26514 30.4897 3.9195 30.4897C6.12042 30.4897 6.9064 33.4153 5.0021 34.5149ZM19.2262 56.0828C18.0364 56.0828 17.0687 55.1146 17.0687 53.9254C17.0687 52.7356 18.0364 51.7679 19.2262 51.7679C20.4154 51.7679 21.3836 52.7356 21.3836 53.9254C21.3836 55.1146 20.4154 56.0828 19.2262 56.0828ZM45.3086 49.155C46.9638 49.155 48.0007 50.9577 47.1735 52.3905C46.5789 53.4209 45.2568 53.7752 44.2264 53.1801C42.3258 52.0829 43.1054 49.155 45.3086 49.155ZM57.16 29.2886C56.1301 29.8837 54.8081 29.5294 54.213 28.4989C53.3853 27.0657 54.4235 25.2635 56.0779 25.2635C58.2784 25.2635 59.0648 28.189 57.16 29.2886Z" fill="#E4772F" stroke="white" stroke-width="0.4"/>
<path d="M28.033 34.8047C25.9113 34.8047 24.1855 36.5305 24.1855 38.6522C24.1855 40.7739 25.9113 42.4997 28.033 42.4997C30.1543 42.4997 31.8806 40.7739 31.8806 38.6522C31.8806 36.5305 30.1543 34.8047 28.033 34.8047ZM28.033 40.7419C26.8804 40.7419 25.9429 39.8044 25.9429 38.6522C25.9429 37.5 26.8804 36.5625 28.033 36.5625C29.1852 36.5625 30.1227 37.5 30.1227 38.6522C30.1227 39.8044 29.1852 40.7419 28.033 40.7419Z" fill="#E4772F" stroke="white" stroke-width="0.4"/>
<path d="M36.3128 29.6484C34.902 29.6484 33.7539 30.7965 33.7539 32.2073C33.7539 33.6186 34.902 34.7667 36.3128 34.7667C37.7241 34.7667 38.8722 33.6186 38.8722 32.2073C38.8722 30.7965 37.7241 29.6484 36.3128 29.6484ZM36.3128 33.0093C35.8711 33.0093 35.5113 32.6495 35.5113 32.2073C35.5113 31.7656 35.8711 31.4058 36.3128 31.4058C36.755 31.4058 37.1148 31.7656 37.1148 32.2073C37.1148 32.6495 36.755 33.0093 36.3128 33.0093Z" fill="#E4772F" stroke="white" stroke-width="0.4"/>
<path d="M18.3477 31.1431C18.3477 32.4147 19.3827 33.4497 20.6548 33.4497C21.9269 33.4497 22.9619 32.4147 22.9619 31.1431C22.9619 29.8709 21.9269 28.8359 20.6548 28.8359C19.3827 28.8355 18.3477 29.8705 18.3477 31.1431ZM21.2046 31.1431C21.2046 31.4461 20.9578 31.6924 20.6548 31.6924C20.3517 31.6924 20.1055 31.4456 20.1055 31.1431C20.1055 30.84 20.3517 30.5933 20.6548 30.5933C20.9578 30.5933 21.2046 30.84 21.2046 31.1431Z" fill="#E4772F" stroke="white" stroke-width="0.4"/>
<path d="M36.5611 20.3789C35.0111 20.3789 33.75 21.64 33.75 23.19C33.75 24.74 35.0111 26.0012 36.5611 26.0012C38.1111 26.0012 39.3723 24.74 39.3723 23.19C39.3723 21.64 38.1111 20.3789 36.5611 20.3789ZM36.5611 24.2438C35.9802 24.2438 35.5074 23.7709 35.5074 23.19C35.5074 22.6091 35.9802 22.1363 36.5611 22.1363C37.142 22.1363 37.6149 22.6091 37.6149 23.19C37.6149 23.7709 37.142 24.2438 36.5611 24.2438Z" fill="#E4772F" stroke="white" stroke-width="0.4"/>
<path d="M36.6655 36.9569L36.0915 37.531C35.7482 37.8743 35.7482 38.4305 36.0915 38.7738C36.4348 39.1167 36.991 39.1171 37.3343 38.7738L37.9083 38.1993C38.2517 37.8564 38.2517 37.2998 37.9083 36.9565C37.565 36.6132 37.0088 36.6136 36.6655 36.9569Z" fill="#E4772F" stroke="white" stroke-width="0.4"/>
<path d="M29.9127 30.9039L30.5132 31.4505C30.8726 31.7773 31.4288 31.7503 31.7547 31.3914C32.0815 31.0325 32.055 30.4763 31.6957 30.15L31.0951 29.6038C30.7357 29.277 30.18 29.3035 29.8536 29.6624C29.5272 30.0218 29.5533 30.5775 29.9127 30.9039Z" fill="#E4772F" stroke="white" stroke-width="0.4"/>
<path d="M22.2773 24.6447C22.2773 28.6121 27.2413 30.4129 29.7961 27.4036C30.1101 27.0337 30.0648 26.4789 29.6949 26.1649C29.3246 25.8509 28.7703 25.8962 28.4562 26.2665C26.9488 28.0422 24.0347 26.9706 24.0347 24.6447C24.0347 22.1823 27.2285 21.205 28.6146 23.2302C28.8888 23.6307 29.4358 23.7333 29.8364 23.4591C30.2369 23.1848 30.3395 22.6383 30.0653 22.2377C27.711 18.7976 22.2773 20.4552 22.2773 24.6447Z" fill="#E4772F" stroke="white" stroke-width="0.4"/>
</g>
<defs>
<clipPath id="clip0_88_4577">
<rect width="60" height="60" fill="white"/>
</clipPath>
</defs>
</svg>
