<svg width="60" height="60" viewBox="0 0 60 60" fill="none" xmlns="http://www.w3.org/2000/svg">
<g clip-path="url(#clip0_88_4497)">
<path d="M58.8234 29.3747C58.6918 29.2277 55.5421 25.7354 50.4202 22.1973C45.6666 18.9141 38.2654 15 29.9999 15C21.7345 15 14.3333 18.9141 9.57967 22.1973C4.45752 25.7354 1.30811 29.2277 1.17651 29.3747C1.0226 29.5466 0.9375 29.7693 0.9375 30C0.9375 30.2307 1.0226 30.4534 1.17651 30.6253C1.30811 30.7723 4.45776 34.2646 9.57967 37.8027C14.3333 41.0859 21.7345 45 29.9999 45C38.2654 45 45.6666 41.0859 50.4202 37.8027C55.5424 34.2646 58.6918 30.7723 58.8234 30.6253C58.9773 30.4534 59.0624 30.2307 59.0624 30C59.0624 29.7693 58.9773 29.5466 58.8234 29.3747ZM49.3546 36.2598C44.8205 39.3918 37.7823 43.125 29.9999 43.125C22.2337 43.125 15.209 39.4061 10.6837 36.2863C7.98932 34.4279 5.47322 32.3234 3.16776 30C5.46178 27.6872 7.965 25.5918 10.6454 23.7405C15.1794 20.6082 22.2176 16.875 29.9999 16.875C37.7662 16.875 44.7909 20.5939 49.3162 23.7137C52.0106 25.5721 54.5267 27.6766 56.8321 30C54.5381 32.3129 52.0349 34.4084 49.3545 36.2598H49.3546Z" fill="#E4772F"/>
<path d="M30 17.8125C27.5895 17.8125 25.2332 18.5273 23.229 19.8665C21.2248 21.2056 19.6627 23.1091 18.7402 25.336C17.8178 27.563 17.5764 30.0135 18.0467 32.3777C18.5169 34.7418 19.6777 36.9134 21.3821 38.6179C23.0866 40.3223 25.2582 41.4831 27.6223 41.9533C29.9865 42.4236 32.437 42.1822 34.664 41.2598C36.8909 40.3373 38.7944 38.7752 40.1335 36.771C41.4727 34.7668 42.1875 32.4105 42.1875 30C42.1838 26.7688 40.8986 23.671 38.6138 21.3862C36.329 19.1014 33.2312 17.8162 30 17.8125ZM30 40.3125C27.9604 40.3125 25.9666 39.7077 24.2707 38.5745C22.5748 37.4414 21.253 35.8308 20.4725 33.9464C19.692 32.0621 19.4877 29.9886 19.8857 27.9881C20.2836 25.9877 21.2657 24.1502 22.708 22.708C24.1502 21.2657 25.9877 20.2836 27.9881 19.8857C29.9886 19.4877 32.0621 19.692 33.9464 20.4725C35.8308 21.253 37.4414 22.5748 38.5745 24.2707C39.7077 25.9666 40.3125 27.9604 40.3125 30C40.3094 32.7341 39.2219 35.3553 37.2886 37.2886C35.3553 39.2219 32.7341 40.3094 30 40.3125Z" fill="#E4772F"/>
<path d="M32.8125 28.125C31.8854 28.125 30.9791 28.3999 30.2083 28.915C29.4374 29.4301 28.8366 30.1621 28.4818 31.0187C28.127 31.8752 28.0342 32.8177 28.2151 33.727C28.3959 34.6363 28.8424 35.4715 29.4979 36.1271C30.1535 36.7826 30.9887 37.2291 31.898 37.4099C32.8073 37.5908 33.7498 37.498 34.6063 37.1432C35.4629 36.7884 36.1949 36.1876 36.71 35.4167C37.2251 34.6459 37.5 33.7396 37.5 32.8125C37.4986 31.5697 37.0043 30.3783 36.1255 29.4995C35.2467 28.6207 34.0553 28.1264 32.8125 28.125ZM32.8125 35.625C32.2562 35.625 31.7125 35.4601 31.25 35.151C30.7874 34.842 30.427 34.4027 30.2141 33.8888C30.0012 33.3749 29.9455 32.8094 30.054 32.2638C30.1626 31.7182 30.4304 31.2171 30.8238 30.8238C31.2171 30.4304 31.7182 30.1626 32.2638 30.054C32.8094 29.9455 33.3749 30.0012 33.8888 30.2141C34.4027 30.427 34.842 30.7875 35.151 31.25C35.46 31.7125 35.625 32.2562 35.625 32.8125C35.6241 33.5582 35.3275 34.273 34.8003 34.8003C34.273 35.3275 33.5582 35.6241 32.8125 35.625Z" fill="#E4772F"/>
<path d="M25.3125 23.4375C24.7562 23.4375 24.2125 23.6024 23.75 23.9115C23.2874 24.2205 22.927 24.6598 22.7141 25.1737C22.5012 25.6876 22.4455 26.2531 22.554 26.7987C22.6626 27.3443 22.9304 27.8454 23.3238 28.2387C23.7171 28.6321 24.2182 28.8999 24.7638 29.0085C25.3094 29.117 25.8749 29.0613 26.3888 28.8484C26.9027 28.6355 27.342 28.2751 27.651 27.8125C27.9601 27.35 28.125 26.8063 28.125 26.25C28.1242 25.5043 27.8276 24.7895 27.3003 24.2622C26.773 23.7349 26.0582 23.4383 25.3125 23.4375ZM25.3125 27.1875C25.1271 27.1875 24.9458 27.1325 24.7917 27.0295C24.6375 26.9265 24.5173 26.7801 24.4464 26.6088C24.3754 26.4375 24.3568 26.249 24.393 26.0671C24.4292 25.8852 24.5185 25.7182 24.6496 25.5871C24.7807 25.456 24.9477 25.3667 25.1296 25.3305C25.3115 25.2943 25.5 25.3129 25.6713 25.3839C25.8426 25.4548 25.989 25.575 26.092 25.7292C26.195 25.8833 26.25 26.0646 26.25 26.25C26.2497 26.4986 26.1509 26.7368 25.9751 26.9126C25.7993 27.0884 25.5611 27.1872 25.3125 27.1875Z" fill="#E4772F"/>
<path d="M30 12.1875C30.2486 12.1875 30.4871 12.0887 30.6629 11.9129C30.8387 11.7371 30.9375 11.4986 30.9375 11.25V1.875C30.9375 1.62636 30.8387 1.3879 30.6629 1.21209C30.4871 1.03627 30.2486 0.9375 30 0.9375C29.7514 0.9375 29.5129 1.03627 29.3371 1.21209C29.1613 1.3879 29.0625 1.62636 29.0625 1.875V11.25C29.0625 11.4986 29.1613 11.7371 29.3371 11.9129C29.5129 12.0887 29.7514 12.1875 30 12.1875Z" fill="#E4772F"/>
<path d="M30 47.8125C29.7514 47.8125 29.5129 47.9113 29.3371 48.0871C29.1613 48.2629 29.0625 48.5014 29.0625 48.75V54.375C29.0625 54.6236 29.1613 54.8621 29.3371 55.0379C29.5129 55.2137 29.7514 55.3125 30 55.3125C30.2486 55.3125 30.4871 55.2137 30.6629 55.0379C30.8387 54.8621 30.9375 54.6236 30.9375 54.375V48.75C30.9375 48.5014 30.8387 48.2629 30.6629 48.0871C30.4871 47.9113 30.2486 47.8125 30 47.8125Z" fill="#E4772F"/>
<path d="M14.3201 15.6479C14.4959 15.8238 14.7344 15.9225 14.983 15.9226C15.2317 15.9226 15.4702 15.8238 15.646 15.648C15.8218 15.4722 15.9206 15.2337 15.9206 14.985C15.9207 14.7364 15.8219 14.4979 15.6461 14.3221L9.01678 7.69299C8.84031 7.52043 8.6029 7.42441 8.35608 7.4258C8.10926 7.42718 7.87295 7.52584 7.69842 7.70037C7.52388 7.8749 7.42522 8.11122 7.42384 8.35804C7.42246 8.60486 7.51847 8.84226 7.69104 9.01873L14.3201 15.6479Z" fill="#E4772F"/>
<path d="M45.6787 44.3528C45.5916 44.2657 45.4883 44.1966 45.3745 44.1495C45.2608 44.1024 45.1389 44.0781 45.0157 44.0781C44.8926 44.0781 44.7707 44.1024 44.6569 44.1495C44.5432 44.1966 44.4398 44.2656 44.3528 44.3527C44.2657 44.4398 44.1966 44.5431 44.1495 44.6569C44.1024 44.7706 44.0781 44.8925 44.0781 45.0157C44.0781 45.1388 44.1024 45.2607 44.1495 45.3744C44.1966 45.4882 44.2656 45.5916 44.3527 45.6786L50.982 52.3077C51.0689 52.3956 51.1723 52.4655 51.2862 52.5133C51.4002 52.5611 51.5225 52.586 51.6461 52.5863C51.7697 52.5867 51.8921 52.5627 52.0064 52.5155C52.1206 52.4684 52.2244 52.3992 52.3118 52.3118C52.3992 52.2244 52.4685 52.1206 52.5156 52.0063C52.5628 51.8921 52.5868 51.7696 52.5865 51.646C52.5861 51.5224 52.5613 51.4001 52.5135 51.2862C52.4657 51.1722 52.3958 51.0688 52.3079 50.9819L45.6787 44.3528Z" fill="#E4772F"/>
<path d="M45.0158 15.9222C45.1389 15.9224 45.2609 15.8982 45.3746 15.8511C45.4884 15.8039 45.5917 15.7348 45.6787 15.6476L52.3079 9.01846C52.3958 8.93159 52.4657 8.8282 52.5135 8.71423C52.5613 8.60026 52.5861 8.47796 52.5865 8.35437C52.5868 8.23077 52.5628 8.10833 52.5156 7.99407C52.4685 7.87982 52.3993 7.77601 52.3119 7.68862C52.2245 7.60123 52.1207 7.53198 52.0064 7.48487C51.8921 7.43775 51.7697 7.41369 51.6461 7.41407C51.5225 7.41445 51.4002 7.43926 51.2862 7.48708C51.1723 7.53491 51.0689 7.60479 50.982 7.69272L44.3527 14.3218C44.2216 14.4529 44.1323 14.62 44.0961 14.8018C44.06 14.9837 44.0785 15.1722 44.1495 15.3435C44.2205 15.5148 44.3407 15.6613 44.4949 15.7643C44.6491 15.8673 44.8303 15.9222 45.0158 15.9222Z" fill="#E4772F"/>
<path d="M14.3213 44.3528L7.6922 50.9819C7.60355 51.0686 7.53297 51.1721 7.48456 51.2862C7.43615 51.4004 7.41086 51.523 7.41017 51.647C7.40948 51.771 7.43339 51.8939 7.48052 52.0086C7.52765 52.1233 7.59706 52.2275 7.68474 52.3151C7.77242 52.4028 7.87662 52.4722 7.99131 52.5194C8.10601 52.5665 8.22891 52.5904 8.3529 52.5897C8.4769 52.589 8.59952 52.5637 8.71368 52.5153C8.82783 52.4669 8.93125 52.3963 9.01794 52.3077L15.6472 45.6786C15.8231 45.5028 15.9218 45.2643 15.9218 45.0157C15.9218 44.767 15.823 44.5285 15.6472 44.3527C15.4713 44.1769 15.2329 44.0781 14.9842 44.0781C14.7356 44.0781 14.4971 44.1769 14.3213 44.3528Z" fill="#E4772F"/>
<path d="M30 56.25C29.7514 56.25 29.5129 56.3488 29.3371 56.5246C29.1613 56.7004 29.0625 56.9389 29.0625 57.1875V58.125C29.0625 58.3736 29.1613 58.6121 29.3371 58.7879C29.5129 58.9637 29.7514 59.0625 30 59.0625C30.2486 59.0625 30.4871 58.9637 30.6629 58.7879C30.8387 58.6121 30.9375 58.3736 30.9375 58.125V57.1875C30.9375 56.9389 30.8387 56.7004 30.6629 56.5246C30.4871 56.3488 30.2486 56.25 30 56.25Z" fill="#E4772F"/>
</g>
<defs>
<clipPath id="clip0_88_4497">
<rect width="60" height="60" fill="white"/>
</clipPath>
</defs>
</svg>
