<svg width="50" height="54" viewBox="0 0 50 54" fill="none" xmlns="http://www.w3.org/2000/svg">
<path d="M37.0374 30.376C36.1262 30.376 35.3162 30.691 34.4724 31.0172C34.0674 31.1747 33.6399 31.3434 33.1674 31.4784C32.1437 31.7709 28.6674 32.2322 26.6988 32.4797V4.53475C26.6988 3.97229 26.2937 3.46604 25.7424 3.38725C25.0337 3.286 24.4375 3.826 24.4375 4.501V32.4685C22.4575 32.2209 18.9924 31.7597 17.9687 31.4672C17.5075 31.3322 17.08 31.1635 16.6637 31.0172C15.8087 30.691 14.9987 30.376 14.0875 30.376C10.9038 30.376 8.6875 33.0085 8.6875 36.7772C8.6875 40.8947 11.905 42.0535 15.3812 42.7059C17.0912 43.0322 17.9125 43.7522 18.6326 45.5859C19.5888 48.0272 23.9088 49.5009 25.5513 49.5009C27.1937 49.5009 31.5251 48.0272 32.4701 45.5859C33.1901 43.7522 34.0113 43.0209 35.7213 42.7059C39.1976 42.0534 42.4152 40.8834 42.4152 36.7772C42.4374 33.0085 40.2099 30.376 37.0374 30.376ZM35.3274 40.5122C32.8299 40.9847 31.39 42.2222 30.3887 44.7872C29.9499 45.901 26.8336 47.2734 25.5624 47.2734C24.2912 47.2734 21.1749 45.901 20.7362 44.7759C19.7237 42.2109 18.2948 40.9735 15.7973 40.501C11.6912 39.736 10.9373 38.6447 10.9373 36.7772C10.9373 34.8647 11.7587 32.6259 14.0874 32.6259C14.5823 32.6259 15.1674 32.8509 15.8537 33.1097C16.3149 33.2897 16.81 33.4697 17.3387 33.6272C18.4862 33.9647 21.5799 34.3811 24.7524 34.7747L25.4161 34.8647C25.4498 34.8647 25.4836 34.8647 25.5173 34.8647C25.5511 34.8647 25.5511 34.876 25.5624 34.876C25.5737 34.876 25.5962 34.8647 25.6074 34.8647C25.6187 34.8647 25.6749 34.8647 25.7087 34.8647L26.3837 34.7747C29.5449 34.3811 32.6388 33.9535 33.7749 33.6272C34.3149 33.4698 34.7987 33.2897 35.2712 33.1097C35.9687 32.851 36.5538 32.6259 37.0487 32.6259C39.3774 32.6259 40.1987 34.8647 40.1987 36.7772C40.1874 38.656 39.4337 39.736 35.3274 40.5122Z" fill="#E4772F" stroke="white" stroke-width="0.7"/>
<path d="M33.5617 11.2499C34.8892 11.2499 36.5092 10.9349 38.4217 10.0125C38.9954 9.77626 39.2654 9.11251 39.0178 8.53876C38.7816 7.96501 38.1179 7.69501 37.5442 7.94255C37.5104 7.95382 37.4767 7.9763 37.4429 7.98758C33.0554 10.1025 30.9404 8.28005 30.8279 8.1788C30.3778 7.75133 29.6691 7.76251 29.2303 8.21255C28.8029 8.66257 28.8141 9.37135 29.2641 9.8101C29.3654 9.88867 30.8168 11.2499 33.5617 11.2499Z" fill="#E4772F" stroke="white" stroke-width="0.7"/>
<path d="M30.5796 12.4966C30.0171 12.2266 29.3532 12.4516 29.0721 13.0142C28.8021 13.5542 29.0158 14.2179 29.5446 14.4992C29.6908 14.5779 32.0308 15.7479 35.2371 15.7479C37.1271 15.7592 38.9833 15.3316 40.6821 14.5104C41.2446 14.2404 41.4696 13.5654 41.1996 13.0029C40.9296 12.4405 40.2546 12.2154 39.6922 12.4854C35.0683 14.7241 30.6245 12.5191 30.5796 12.4966Z" fill="#E4772F" stroke="white" stroke-width="0.7"/>
<path d="M39.4796 25.797C40.0533 25.5607 40.3345 24.9081 40.0983 24.3344C39.8621 23.7606 39.2095 23.4794 38.6358 23.7156C33.2695 25.8981 30.9295 24.0194 30.8058 23.9181C30.3333 23.5131 29.6245 23.5694 29.2195 24.0306C28.8258 24.4807 28.8596 25.1669 29.2983 25.5831C29.3883 25.662 30.8959 27.0006 33.9671 27.0006C35.4408 27.0006 37.2746 26.6969 39.4796 25.797Z" fill="#E4772F" stroke="white" stroke-width="0.7"/>
<path d="M43.2481 16.8767C35.103 19.2167 30.6594 17.0004 30.5919 16.9666C30.0405 16.6742 29.3655 16.8767 29.0731 17.4279C28.7806 17.9791 28.9831 18.6541 29.5343 18.9466C29.6693 19.0254 31.953 20.2066 36.1606 20.2066C38.2644 20.2066 40.8405 19.9142 43.878 19.0367C44.4743 18.868 44.823 18.2491 44.6543 17.653C44.4856 17.0567 43.8556 16.708 43.2481 16.8767Z" fill="#E4772F" stroke="white" stroke-width="0.7"/>
<path d="M12.5919 9.96805C12.6256 9.9793 12.6594 10.0018 12.7044 10.013C14.6281 10.9356 16.2481 11.2505 17.5644 11.2505C20.3094 11.2505 21.7606 9.88921 21.8506 9.81055C22.3006 9.3718 22.3006 8.66306 21.8731 8.21302C21.4344 7.76299 20.7256 7.76299 20.2755 8.19056C20.2531 8.21303 18.1043 10.1143 13.6719 7.98806C13.1205 7.69549 12.4455 7.89799 12.1418 8.43799C11.8494 8.98928 12.0519 9.6643 12.5919 9.96805Z" fill="#E4772F" stroke="white" stroke-width="0.7"/>
<path d="M10.4418 14.5126C12.1406 15.3339 13.9968 15.7614 15.8868 15.7501C19.0931 15.7501 21.4332 14.5689 21.5793 14.49C22.1193 14.1863 22.3218 13.5 22.0181 12.96C21.7256 12.4424 21.0843 12.2288 20.5443 12.4875C20.4993 12.5099 16.0893 14.7374 11.4318 12.4762C10.8694 12.2062 10.1944 12.4424 9.92443 12.9938C9.65443 13.545 9.89068 14.2426 10.4418 14.5126Z" fill="#E4772F" stroke="white" stroke-width="0.7"/>
<path d="M20.2986 23.9191C20.2762 23.9416 17.9137 25.9104 12.48 23.7054C11.9062 23.4691 11.2425 23.7504 11.0174 24.3241C10.7811 24.8979 11.0625 25.5616 11.6362 25.7867C13.8412 26.6866 15.6749 26.9904 17.1487 26.9904C20.22 26.9904 21.7275 25.6517 21.8175 25.5729C22.2787 25.1566 22.3013 24.4367 21.885 23.9866C21.4687 23.5366 20.76 23.503 20.2986 23.9191Z" fill="#E4772F" stroke="white" stroke-width="0.7"/>
<path d="M20.3415 19.0473C20.9265 18.8223 21.2077 18.1698 20.9827 17.596C20.7577 17.011 20.1052 16.7298 19.5315 16.9548C19.4752 16.9773 13.2764 19.2948 6.81899 16.9435C6.23396 16.7297 5.59271 17.0334 5.37903 17.6185C5.16524 18.2035 5.46899 18.8448 6.05403 19.0584C8.29275 19.8573 10.6665 20.2623 13.0515 20.251C17.1577 20.251 20.1502 19.126 20.3415 19.0473Z" fill="#E4772F" stroke="white" stroke-width="0.7"/>
<path d="M45.0024 0H5.00868C2.53375 0 0.8125 1.91246 0.8125 4.64621V49.3425C0.8125 52.0425 2.57879 54 5.00879 54H45.0025C47.4662 54 49.1875 52.0875 49.1875 49.3425V4.64621C49.1874 1.91246 47.4662 0 45.0024 0ZM46.9375 49.3425C46.9375 50.5125 46.4312 51.75 45.0024 51.75H5.00868C3.56871 51.75 3.06246 50.4562 3.06246 49.3425V4.64621C3.06246 3.54375 3.56871 2.24996 5.00868 2.24996H45.0024C46.4312 2.24996 46.9375 3.48754 46.9375 4.64621V49.3425Z" fill="#E4772F" stroke="white" stroke-width="0.7"/>
<path d="M14.875 38.25C15.807 38.25 16.5625 37.4945 16.5625 36.5625C16.5625 35.6305 15.807 34.875 14.875 34.875C13.943 34.875 13.1875 35.6305 13.1875 36.5625C13.1875 37.4945 13.943 38.25 14.875 38.25Z" fill="#E4772F" stroke="white" stroke-width="0.7"/>
<path d="M36.25 38.25C37.182 38.25 37.9375 37.4945 37.9375 36.5625C37.9375 35.6305 37.182 34.875 36.25 34.875C35.318 34.875 34.5625 35.6305 34.5625 36.5625C34.5625 37.4945 35.318 38.25 36.25 38.25Z" fill="#E4772F" stroke="white" stroke-width="0.7"/>
</svg>
