<svg width="38" height="54" viewBox="0 0 38 54" fill="none" xmlns="http://www.w3.org/2000/svg">
<path d="M34.7354 52.4593C33.7294 53.4598 32.3933 54.0076 30.9732 53.9998L6.75666 53.869C6.29613 53.8664 5.85522 53.6816 5.5305 53.355C1.10349 48.9002 4.37949 43.6599 5.18751 41.9277C6.32601 39.4871 5.46084 37.9165 3.55338 27.9716C0.767263 13.4459 -0.204943 8.16594 3.03273 1.02321C3.4299 0.147027 4.46211 -0.241421 5.33835 0.155845C6.21459 0.553002 6.60303 1.58531 6.20577 2.4616C3.5892 8.23388 3.77442 12.2395 8.11332 32.938C9.42787 39.2083 9.69597 40.7208 8.01243 44.0776C6.9381 46.2193 6.02946 48.3771 7.55649 50.3894L31.002 50.5161C32.0009 50.5161 32.8124 49.7081 32.8124 48.7056C32.8124 47.8086 32.1692 47.0564 31.2832 46.917L25.2041 45.9608C19.1015 45.0006 14.7961 39.3868 15.509 33.2065L18.9806 3.99623C19.094 3.04089 19.9601 2.35861 20.9158 2.47205C21.8712 2.5856 22.5536 3.45199 22.44 4.40732L18.969 33.6116C18.4732 37.91 21.4679 41.8462 25.7454 42.5191L31.8244 43.4754C36.1733 44.1595 37.7596 49.4514 34.7354 52.4593Z" fill="#E4772F" stroke="white" stroke-width="2"/>
</svg>
