<svg width="18" height="18" viewBox="0 0 18 18" fill="none" xmlns="http://www.w3.org/2000/svg">
<path d="M14.8326 16.8822L17.1186 14.5941C17.3979 14.3148 17.5547 13.9409 17.5547 13.5456C17.5547 13.1503 17.4 12.7765 17.1186 12.4972L14.6586 10.0329C14.3793 9.75364 14.0033 9.5968 13.608 9.5968C13.2105 9.5968 12.8389 9.75149 12.5574 10.0329L10.6303 11.9579C9.60851 11.5194 8.68014 10.8893 7.89531 10.1017C7.10254 9.31321 6.47734 8.39153 6.03476 7.36887L7.96191 5.44387C8.24121 5.16458 8.39805 4.79075 8.39805 4.39543C8.39877 4.20045 8.36057 4.00728 8.28567 3.82725C8.21078 3.64722 8.10071 3.48394 7.96191 3.347L5.50195 0.88059C5.22266 0.601293 4.84668 0.444457 4.45137 0.444457C4.05391 0.444457 3.68223 0.599145 3.40078 0.88059L1.11484 3.16653C0.63789 3.64348 0.36504 4.3009 0.36504 4.97551C0.36504 5.11516 0.375782 5.25051 0.399414 5.38801C0.867773 8.23254 2.38242 11.0556 4.65976 13.3351C6.94141 15.6124 9.76445 17.1249 12.6111 17.5976C13.4189 17.7329 14.2504 17.4622 14.8326 16.8822ZM12.8668 16.0743C10.3338 15.6554 7.80723 14.2933 5.75547 12.2415C3.70371 10.1898 2.3416 7.66536 1.92266 5.13235C1.86895 4.81438 1.97637 4.48782 2.20625 4.25579L4.45137 2.01067L6.83398 4.39114L4.25586 6.96497L4.23652 6.9843L4.4084 7.44836C4.92573 8.85544 5.74284 10.1332 6.80309 11.1931C7.86334 12.253 9.14138 13.0696 10.5486 13.5865L11.0127 13.7583L13.6059 11.163L15.9885 13.5435L13.7434 15.7886C13.5113 16.0206 13.1848 16.1281 12.8668 16.0743Z" fill="#048741"/>
</svg>
