<svg width="54" height="47" viewBox="0 0 54 47" fill="none" xmlns="http://www.w3.org/2000/svg">
<path d="M52.4737 11.0946C52.4258 11.1214 47.1915 13.7001 42.0758 13.7001C36.856 13.7001 29.7645 11.9449 29.6947 11.9269C29.398 11.8527 29.0838 11.9339 28.8605 12.1431C28.6373 12.3523 28.5354 12.6603 28.5903 12.9614L30.1956 21.8001H18.5761L17.263 10.6402C17.0314 8.6754 17.651 6.7053 18.9654 5.2266C20.2793 3.74781 22.1633 2.901 24.1417 2.9001H51.9758V1.1001H24.1417C21.65 1.10098 19.2774 2.16669 17.6215 4.02861C15.9657 5.89062 15.1843 8.37129 15.4744 10.8463L16.7633 21.8001H15.9758C15.4788 21.8001 15.0758 22.2031 15.0758 22.7001V30.8001H0.675781V32.6001H4.27578V45.2001H0.675781V47.0001H41.1758C41.6729 47.0001 42.0758 46.5971 42.0758 46.1001H50.1758V44.3001H42.0758V34.4001H50.1758V32.6001H42.0758V31.7001C42.0758 31.2031 41.6729 30.8001 41.1758 30.8001H33.9758V22.7001C33.9758 22.2031 33.5728 21.8001 33.0758 21.8001H32.0273L30.6061 13.987C34.3709 14.8638 38.2125 15.3705 42.0758 15.5001C45.961 15.3419 49.7729 14.3922 53.2779 12.71L52.4737 11.0946ZM6.07578 32.6001H7.87578V45.2001H6.07578V32.6001ZM40.2758 32.6001V45.2001H28.5319C29.2662 44.7387 29.9468 44.1977 30.5621 43.5864C32.755 41.4054 33.9841 38.4378 33.9758 35.3449V32.6001H40.2758ZM32.1758 35.3449C32.1762 40.788 27.7637 45.2006 22.3206 45.2001H9.67578V32.6001H15.9758C16.4728 32.6001 16.8758 32.1971 16.8758 31.7001V23.6001H32.1758V35.3449Z" fill="#E4772F" stroke="white" stroke-width="0.5"/>
</svg>
