<svg width="54" height="43" viewBox="0 0 54 43" fill="none" xmlns="http://www.w3.org/2000/svg">
<path d="M53.0807 16.4732C49.8448 16.36 46.6786 16.8358 43.7038 17.8521C43.6446 14.6749 43.0063 11.5601 41.7998 8.57413C41.6026 8.0866 41.0483 7.85098 40.5598 8.0479C38.6752 8.80921 36.9104 9.77095 35.2787 10.9207C33.3199 7.05745 30.766 3.53683 27.6723 0.444426C27.3002 0.072546 26.6973 0.0725462 26.3256 0.444516C23.2306 3.53953 20.6769 7.05952 18.7196 10.9193C17.0888 9.77014 15.3247 8.80894 13.4407 8.0479C12.9527 7.85089 12.398 8.08651 12.2008 8.57413C10.9922 11.565 10.3536 14.6849 10.2961 17.8675C7.36188 16.8592 4.19983 16.3589 0.919224 16.4732C0.393462 16.4917 -0.0177604 16.9327 0.000591093 17.4583C0.492814 31.5527 12.1145 42.6829 26.1093 42.6829C26.4046 42.6829 26.7026 42.6775 27.0001 42.6677C27.2983 42.6776 27.5948 42.6829 27.8909 42.6829C41.8845 42.6829 53.5074 31.5519 53.9995 17.4583C54.0176 16.9327 53.6064 16.4916 53.0807 16.4732ZM13.6205 10.1956C16.3043 11.4036 18.7094 13.0627 20.7809 15.1366C23.0048 17.3592 24.7489 19.9568 25.9725 22.8603C25.1563 24.9687 24.6208 27.1481 24.3712 29.3712C21.5635 24.6038 17.2903 20.8153 12.1981 18.6051C12.1668 15.7336 12.6442 12.9118 13.6205 10.1956ZM1.95745 18.3621C8.06969 18.3883 13.8614 20.6794 18.3572 24.872C22.8533 29.0647 25.5431 34.6817 25.9952 40.7777C13.3952 40.7185 2.89539 30.9274 1.95745 18.3621ZM22.1279 13.7897C21.5307 13.1918 20.9071 12.6266 20.2596 12.0934C22.0042 8.57539 24.2667 5.34835 26.9992 2.48131C29.7302 5.34637 31.9926 8.57359 33.7385 12.0949C33.0917 12.6276 32.4686 13.192 31.8718 13.7893C29.8855 15.7745 28.2532 18.0388 26.9998 20.5391C25.7476 18.0401 24.1154 15.7758 22.1279 13.7897ZM26.9961 35.5299C26.7485 34.6479 26.4561 33.7851 26.1211 32.9441C26.1149 32.7407 26.1118 32.5256 26.1118 32.2898C26.1118 29.1683 26.7077 26.1118 27.8827 23.205C29.1136 20.1594 30.9087 17.4447 33.2188 15.1361C35.2913 13.0623 37.6967 11.4035 40.3802 10.1956C41.3543 12.9058 41.8314 15.7212 41.8025 18.5862C39.0897 19.7598 36.5695 21.4031 34.3438 23.4787C30.7809 26.801 28.2712 30.9534 26.9961 35.5299ZM28.0048 40.7777C28.457 34.6817 31.1465 29.0647 35.6427 24.872C40.1389 20.679 45.9297 18.3878 52.0426 18.362C51.1044 30.9281 40.6059 40.7197 28.0048 40.7777Z" fill="#E4772F" stroke="white" stroke-width="0.3"/>
</svg>
