<svg width="54" height="54" viewBox="0 0 54 54" fill="none" xmlns="http://www.w3.org/2000/svg">
<path d="M1.66235 46.7827C2.08339 46.6669 2.33099 46.2315 2.21482 45.81C1.16837 42.009 1.40897 36.2054 2.95021 28.0674C3.96287 22.7202 5.59434 18.0936 7.7997 14.3157C9.38457 11.6007 11.2233 9.38052 13.2651 7.71609C14.5645 6.65646 16.4048 6.63916 17.7405 7.67448C18.7412 8.44984 19.2554 9.66969 19.1153 10.937C18.8277 13.5461 18.9484 17.3496 21.0644 20.933C20.7777 21.2865 20.4572 21.6676 20.0995 22.0758C20.0987 22.0767 20.0979 22.0779 20.0971 22.0788C19.3238 22.9678 18.5026 23.8099 17.6697 24.643C17.4658 24.8469 15.049 27.1701 14.9892 27.1103C14.4129 26.527 13.7398 25.7845 13.0756 24.9128C13.0851 24.1613 13.1585 21.9164 13.6754 20.4225C13.8184 20.0098 13.5993 19.5591 13.1864 19.4165C12.7736 19.2735 12.3233 19.4923 12.1803 19.9051C11.8846 20.7591 11.7157 21.7859 11.6193 22.7058C11.0692 21.7232 10.5983 20.6488 10.2938 19.5067C10.181 19.0849 9.74754 18.8336 9.32571 18.9464C8.90341 19.0589 8.65251 19.4923 8.76498 19.9146C9.16623 21.42 9.82215 22.8113 10.5719 24.0464C9.53874 23.945 8.24259 23.9714 7.05771 24.4432C6.65191 24.6046 6.45374 25.0648 6.61565 25.4706C6.77386 25.8691 7.24517 26.0717 7.64314 25.9131C9.21159 25.2886 11.1657 25.7009 11.8174 25.8691C12.4955 26.7598 13.1799 27.5227 13.7751 28.1325C13.4748 28.3792 13.1823 28.6384 12.8984 28.9103C11.7507 30.0103 10.7413 31.3142 9.87732 32.8118C8.76993 31.8853 7.37082 30.4577 6.83236 28.8168C6.69599 28.4019 6.24899 28.1758 5.8337 28.3121C5.41883 28.4485 5.19265 28.8955 5.32902 29.3104C5.55561 30.0004 5.89344 30.6497 6.29595 31.2525C5.61288 31.3492 4.78931 31.5425 3.98183 31.9227C3.58632 32.1086 3.41658 32.5799 3.6028 32.975C3.78572 33.3643 4.26609 33.5373 4.65542 33.354C5.76449 32.8325 6.94854 32.7508 7.49195 32.7434C8.02589 33.3112 8.59113 33.8138 9.12708 34.2435C8.7827 34.9611 8.46589 35.7147 8.18078 36.507C7.79476 37.579 7.49525 38.6283 7.26247 39.6149C7.00169 39.5366 6.72772 39.4634 6.44386 39.3987C6.21891 38.9978 5.8127 38.1623 5.72164 37.2135C5.68004 36.7789 5.294 36.4595 4.85894 36.5016C4.42389 36.5431 4.10501 36.9296 4.14662 37.3643C4.21048 38.0313 4.38681 38.6439 4.5825 39.1506C4.03909 39.1346 3.48991 39.1725 2.95556 39.2908C2.52875 39.3854 2.25972 39.8077 2.35407 40.2341C2.44882 40.661 2.87111 40.93 3.29751 40.8357C4.49681 40.5699 5.85307 40.8295 6.93865 41.1702C6.75367 42.1861 6.63872 43.0954 6.5691 43.837C6.45992 44.9922 7.32715 46.0798 8.49266 46.1722C9.51723 46.2532 10.5069 45.5196 10.7211 44.5126C10.7845 44.2147 10.867 43.8592 10.9707 43.4579C11.8121 44.2098 12.7563 45.2613 13.1448 46.444C13.2787 46.8527 13.7352 47.083 14.1431 46.9491C14.5583 46.8128 14.7841 46.3657 14.6478 45.9505C14.4771 45.4314 14.2329 44.9399 13.942 44.4789C14.4768 44.3891 15.0923 44.228 15.6971 43.9433C16.0925 43.7575 16.2619 43.2861 16.0761 42.8907C15.8899 42.4951 15.4185 42.3258 15.0234 42.5116C14.162 42.9174 13.2413 42.9944 12.7798 43.0051C12.3468 42.5496 11.8915 42.1449 11.4585 41.7973C12.1433 39.7105 13.2923 37.0581 15.1607 34.6736C15.4083 35.0514 15.6913 35.446 16.011 35.8456C15.9014 36.7401 15.7053 39.1065 16.3876 40.9988C16.5334 41.4034 16.9965 41.62 17.4002 41.4747C17.811 41.3264 18.0244 40.8731 17.8761 40.4624C17.5321 39.5078 17.4641 38.3575 17.4843 37.431C18.0644 37.9666 18.7198 38.4795 19.4602 38.9368C19.8206 39.1593 20.3199 39.0501 20.5491 38.6789C20.7785 38.3073 20.6632 37.8199 20.2911 37.5905C18.3453 36.3891 17.0447 34.7396 16.2392 33.4199C16.5754 33.0644 16.9285 32.7183 17.3034 32.3867C19.3155 30.6065 20.9841 29.4178 22.3247 28.4625C22.4503 28.373 22.5727 28.2857 22.6934 28.1992C23.1087 30.2023 23.6228 33.5324 23.6228 39.4967C23.6228 45.108 22.8788 48.3528 21.2111 50.018C19.3683 51.8584 16.2153 51.8534 11.852 51.8472C8.63521 51.8472 5.23508 51.4246 3.35561 48.4771C3.12077 48.1089 2.63174 48.0005 2.26343 48.2353C1.89511 48.4702 1.78676 48.9596 2.02159 49.3279C3.78119 52.087 6.73348 53.4284 11.047 53.4284C11.5694 53.4284 12.0918 53.4301 12.6141 53.4301C16.9644 53.4301 20.1478 53.3155 22.3292 51.1378C24.3179 49.1516 25.2053 45.5616 25.2053 39.4967C25.2053 32.6149 24.5313 29.1303 24.0876 27.1639C24.947 26.4817 25.6111 25.8216 26.0705 24.9981C26.2509 24.6751 26.5847 24.4744 26.9414 24.4744H27.0527C27.4099 24.4744 27.7436 24.6751 27.9236 24.9981C28.3829 25.8216 29.0471 26.4817 29.9065 27.1639C29.4632 29.1303 28.7892 32.6149 28.7892 39.4967C28.7892 45.5616 29.6762 49.1516 31.6652 51.1378C33.8463 53.316 37.0293 53.4301 41.3798 53.4301C41.9023 53.4301 42.4247 53.4284 42.9471 53.4284C46.7951 53.4284 49.541 52.3721 51.3409 50.1988C52.8941 48.3243 53.7481 45.6316 53.9517 41.9665C54.156 38.3016 53.7131 33.6585 52.5983 27.7728C51.532 22.1422 49.7927 17.2713 47.4291 13.2952C47.2058 12.9195 46.7201 12.7963 46.3447 13.0196C45.969 13.2429 45.8458 13.7282 46.0687 14.1039C48.3384 17.921 50.0118 22.6189 51.0439 28.0669C53.1482 39.1786 52.8554 45.8907 50.1226 49.1899C48.1599 51.5588 45.0078 51.8427 42.1425 51.8472C37.7791 51.8534 34.6258 51.8584 32.783 50.018C31.1152 48.3528 30.3716 45.108 30.3716 39.4967C30.3716 33.5324 30.8858 30.2023 31.301 28.1992C31.4218 28.2857 31.5441 28.373 31.6697 28.4625C33.4001 29.6956 35.0983 30.9776 36.6907 32.3867C37.0656 32.7183 37.419 33.0644 37.7548 33.4199C36.9498 34.7391 35.6492 36.3891 33.7029 37.5905C33.3313 37.8199 33.2159 38.3073 33.4454 38.6789C33.6716 39.0456 34.1677 39.163 34.5339 38.9368C35.2751 38.4795 35.9305 37.9658 36.5115 37.4297C36.5316 38.3547 36.4637 39.5042 36.1184 40.462C35.9363 40.9671 36.3264 41.5216 36.8625 41.5216C37.1867 41.5216 37.4903 41.321 37.607 40.9988C38.2888 39.1065 38.093 36.7401 37.9834 35.8456C38.3032 35.4457 38.5862 35.0509 38.8334 34.6736C40.7021 37.0581 41.8512 39.7105 42.5359 41.7973C42.1029 42.1449 41.6477 42.5496 41.2147 43.0051C40.7533 42.9944 39.8328 42.9174 38.971 42.5116C38.5755 42.3258 38.1046 42.4956 37.9184 42.8907C37.7326 43.2861 37.9019 43.7575 38.2974 43.9433C38.9022 44.228 39.5181 44.3891 40.0524 44.4789C39.7616 44.9399 39.5173 45.4314 39.3467 45.9505C39.2104 46.3657 39.4361 46.8128 39.8514 46.9491C40.2531 47.081 40.7137 46.8585 40.8497 46.444C41.2382 45.2613 42.1825 44.2098 43.0237 43.4579C43.1276 43.8592 43.2099 44.2147 43.2734 44.5126C43.2734 44.5139 43.2738 44.5147 43.2742 44.516C43.4885 45.5167 44.4813 46.2524 45.5018 46.1722C46.723 46.0757 47.5312 44.9168 47.4163 43.7472C47.3459 43.0221 47.2334 42.1462 47.0558 41.1702C48.141 40.8295 49.4977 40.5699 50.6969 40.8357C51.1233 40.93 51.5456 40.6606 51.64 40.2341C51.7347 39.8077 51.4653 39.3854 51.0389 39.2908C50.5046 39.1725 49.9554 39.1346 49.412 39.1506C49.6076 38.6439 49.784 38.0313 49.8479 37.3643C49.8894 36.9296 49.5706 36.5431 49.1355 36.5016C48.7001 36.4595 48.3144 36.7789 48.2729 37.2135C48.1818 38.1643 47.7764 38.9974 47.5506 39.3987C47.2667 39.4634 46.9928 39.5366 46.732 39.6146C46.4992 38.6283 46.1997 37.5785 45.8137 36.507C45.7416 36.3067 44.8397 34.2653 44.8673 34.2435C45.4037 33.8134 45.969 33.3103 46.5034 32.7426C47.0434 32.7479 48.2201 32.8279 49.3391 33.354C49.7214 33.534 50.2059 33.3701 50.3916 32.975C50.5775 32.5799 50.4082 32.1086 50.0126 31.9224C49.2052 31.5425 48.3816 31.3492 47.6985 31.2525C48.101 30.6497 48.4388 30.0004 48.6651 29.3104C48.8014 28.8955 48.5756 28.4485 48.1604 28.3121C47.7455 28.1758 47.2985 28.4015 47.1621 28.8168C46.6232 30.4577 45.2246 31.8853 44.1167 32.8122C43.0394 30.9439 41.7354 29.3779 40.2189 28.1325C40.8146 27.5227 41.4994 26.7593 42.1775 25.8682C42.8284 25.6985 44.7734 25.2849 46.3514 25.9131C46.7518 26.0725 47.2194 25.8715 47.3788 25.4706C47.5403 25.0648 47.3425 24.6046 46.9364 24.4432C45.7515 23.9714 44.4558 23.945 43.4225 24.0464C44.1724 22.8117 44.8278 21.42 45.2295 19.9146C45.3419 19.4927 45.0911 19.0589 44.6688 18.9464C44.2469 18.8339 43.8131 19.0849 43.7006 19.5071C43.3961 20.6488 42.9252 21.7237 42.3752 22.7058C42.2789 21.7859 42.1099 20.7591 41.8141 19.9051C41.6712 19.4923 41.2208 19.2735 40.8076 19.4165C40.3948 19.5594 40.1761 20.0098 40.319 20.423C40.8361 21.9169 40.909 24.1613 40.9189 24.9128C40.2548 25.7845 39.5816 26.527 39.0047 27.1108C38.9871 27.0951 38.9686 27.0795 38.9508 27.0642C37.4219 25.7425 36.0397 24.3022 34.6138 22.8759C33.9559 22.1611 33.3977 21.509 32.93 20.9335C35.046 17.3491 35.1667 13.5461 34.8788 10.937C34.7391 9.66969 35.2533 8.44984 36.254 7.67448C37.5896 6.63916 39.4295 6.65646 40.7293 7.71609C42.0423 8.78643 43.2898 10.1101 44.4377 11.6506C44.6984 12.0008 45.194 12.0732 45.5442 11.812C45.8949 11.5512 45.9673 11.0557 45.7061 10.705C44.4809 9.06084 43.1428 7.64235 41.7292 6.48961C39.8555 4.96237 37.2056 4.93519 35.2845 6.42369C33.845 7.53935 33.1055 9.29151 33.3062 11.1104C33.5522 13.3397 33.4731 16.5231 31.8778 19.5698C31.8177 19.4873 31.7596 19.4071 31.706 19.3316C31.2636 18.7096 31.0296 17.9795 31.0296 17.2202V2.70263C31.0296 1.50334 30.0535 0.527344 28.8543 0.527344H25.1406C23.9414 0.527344 22.9653 1.50334 22.9653 2.70263V17.2202C22.9653 17.9795 22.7313 18.7096 22.2889 19.3316C22.2353 19.4071 22.1772 19.4873 22.1171 19.5698C20.5222 16.5231 20.4428 13.3397 20.6887 11.1104C20.8894 9.29151 20.1498 7.53935 18.7104 6.42369C16.7892 4.93519 14.1394 4.96237 12.266 6.48961C10.0768 8.27433 8.11487 10.6387 6.43397 13.5181C4.13715 17.4522 2.44223 22.2481 1.3962 27.7728C-0.191597 36.1535 -0.42231 42.1911 0.689641 46.2302C0.805409 46.6512 1.24088 46.8989 1.66235 46.7827ZM23.5776 20.2487C24.212 19.3576 24.547 18.3103 24.547 17.2202V2.70263C24.547 2.37551 24.8131 2.10978 25.1402 2.10978H28.8538C29.181 2.10978 29.4471 2.37551 29.4471 2.70263V17.2202C29.4471 18.3103 29.7821 19.3576 30.4161 20.2487C31.7543 22.1295 33.3021 23.861 34.9327 25.4912C36.5823 27.1409 38.4618 28.5387 40.1254 30.1743C44.4945 34.4709 45.5809 41.1533 45.8483 43.97C45.8487 43.975 45.8492 43.9804 45.8495 43.9853C45.8767 44.2724 45.674 44.5707 45.3758 44.5946C45.3703 44.595 45.365 44.5942 45.3596 44.5946C45.1047 44.607 44.8736 44.4335 44.8204 44.1834C44.6523 43.3929 44.4722 42.5776 44.1999 41.8153C43.0839 38.7337 41.8475 35.8276 39.7353 33.2725C37.7259 30.8421 35.1371 28.9906 32.5873 27.1738C31.4292 26.3481 30.0182 25.5056 29.305 24.2276C28.3278 22.4751 25.6676 22.4722 24.6887 24.2273C23.9743 25.5082 22.569 26.3449 21.4064 27.1738C20.0357 28.1502 18.33 29.366 16.2554 31.2014C13.3475 33.7738 11.3584 37.2531 10.0957 40.8909C9.72207 41.9674 9.41094 43.0686 9.1737 44.1834C9.11925 44.4389 8.88075 44.6156 8.61791 44.5946C8.31881 44.5707 8.11693 44.2716 8.14412 43.9853C8.24836 42.8795 8.47989 41.1702 8.9887 39.2417C9.61659 36.8625 10.5559 34.5388 11.9431 32.4971C12.7242 31.3472 13.6623 30.2707 14.7886 29.347C16.2672 28.135 17.6919 26.8557 19.0461 25.5061C20.6837 23.8742 22.2361 22.134 23.5776 20.2487Z" fill="#E4772F"/>
</svg>
