<svg width="18" height="18" viewBox="0 0 18 18" fill="none" xmlns="http://www.w3.org/2000/svg">
<path d="M14.0252 12.8473L17.0047 15.8262C17.3303 16.1517 17.3304 16.6796 17.0048 17.0053V17.0053C16.6792 17.3309 16.1512 17.3308 15.8257 17.0052L12.8468 14.0257C11.5191 15.09 9.86768 15.6689 8.16602 15.6665C4.02602 15.6665 0.666016 12.3065 0.666016 8.1665C0.666016 4.0265 4.02602 0.666504 8.16602 0.666504C12.306 0.666504 15.666 4.0265 15.666 8.1665C15.6684 9.86817 15.0895 11.5196 14.0252 12.8473ZM12.3535 12.229C13.4111 11.1414 14.0017 9.68353 13.9993 8.1665C13.9993 4.94317 11.3885 2.33317 8.16602 2.33317C4.94268 2.33317 2.33268 4.94317 2.33268 8.1665C2.33268 11.389 4.94268 13.9998 8.16602 13.9998C9.68304 14.0022 11.1409 13.4116 12.2285 12.354L12.3535 12.229Z" fill="#959595"/>
</svg>
