<svg width="17" height="18" viewBox="0 0 17 18" fill="none" xmlns="http://www.w3.org/2000/svg">
<path d="M13.6591 12.8476L16.5725 15.8429C16.8828 16.1619 16.8828 16.67 16.5726 16.989C16.2498 17.321 15.7167 17.3209 15.3939 16.989L12.5132 14.0259C11.2221 15.0903 9.61611 15.6692 7.96132 15.6667C3.93539 15.6667 0.667969 12.3067 0.667969 8.16675C0.667969 4.02675 3.93539 0.666748 7.96132 0.666748C11.9873 0.666748 15.2547 4.02675 15.2547 8.16675C15.257 9.86842 14.6941 11.5199 13.6591 12.8476ZM12.0334 12.2292C13.0619 11.1417 13.6363 9.68377 13.6339 8.16675C13.6339 4.94342 11.095 2.33341 7.96132 2.33341C4.8268 2.33341 2.28871 4.94342 2.28871 8.16675C2.28871 11.3892 4.8268 14.0001 7.96132 14.0001C9.43655 14.0025 10.8543 13.4118 11.9119 12.3542L12.0334 12.2292Z" fill="#959595"/>
</svg>
