<svg width="36" height="36" viewBox="0 0 36 36" fill="none" xmlns="http://www.w3.org/2000/svg">
<circle cx="18" cy="18" r="18" fill="url(#paint0_radial_270_2428)"/>
<path d="M15.25 22.5835H24.4167" stroke="#959595" stroke-width="1.5" stroke-linecap="round" stroke-linejoin="round"/>
<path d="M15.25 18H24.4167" stroke="#959595" stroke-width="1.5" stroke-linecap="round" stroke-linejoin="round"/>
<path d="M15.25 13.4165H24.4167" stroke="#959595" stroke-width="1.5" stroke-linecap="round" stroke-linejoin="round"/>
<path d="M10.667 12.9583L11.5837 13.875L12.9587 12.5" stroke="#959595" stroke-linecap="round"/>
<path d="M12.6837 18.0918C12.6837 18.6487 12.2322 19.1002 11.6753 19.1002C11.1184 19.1002 10.667 18.6487 10.667 18.0918C10.667 17.5349 11.1184 17.0835 11.6753 17.0835C12.2322 17.0835 12.6837 17.5349 12.6837 18.0918ZM11.3208 18.0918C11.3208 18.2876 11.4795 18.4464 11.6753 18.4464C11.8711 18.4464 12.0299 18.2876 12.0299 18.0918C12.0299 17.896 11.8711 17.7373 11.6753 17.7373C11.4795 17.7373 11.3208 17.896 11.3208 18.0918Z" fill="#959595"/>
<path d="M12.6837 22.6748C12.6837 23.2317 12.2322 23.6832 11.6753 23.6832C11.1184 23.6832 10.667 23.2317 10.667 22.6748C10.667 22.1179 11.1184 21.6665 11.6753 21.6665C12.2322 21.6665 12.6837 22.1179 12.6837 22.6748ZM11.3208 22.6748C11.3208 22.8706 11.4795 23.0294 11.6753 23.0294C11.8711 23.0294 12.0299 22.8706 12.0299 22.6748C12.0299 22.479 11.8711 22.3203 11.6753 22.3203C11.4795 22.3203 11.3208 22.479 11.3208 22.6748Z" fill="#959595"/>
<defs>
<radialGradient id="paint0_radial_270_2428" cx="0" cy="0" r="1" gradientUnits="userSpaceOnUse" gradientTransform="translate(18.0564 19.9083) rotate(-45.4851) scale(22.1329 20.3429)">
<stop stop-color="#FDFDFD"/>
<stop offset="1" stop-color="#E4E7EE"/>
</radialGradient>
</defs>
</svg>
