<svg width="18" height="18" viewBox="0 0 18 18" fill="none" xmlns="http://www.w3.org/2000/svg">
<path d="M0.114896 17.8891L1.31667 13.4731C0.524796 12.1156 0.108759 10.5718 0.11134 9.00022C0.11134 4.09088 4.0909 0.111328 9.00023 0.111328C13.9096 0.111328 17.8891 4.09088 17.8891 9.00022C17.8891 13.9095 13.9096 17.8891 9.00023 17.8891C7.42937 17.8916 5.88615 17.4759 4.52912 16.6847L0.114896 17.8891ZM5.79223 4.82955C5.67744 4.83668 5.56527 4.86691 5.46245 4.91844C5.36603 4.97304 5.278 5.04131 5.20112 5.12111C5.09445 5.22155 5.03401 5.30866 4.96912 5.39311C4.64059 5.82066 4.46388 6.34548 4.4669 6.88466C4.46867 7.32022 4.58245 7.74422 4.76023 8.14066C5.12378 8.94244 5.72201 9.79133 6.51223 10.578C6.70245 10.7673 6.88823 10.9575 7.08823 11.1344C8.06902 11.998 9.23779 12.6207 10.5016 12.9531L11.0073 13.0304C11.1718 13.0393 11.3362 13.0269 11.5016 13.0189C11.7604 13.0055 12.0132 12.9354 12.242 12.8136C12.3896 12.7353 12.4589 12.6962 12.5825 12.618C12.5825 12.618 12.6207 12.5931 12.6936 12.538C12.8136 12.4491 12.8873 12.386 12.9869 12.282C13.0607 12.2055 13.1247 12.1158 13.1736 12.0135C13.2429 11.8687 13.3122 11.5922 13.3407 11.362C13.362 11.186 13.3558 11.09 13.3531 11.0304C13.3496 10.9353 13.2705 10.8367 13.1842 10.7949L12.6669 10.5629C12.6669 10.5629 11.8936 10.226 11.4216 10.0109C11.3718 9.98919 11.3185 9.97684 11.2642 9.97444C11.2034 9.96819 11.142 9.97504 11.084 9.99451C11.0261 10.014 10.9729 10.0456 10.9282 10.0873V10.0855C10.9238 10.0855 10.8642 10.1362 10.2216 10.9149C10.1847 10.9644 10.1339 11.0019 10.0756 11.0225C10.0174 11.0431 9.95429 11.0458 9.89445 11.0304C9.83653 11.015 9.7798 10.9953 9.72467 10.9718C9.61445 10.9256 9.57623 10.9078 9.50067 10.8749L9.49623 10.8731C8.9877 10.6511 8.51687 10.3512 8.10067 9.98422C7.98867 9.88644 7.88467 9.77977 7.77801 9.67666C7.4283 9.34176 7.12353 8.96289 6.87134 8.54955L6.8189 8.46511C6.78123 8.40836 6.75077 8.34715 6.72823 8.28288C6.69445 8.15222 6.78245 8.04733 6.78245 8.04733C6.78245 8.04733 6.99845 7.81088 7.0989 7.68288C7.18253 7.5765 7.26056 7.46583 7.33267 7.35133C7.43756 7.18244 7.47045 7.00911 7.41534 6.87488C7.16645 6.26688 6.90867 5.66155 6.64378 5.06066C6.59134 4.94155 6.43578 4.85622 6.29445 4.83933C6.24645 4.83399 6.19845 4.82866 6.15045 4.82511C6.03108 4.81918 5.91146 4.82036 5.79223 4.82866V4.82955Z" fill="white"/>
</svg>
