<svg width="50" height="60" viewBox="0 0 50 60" fill="none" xmlns="http://www.w3.org/2000/svg">
<path d="M41.5 31C37.428 31 34.064 34.06 33.569 38H22.5V31.875C23.54 31.616 24.439 30.957 25.006 30.002L37.926 8.151C38.682 6.876 38.695 5.345 37.961 4.057C37.227 2.769 35.904 2 34.421 2H32.149C31.585 0.822 30.391 0 29 0C27.404 0 23.5 1.227 23.5 3.5C23.5 5.773 27.404 7 29 7C30.758 7 32.204 5.692 32.449 4H34.42C35.175 4 35.849 4.392 36.222 5.048C36.596 5.703 36.589 6.483 36.204 7.133L23.284 28.984C22.907 29.62 22.24 30 21.5 30C20.76 30 20.093 29.62 19.709 28.974L6.428 7.132C6.043 6.483 6.036 5.703 6.41 5.048C6.784 4.392 7.458 4 8.212 4H10.55C10.796 5.692 12.242 7 14 7C15.596 7 19.5 5.773 19.5 3.5C19.5 1.227 15.596 0 14 0C12.609 0 11.415 0.822 10.851 2H8.212C6.729 2 5.406 2.77 4.672 4.058C3.938 5.346 3.951 6.876 4.713 8.161L17.995 30.003C18.561 30.958 19.46 31.616 20.5 31.875V38H11.5C5.435 38 0.5 42.935 0.5 49C0.5 55.065 5.435 60 11.5 60C17.565 60 22.5 55.065 22.5 49V40H33.569C34.064 43.94 37.428 47 41.5 47C45.911 47 49.5 43.411 49.5 39C49.5 34.589 45.911 31 41.5 31ZM29 5C27.766 5 25.642 4.011 25.502 3.5C25.642 2.989 27.766 2 29 2C29.827 2 30.5 2.673 30.5 3.5C30.5 4.327 29.827 5 29 5ZM14 2C15.234 2 17.358 2.989 17.498 3.5C17.358 4.011 15.234 5 14 5C13.173 5 12.5 4.327 12.5 3.5C12.5 2.673 13.173 2 14 2ZM20.5 49C20.5 53.963 16.462 58 11.5 58C6.538 58 2.5 53.963 2.5 49C2.5 44.037 6.538 40 11.5 40H20.5V49ZM41.5 45C38.191 45 35.5 42.309 35.5 39C35.5 35.691 38.191 33 41.5 33C44.809 33 47.5 35.691 47.5 39C47.5 42.309 44.809 45 41.5 45Z" fill="#E4772F" stroke="white" stroke-width="0.4"/>
<path d="M41.5 35C39.294 35 37.5 36.794 37.5 39C37.5 41.206 39.294 43 41.5 43C43.706 43 45.5 41.206 45.5 39C45.5 36.794 43.706 35 41.5 35ZM41.5 41C40.397 41 39.5 40.103 39.5 39C39.5 37.897 40.397 37 41.5 37C42.603 37 43.5 37.897 43.5 39C43.5 40.103 42.603 41 41.5 41Z" fill="#E4772F" stroke="white" stroke-width="0.4"/>
</svg>
