<svg width="60" height="60" viewBox="0 0 60 60" fill="none" xmlns="http://www.w3.org/2000/svg">
<g clip-path="url(#clip0_88_4595)">
<path d="M23.6298 15.3567H19.0796C19.0721 15.3567 19.0647 15.3568 19.0572 15.3569C19.1572 14.8153 19.2886 14.2793 19.4512 13.7508L20.9906 8.74791C21.6281 6.67593 21.2551 4.48757 19.9672 2.74382C18.6792 1.00008 16.6972 0 14.5293 0C6.51784 0 0 6.51784 0 14.5293V21.3546C0 29.3661 6.51784 35.8839 14.5293 35.8839C16.6972 35.8839 18.6792 34.8838 19.967 33.1401C21.2548 31.3963 21.6278 29.2079 20.9904 27.1359L19.451 22.133C19.2883 21.6045 19.157 21.0685 19.057 20.5269C19.0644 20.527 19.0719 20.5271 19.0794 20.5271H21.3545C21.8398 20.5271 22.2334 20.1336 22.2334 19.6482C22.2334 19.1628 21.8401 18.7694 21.3547 18.7694H19.0796C18.999 18.7694 18.9209 18.7803 18.8468 18.8006C18.8297 18.5151 18.821 18.2288 18.821 17.942C18.821 17.6552 18.8297 17.3688 18.8468 17.0833C18.9209 17.1036 18.999 17.1145 19.0796 17.1145H23.6298C24.1152 17.1145 24.5087 16.721 24.5087 16.2356C24.5087 15.7502 24.1152 15.3567 23.6298 15.3567ZM17.771 13.234C17.7361 13.3475 17.7024 13.4615 17.67 13.5758C16.7019 13.5534 15.7588 13.3398 14.8633 12.9396C13.318 12.2489 12.0965 11.0876 11.3308 9.581C11.111 9.14834 10.5817 8.97584 10.1491 9.19569C9.71647 9.41565 9.54397 9.94475 9.76381 10.3774C10.7004 12.2199 12.2566 13.6998 14.146 14.5442C15.1486 14.9924 16.1996 15.2518 17.2793 15.3183C17.1834 15.8955 17.1192 16.4778 17.0871 17.0631H5.42905C4.94366 17.0631 4.55015 17.4566 4.55015 17.942C4.55015 18.4273 4.94366 18.8209 5.42905 18.8209H17.0872C17.118 19.3817 17.1782 19.94 17.2677 20.4936C16.1922 20.5613 15.145 20.8204 14.1461 21.2669C12.2567 22.1115 10.7005 23.5912 9.76393 25.4337C9.54408 25.8665 9.71647 26.3956 10.1492 26.6155C10.5819 26.8351 11.1111 26.6629 11.331 26.2301C12.0967 24.7237 13.3182 23.5623 14.8634 22.8716C15.7527 22.4741 16.6886 22.2607 17.6497 22.2358C17.6882 22.3742 17.7287 22.5124 17.771 22.6498L19.3104 27.6529C19.7821 29.1861 19.5061 30.8055 18.5531 32.0958C17.6001 33.3862 16.1335 34.1262 14.5293 34.1262C7.4871 34.1262 1.75781 28.3969 1.75781 21.3547V14.5295C1.75781 7.4871 7.4871 1.75781 14.5293 1.75781C16.1334 1.75781 17.6001 2.49785 18.5531 3.7882C19.5061 5.07854 19.7821 6.69796 19.3104 8.23112L17.771 13.234Z" fill="#E4772F" stroke="white" stroke-width="0.2"/>
<path d="M35.6881 44.826C35.2027 44.826 34.8092 45.2195 34.8092 45.7049V57.4165C34.8092 57.8727 34.4381 58.2439 33.9818 58.2439C33.5254 58.2439 33.1543 57.8728 33.1543 57.4165V36.1445C33.1543 35.6591 32.7608 35.2656 32.2754 35.2656C31.79 35.2656 31.3965 35.6591 31.3965 36.1445V57.4165C31.3965 58.8419 32.5562 60.0017 33.9818 60.0017C35.4073 60.0017 36.567 58.8421 36.567 57.4165V45.7049C36.567 45.2195 36.1735 44.826 35.6881 44.826Z" fill="#E4772F" stroke="white" stroke-width="0.2"/>
<path d="M32.2754 21.6133C31.79 21.6133 31.3965 22.0068 31.3965 22.4922V32.7301C31.3965 33.2155 31.79 33.609 32.2754 33.609C32.7608 33.609 33.1543 33.2155 33.1543 32.7301V22.4922C33.1543 22.0068 32.7608 21.6133 32.2754 21.6133Z" fill="#E4772F" stroke="white" stroke-width="0.2"/>
<path d="M35.6875 21.6133C35.2021 21.6133 34.8086 22.0068 34.8086 22.4922V42.1875C34.8086 42.6729 35.2021 43.0664 35.6875 43.0664C36.1729 43.0664 36.5664 42.6729 36.5664 42.1875V22.4922C36.5664 22.0068 36.1729 21.6133 35.6875 21.6133Z" fill="#E4772F" stroke="white" stroke-width="0.2"/>
<path d="M45.4707 0C43.3028 0 41.3208 1.00008 40.0331 2.74394C38.7452 4.48769 38.3722 6.67616 39.0097 8.74803L40.549 13.7509C40.7117 14.2793 40.8431 14.8153 40.9429 15.3568H29.4315C26.1242 15.3568 23.4336 18.0474 23.4336 21.3547V57.4147C23.4336 58.8402 24.5933 60 26.0189 60C27.4444 60 28.6041 58.8403 28.6041 57.4147V21.3547C28.6041 20.8985 28.9753 20.5272 29.4316 20.5272H40.943C40.8431 21.0687 40.7117 21.6048 40.5491 22.1332L39.0098 27.136C38.3723 29.208 38.7453 31.3963 40.0332 33.1402C41.3211 34.884 43.303 35.884 45.4708 35.884C53.4823 35.884 60.0001 29.3662 60.0001 21.3547V14.5295C60 6.51784 53.4822 0 45.4707 0ZM29.4312 18.7695C28.0058 18.7694 26.846 19.9291 26.846 21.3547V57.4147C26.846 57.8709 26.4748 58.2422 26.0185 58.2422C25.5622 58.2422 25.1911 57.8711 25.1911 57.4147V21.3547C25.1911 19.0167 27.0931 17.1146 29.4311 17.1146H41.1551C41.1711 17.3898 41.1791 17.6657 41.1791 17.9421C41.1791 18.2184 41.1712 18.4943 41.1551 18.7695H29.4312ZM58.2422 21.3547C58.2422 28.3969 52.5129 34.1262 45.4707 34.1262C43.8666 34.1262 42.3999 33.3862 41.4469 32.0958C40.494 30.8055 40.2179 29.1861 40.6897 27.6529L42.229 22.6501C42.2713 22.5126 42.3119 22.3744 42.3503 22.2361C43.3113 22.2609 44.2475 22.4743 45.1366 22.8718C46.6819 23.5625 47.9034 24.7238 48.6691 26.2304C48.8889 26.663 49.4181 26.8355 49.8508 26.6157C50.2834 26.3957 50.4559 25.8666 50.2361 25.434C49.2995 23.5914 47.7433 22.1116 45.8539 21.2671C44.855 20.8207 43.8079 20.5616 42.7323 20.4938C42.8242 19.9252 42.8853 19.3516 42.9153 18.7754C43.0033 18.805 43.0975 18.8211 43.1956 18.8211H54.571C55.0563 18.8211 55.4499 18.4276 55.4499 17.9422C55.4499 17.4568 55.0563 17.0633 54.571 17.0633H43.1956C43.0976 17.0633 43.0033 17.0793 42.9153 17.109C42.884 16.5084 42.8191 15.9108 42.7206 15.3186C43.8002 15.252 44.8514 14.9927 45.8539 14.5446C47.7433 13.7 49.2995 12.2203 50.2361 10.3778C50.4559 9.94498 50.2835 9.41588 49.8508 9.19604C49.418 8.97619 48.8889 9.14858 48.6691 9.58135C47.9034 11.0878 46.6818 12.2492 45.1366 12.9399C44.241 13.3402 43.2981 13.5538 42.3299 13.5761C42.2976 13.4619 42.2639 13.348 42.2289 13.2343L40.6895 8.23147C40.2177 6.69831 40.4938 5.0789 41.4468 3.78855C42.3999 2.49785 43.8665 1.75781 45.4707 1.75781C52.5129 1.75781 58.2422 7.4871 58.2422 14.5293V21.3547Z" fill="#E4772F" stroke="white" stroke-width="0.2"/>
</g>
<defs>
<clipPath id="clip0_88_4595">
<rect width="60" height="60" fill="white"/>
</clipPath>
</defs>
</svg>
