<svg width="60" height="60" viewBox="0 0 60 60"  fill="none" xmlns="http://www.w3.org/2000/svg">
<g clip-path="url(#clip0_86_4273)">
<path d="M22.9688 52.6133C22.3219 52.6133 21.7969 53.1383 21.7969 53.7852C21.7969 54.432 22.3219 54.957 22.9688 54.957C23.6156 54.957 24.1406 54.432 24.1406 53.7852C24.1406 53.1383 23.6156 52.6133 22.9688 52.6133Z" fill="white" stroke="url(#paint0_linear_86_4273)" stroke-width="0.6"/>
<path d="M39.3751 47.5742H1.17188C0.524767 47.5742 0 48.0989 0 48.7461V58.8242C0 59.4714 0.524767 59.9961 1.17188 59.9961H39.3751C40.0222 59.9961 40.547 59.4714 40.547 58.8242V48.7461C40.547 48.0989 40.0222 47.5742 39.3751 47.5742ZM38.2032 57.6524H2.34375V49.918H38.2032V57.6524Z" fill="white" stroke="url(#paint1_linear_86_4273)" stroke-width="0.6"/>
<path d="M18.2813 52.6133H5.85938C5.21227 52.6133 4.6875 53.1379 4.6875 53.7852C4.6875 54.4324 5.21227 54.957 5.85938 54.957H18.2813C18.9284 54.957 19.4532 54.4324 19.4532 53.7852C19.4532 53.1379 18.9284 52.6133 18.2813 52.6133Z" fill="white" stroke="url(#paint2_linear_86_4273)" stroke-width="0.6"/>
<path d="M57.4539 1.62161C55.6293 0.0715678 52.99 -0.418277 50.7308 0.374029C48.7647 1.06309 47.2583 2.47532 46.4889 4.35138C46.0322 5.46736 45.2873 6.48256 44.3119 7.32807C43.7314 6.92693 43.035 6.70299 42.3106 6.70299C41.5852 6.70299 40.8878 6.92318 40.2953 7.33932C39.042 8.2174 38.5377 9.77108 38.9277 11.1675L22.6985 22.733C20.9128 23.9835 20.2659 26.2629 20.9965 28.2161L16.6369 31.2689C16.4086 31.3697 16.2138 31.5414 16.0875 31.7664C15.4753 32.8566 12.4219 38.4034 12.4219 40.5433C12.4219 43.128 14.5247 45.2308 17.1094 45.2308C19.6941 45.2308 21.7969 43.128 21.7969 40.5433C21.7969 38.7808 19.7264 34.7092 18.6538 32.718L22.3398 30.1368C22.9695 30.6771 23.7342 31.0416 24.5727 31.1896C24.8474 31.2381 25.1223 31.262 25.3956 31.262C26.3495 31.262 27.2801 30.9699 28.0832 30.407L44.3109 18.8433C44.8984 19.2601 45.608 19.494 46.3476 19.494C47.071 19.494 47.7671 19.2747 48.3618 18.859C49.5965 17.994 50.1049 16.4737 49.7473 15.0937C50.1677 14.8651 50.6075 14.6708 51.0636 14.5145C51.8185 14.2548 52.6085 14.1002 53.4124 14.0548C54.7037 13.9803 55.9447 13.5493 57.0006 12.8089C58.7983 11.5501 59.8887 9.56963 59.992 7.37529C60.0953 5.17849 59.1704 3.08153 57.4539 1.62161ZM19.453 40.5434C19.453 41.8356 18.4016 42.8872 17.1093 42.8872C15.8169 42.8872 14.7655 41.8358 14.7655 40.5434C14.7655 39.7468 15.8544 37.2498 17.1094 34.815C18.3642 37.2491 19.453 39.7459 19.453 40.5434ZM26.7305 28.493C26.2177 28.8522 25.5959 28.99 24.9797 28.8815C24.3633 28.7727 23.8261 28.4303 23.467 27.917C22.726 26.8585 22.9843 25.3942 24.0508 24.6472L40.11 13.2029L42.7991 17.0428L26.7305 28.493ZM47.018 16.9387C46.8201 17.0771 46.5882 17.1504 46.3476 17.1504C45.9643 17.1504 45.6047 16.9636 45.3856 16.6505L41.352 10.8908C40.9816 10.3617 41.1106 9.62975 41.6409 9.25838C41.838 9.11998 42.0694 9.04686 42.3105 9.04686C42.6937 9.04686 43.0532 9.23354 43.2721 9.54631C43.2722 9.54643 43.2722 9.54655 43.2723 9.54666L47.3048 15.3064C47.3049 15.3066 47.3049 15.3067 47.305 15.3068C47.6758 15.836 47.5465 16.5684 47.018 16.9387ZM57.6509 7.26514C57.5819 8.72893 56.855 10.0496 55.6557 10.8893C54.9558 11.3801 54.1335 11.6654 53.2788 11.7146C52.2613 11.7722 51.2597 11.9685 50.3023 12.2976C49.709 12.5011 49.1362 12.7544 48.5895 13.0546L45.8308 9.11401C47.0916 8.02533 48.059 6.70334 48.6577 5.23978C49.1691 3.99279 50.1807 3.05025 51.5062 2.58583C52.9952 2.06364 54.7342 2.38649 55.9362 3.40732C57.095 4.39287 57.7199 5.799 57.6509 7.26514Z" fill="white" stroke="url(#paint3_linear_86_4273)" stroke-width="0.6"/>
</g>
<defs>
<linearGradient id="paint0_linear_86_4273" x1="23.1402" y1="52.6133" x2="23.1151" y2="54.9567" gradientUnits="userSpaceOnUse">
<stop stop-color="#E4772F"/>
<stop offset="1" stop-color="#E4772F"/>
</linearGradient>
<linearGradient id="paint1_linear_86_4273" x1="23.2404" y1="47.5742" x2="23.1995" y2="59.9961" gradientUnits="userSpaceOnUse">
<stop stop-color="#E4772F"/>
<stop offset="1" stop-color="#E4772F"/>
</linearGradient>
<linearGradient id="paint2_linear_86_4273" x1="13.1508" y1="52.6133" x2="13.1468" y2="54.957" gradientUnits="userSpaceOnUse">
<stop stop-color="#E4772F"/>
<stop offset="1" stop-color="#E4772F"/>
</linearGradient>
<linearGradient id="paint3_linear_86_4273" x1="39.6921" y1="-1.54641e-08" x2="39.2307" y2="45.2264" gradientUnits="userSpaceOnUse">
<stop stop-color="#E4772F"/>
<stop offset="1" stop-color="#E4772F"/>
</linearGradient>
<clipPath id="clip0_86_4273">
<rect width="60" height="60" fill="#E4772F"/>
</clipPath>
</defs>
</svg>
