<svg width="18" height="16" viewBox="0 0 18 16" fill="none" xmlns="http://www.w3.org/2000/svg">
<path d="M13.4125 13.4729C12.0934 14.3096 10.563 14.7527 9.00097 14.7502C4.95697 14.7502 1.59247 11.8402 0.886719 8.00017C1.20924 6.25321 2.08794 4.65734 3.39172 3.45067L1.04497 1.10617L2.10622 0.0449219L16.9555 14.8949L15.8942 15.9554L13.4117 13.4729H13.4125ZM4.45222 4.51267C3.43297 5.43936 2.72296 6.65676 2.41822 8.00017C2.65244 9.02501 3.12267 9.98103 3.79147 10.7921C4.46028 11.6032 5.30919 12.247 6.27063 12.6722C7.23208 13.0973 8.2795 13.2922 9.32954 13.2413C10.3796 13.1903 11.4032 12.8949 12.319 12.3787L10.798 10.8577C10.1505 11.2655 9.38362 11.4412 8.62315 11.356C7.86268 11.2708 7.15375 10.9296 6.61265 10.3885C6.07154 9.84739 5.73039 9.13846 5.64514 8.37799C5.55989 7.61752 5.73561 6.85065 6.14347 6.20317L4.45222 4.51267ZM9.68647 9.74617L7.25497 7.31467C7.12152 7.65437 7.09011 8.02564 7.1646 8.38293C7.23909 8.74022 7.41623 9.06801 7.67431 9.32608C7.93238 9.58416 8.26017 9.7613 8.61746 9.83579C8.97475 9.91028 9.34602 9.87887 9.68572 9.74542L9.68647 9.74617ZM15.6062 11.4442L14.533 10.3717C15.0343 9.65715 15.3913 8.85156 15.5837 8.00017C15.3799 7.10747 14.9967 6.26553 14.4573 5.52554C13.918 4.78555 13.2338 4.16297 12.4464 3.69562C11.6589 3.22828 10.7847 2.92595 9.87677 2.80699C8.96885 2.68804 8.04622 2.75496 7.16497 3.00367L5.98147 1.82017C6.91672 1.45267 7.93597 1.25017 9.00097 1.25017C13.045 1.25017 16.4095 4.16017 17.1152 8.00017C16.8854 9.24945 16.3689 10.4284 15.6062 11.4442ZM8.79322 4.63117C9.2706 4.60167 9.7488 4.67397 10.1961 4.84328C10.6434 5.0126 11.0497 5.27505 11.3879 5.61326C11.7261 5.95146 11.9885 6.35769 12.1579 6.80501C12.3272 7.25234 12.3995 7.73054 12.37 8.20792L8.79247 4.63117H8.79322Z" fill="#C4C4C4"/>
</svg>
