<svg width="18" height="18" viewBox="0 0 18 18" fill="none" xmlns="http://www.w3.org/2000/svg">
<path d="M9.00022 0.111328C11.4153 0.111328 11.7167 0.120217 12.6642 0.164661C13.6109 0.209106 14.2553 0.35755 14.8224 0.577995C15.4091 0.803773 15.9033 1.10955 16.3976 1.60288C16.8495 2.04724 17.1993 2.58474 17.4224 3.17799C17.642 3.74422 17.7913 4.38955 17.8358 5.33622C17.8776 6.28377 17.8891 6.5851 17.8891 9.00022C17.8891 11.4153 17.8802 11.7167 17.8358 12.6642C17.7913 13.6109 17.642 14.2553 17.4224 14.8224C17.1999 15.416 16.8501 15.9537 16.3976 16.3975C15.9531 16.8494 15.4156 17.1991 14.8224 17.4224C14.2562 17.642 13.6109 17.7913 12.6642 17.8358C11.7167 17.8775 11.4153 17.8891 9.00022 17.8891C6.58511 17.8891 6.28377 17.8802 5.33622 17.8358C4.38955 17.7913 3.74511 17.642 3.17799 17.4224C2.58451 17.1997 2.04691 16.8499 1.60288 16.3975C1.1508 15.9533 0.801045 15.4157 0.577995 14.8224C0.35755 14.2562 0.209106 13.6109 0.164661 12.6642C0.122884 11.7167 0.111328 11.4153 0.111328 9.00022C0.111328 6.5851 0.120217 6.28377 0.164661 5.33622C0.209106 4.38866 0.35755 3.74511 0.577995 3.17799C0.800427 2.58438 1.15026 2.04672 1.60288 1.60288C2.04704 1.15064 2.5846 0.800865 3.17799 0.577995C3.74511 0.35755 4.38866 0.209106 5.33622 0.164661C6.28377 0.122884 6.58511 0.111328 9.00022 0.111328ZM9.00022 4.55577C7.82148 4.55577 6.69102 5.02402 5.85752 5.85752C5.02403 6.69101 4.55577 7.82148 4.55577 9.00022C4.55577 10.179 5.02403 11.3094 5.85752 12.1429C6.69102 12.9764 7.82148 13.4447 9.00022 13.4447C10.179 13.4447 11.3094 12.9764 12.1429 12.1429C12.9764 11.3094 13.4447 10.179 13.4447 9.00022C13.4447 7.82148 12.9764 6.69101 12.1429 5.85752C11.3094 5.02402 10.179 4.55577 9.00022 4.55577V4.55577ZM14.778 4.33355C14.778 4.03886 14.6609 3.75625 14.4526 3.54788C14.2442 3.3395 13.9616 3.22244 13.6669 3.22244C13.3722 3.22244 13.0896 3.3395 12.8812 3.54788C12.6728 3.75625 12.5558 4.03886 12.5558 4.33355C12.5558 4.62823 12.6728 4.91085 12.8812 5.11922C13.0896 5.3276 13.3722 5.44466 13.6669 5.44466C13.9616 5.44466 14.2442 5.3276 14.4526 5.11922C14.6609 4.91085 14.778 4.62823 14.778 4.33355ZM9.00022 6.33355C9.70746 6.33355 10.3857 6.6145 10.8858 7.1146C11.3859 7.61469 11.6669 8.29297 11.6669 9.00022C11.6669 9.70746 11.3859 10.3857 10.8858 10.8858C10.3857 11.3859 9.70746 11.6669 9.00022 11.6669C8.29297 11.6669 7.6147 11.3859 7.1146 10.8858C6.6145 10.3857 6.33355 9.70746 6.33355 9.00022C6.33355 8.29297 6.6145 7.61469 7.1146 7.1146C7.6147 6.6145 8.29297 6.33355 9.00022 6.33355V6.33355Z" fill="white"/>
</svg>
