<svg width="20" height="20" viewBox="0 0 20 20" fill="none" xmlns="http://www.w3.org/2000/svg">
<path d="M0.00401338 20.0001L1.35601 15.0321C0.465151 13.5049 -0.00289063 11.7681 1.34322e-05 10.0001C1.34322e-05 4.47706 4.47701 6.10352e-05 10 6.10352e-05C15.523 6.10352e-05 20 4.47706 20 10.0001C20 15.5231 15.523 20.0001 10 20.0001C8.23279 20.0029 6.49667 19.5352 4.97001 18.6451L0.00401338 20.0001ZM6.39101 5.30806C6.26188 5.31608 6.13569 5.35009 6.02001 5.40806C5.91153 5.46949 5.81251 5.54629 5.72601 5.63606C5.60601 5.74906 5.53801 5.84706 5.46501 5.94206C5.09542 6.42306 4.89662 7.01348 4.90001 7.62006C4.90201 8.11006 5.03001 8.58706 5.23001 9.03306C5.63901 9.93506 6.31201 10.8901 7.20101 11.7751C7.41501 11.9881 7.62401 12.2021 7.84901 12.4011C8.9524 13.3725 10.2673 14.0731 11.689 14.4471L12.258 14.5341C12.443 14.5441 12.628 14.5301 12.814 14.5211C13.1053 14.506 13.3896 14.4272 13.647 14.2901C13.813 14.2021 13.891 14.1581 14.03 14.0701C14.03 14.0701 14.073 14.0421 14.155 13.9801C14.29 13.8801 14.373 13.8091 14.485 13.6921C14.568 13.6061 14.64 13.5051 14.695 13.3901C14.773 13.2271 14.851 12.9161 14.883 12.6571C14.907 12.4591 14.9 12.3511 14.897 12.2841C14.893 12.1771 14.804 12.0661 14.707 12.0191L14.125 11.7581C14.125 11.7581 13.255 11.3791 12.724 11.1371C12.668 11.1127 12.608 11.0988 12.547 11.0961C12.4786 11.089 12.4095 11.0967 12.3443 11.1186C12.2791 11.1405 12.2193 11.1761 12.169 11.2231V11.2211C12.164 11.2211 12.097 11.2781 11.374 12.1541C11.3325 12.2098 11.2754 12.252 11.2098 12.2751C11.1443 12.2983 11.0733 12.3014 11.006 12.2841C10.9409 12.2666 10.877 12.2446 10.815 12.2181C10.691 12.1661 10.648 12.1461 10.563 12.1091L10.558 12.1071C9.98592 11.8573 9.45624 11.5199 8.98801 11.1071C8.86201 10.9971 8.74501 10.8771 8.62501 10.7611C8.23159 10.3843 7.88873 9.95807 7.60501 9.49306L7.54601 9.39806C7.50364 9.33423 7.46937 9.26536 7.44401 9.19306C7.40601 9.04606 7.50501 8.92806 7.50501 8.92806C7.50501 8.92806 7.74801 8.66206 7.86101 8.51806C7.9551 8.39838 8.04289 8.27388 8.12401 8.14506C8.24201 7.95506 8.27901 7.76006 8.21701 7.60906C7.93701 6.92506 7.64701 6.24406 7.34901 5.56806C7.29001 5.43406 7.11501 5.33806 6.95601 5.31906C6.90201 5.31306 6.84801 5.30706 6.79401 5.30306C6.65972 5.29639 6.52515 5.29773 6.39101 5.30706V5.30806Z" fill="white"/>
</svg>
